<svg width="97" height="97" viewBox="0 0 97 97" fill="none" xmlns="http://www.w3.org/2000/svg">
<path d="M1.11434 82.3391C0.591507 85.7585 0.251274 89.208 0.0965578 92.6728L1.59506 92.7397C1.55402 93.6588 1.52624 94.579 1.51177 95.5L5.51136 95.5L5.51136 97L18.7386 97L18.7386 95.5L29.7614 95.5L29.7614 97L42.9886 97L42.9886 95.5L54.0114 95.5L54.0114 97L67.2386 97L67.2386 95.5L78.2614 95.5L78.2614 97L91.4886 97L91.4886 95.5L95.5 95.5L95.5 91.4886L97 91.4886L97 78.2614L95.5 78.2614L95.5 67.2386L97 67.2386L97 54.0114L95.5 54.0114L95.5 42.9886L97 42.9886L97 29.7614L95.5 29.7614L95.5 18.7386L97 18.7386L97 5.51137L95.5 5.51137L95.5 1.51179C94.579 1.52625 93.6588 1.55404 92.7397 1.59508L92.6728 0.0965727C89.208 0.251289 85.7585 0.591522 82.3391 1.11436L82.5658 2.59712C79.7569 3.02661 76.9685 3.58125 74.209 4.25938L73.8511 2.80273C70.4918 3.62826 67.1748 4.63396 63.9145 5.81694L64.4261 7.22698C63.092 7.71107 61.7675 8.22532 60.4537 8.76951C59.1399 9.3137 57.8398 9.88663 56.5541 10.4877L55.9188 9.12887C52.777 10.5977 49.7203 12.2321 46.7612 14.0237L47.5381 15.3068C45.1074 16.7786 42.7435 18.358 40.4536 20.0406L39.5654 18.8318C36.7778 20.88 34.0981 23.0785 31.5387 25.4191L32.551 26.526C31.5037 27.4838 30.4768 28.4658 29.4713 29.4713C28.4658 30.4768 27.4838 31.5037 26.526 32.551L25.4191 31.5387C23.0785 34.0981 20.88 36.7778 18.8318 39.5654L20.0406 40.4536C18.358 42.7435 16.7786 45.1074 15.3068 47.5381L14.0237 46.7612C12.2321 49.7203 10.5977 52.777 9.12885 55.9188L10.4877 56.5541C9.88661 57.8398 9.31368 59.1399 8.76949 60.4537C8.22531 61.7675 7.71106 63.092 7.22698 64.4261L5.81693 63.9145C4.63395 67.1748 3.62824 70.4918 2.80271 73.8511L4.25938 74.209C3.58124 76.9685 3.0266 79.7569 2.59711 82.5658L1.11434 82.3391Z" stroke="#202223" stroke-width="3" stroke-dasharray="10 12"/>
</svg>
