<svg width="56" height="112" viewBox="0 0 56 112" fill="none" xmlns="http://www.w3.org/2000/svg">
<path d="M1.5 55.9727C1.5 54.3485 1.57166 52.7414 1.71194 51.1543L0.217769 51.0223C0.572907 47.0044 1.35618 43.1096 2.52167 39.3837L3.95327 39.8315C4.92071 36.7387 6.15894 33.7654 7.64032 30.9392L6.31176 30.2428C8.16072 26.7154 10.378 23.4114 12.9125 20.3819L14.063 21.3444C16.1262 18.8782 18.4055 16.5989 20.8717 14.5356L19.9092 13.3852C22.9387 10.8507 26.2427 8.63338 29.7702 6.78442L30.4666 8.11297C33.2927 6.6316 36.2661 5.39337 39.3588 4.42592L38.911 2.99433C42.637 1.82884 46.5318 1.04556 50.5496 0.690425L50.6817 2.1846C51.7785 2.08765 52.885 2.02347 54 1.99308V5.51811H55.5V17.6272H54V27.7181H55.5V39.8272H54V49.9181H55.5V62.0272H54V72.1181H55.5V84.2272H54V94.3181H55.5V106.427H54V109.952C52.885 109.922 51.7785 109.858 50.6817 109.761L50.5496 111.255C46.5318 110.9 42.637 110.116 38.911 108.951L39.3588 107.519C36.2661 106.552 33.2927 105.314 30.4666 103.832L29.7702 105.161C26.2427 103.312 22.9387 101.095 19.9092 98.5602L20.8717 97.4097C18.4055 95.3464 16.1262 93.0671 14.063 90.6009L12.9125 91.5634C10.378 88.5339 8.16072 85.2299 6.31177 81.7025L7.64032 81.0061C6.15894 78.1799 4.92071 75.2066 3.95327 72.1138L2.52167 72.5616C1.35618 68.8357 0.572907 64.9409 0.217769 60.923L1.71194 60.791C1.57166 59.2039 1.5 57.5969 1.5 55.9727Z" stroke="#202223" stroke-width="3" stroke-dasharray="10 12"/>
</svg>
