<svg width="199" height="35" viewBox="0 0 199 35" fill="none" xmlns="http://www.w3.org/2000/svg">
<path d="M181.092 -6.58792e-07L193.092 -1.93762e-07L193.092 1.5L196.592 1.5L196.592 3.97727L198.092 3.97727L198.092 13.5227L196.592 13.5227L196.592 21.4773L198.092 21.4773L198.092 31.0227L196.592 31.0227L196.592 33.5L193.092 33.5L193.092 35L181.092 35L181.092 33.5L171.092 33.5L171.092 35L159.092 35L159.092 33.5L149.092 33.5L149.092 35L137.092 35L137.092 33.5L127.092 33.5L127.092 35L115.092 35L115.092 33.5L105.092 33.5L105.092 35L93.0918 35L93.0918 33.5L83.0918 33.5L83.0918 35L71.0918 35L71.0918 33.5L61.0918 33.5L61.0918 35L49.0918 35L49.0918 33.5L39.0918 33.5L39.0918 35L27.0918 35L27.0918 33.5L17.0918 33.5L17.0918 35L5.0918 35L5.0918 33.5L1.5918 33.5L1.5918 31.0227L0.0917953 31.0227L0.0917958 21.4773L1.5918 21.4773L1.5918 13.5227L0.0917962 13.5227L0.0917967 3.97727L1.5918 3.97727L1.5918 1.49999L5.0918 1.49999L5.0918 -7.47923e-06L17.0918 -7.0142e-06L17.0918 1.49999L27.0918 1.49999L27.0918 -6.62668e-06L39.0918 -6.16165e-06L39.0918 1.49999L49.0918 1.49999L49.0918 -5.77412e-06L61.0918 -5.30909e-06L61.0918 1.49999L71.0918 1.5L71.0918 -4.92157e-06L83.0918 -4.45654e-06L83.0918 1.5L93.0918 1.5L93.0918 -4.06901e-06L105.092 -3.60398e-06L105.092 1.5L115.092 1.5L115.092 -3.21646e-06L127.092 -2.75143e-06L127.092 1.5L137.092 1.5L137.092 -2.3639e-06L149.092 -1.89887e-06L149.092 1.5L159.092 1.5L159.092 -1.51135e-06L171.092 -1.04632e-06L171.092 1.5L181.092 1.5L181.092 -6.58792e-07Z" stroke="#202223" stroke-width="3" stroke-dasharray="10 12"/>
</svg>
