<svg width="169" height="157" viewBox="0 0 169 157" fill="none" xmlns="http://www.w3.org/2000/svg">
<path d="M84.4152 90.0438L84.4122 90.0455L84.4071 90.0486L84.3999 90.053L84.3907 90.0587L84.3794 90.0659L84.366 90.0745L84.3506 90.0846L84.3332 90.0961L84.3138 90.1092L84.2925 90.1238L84.2693 90.14L84.2442 90.1579L84.2171 90.1773L84.1882 90.1985L84.1575 90.2213L84.125 90.2458L84.0907 90.2721L84.0546 90.3002L84.0168 90.3301L83.9773 90.3618L83.9361 90.3954L83.8933 90.4308L83.8489 90.4682L83.8028 90.5075L83.7552 90.5488L83.7061 90.592L83.6554 90.6372L83.6033 90.6845L83.5497 90.7339L83.4947 90.7852L83.4383 90.8387L83.3806 90.8944L83.3215 90.9521L83.2612 91.012L83.1995 91.0741L83.1367 91.1384L83.0726 91.205L83.0074 91.2737L82.9411 91.3448L82.8736 91.4181L82.8051 91.4937L82.7355 91.5716L82.665 91.6518L82.5934 91.7344L82.521 91.8193L82.4476 91.9066L82.3734 91.9964L82.2984 92.0885L82.2225 92.183L82.1459 92.28L82.0686 92.3794L81.9906 92.4813L81.9119 92.5857L81.8327 92.6926L81.7528 92.8019L81.6724 92.9138L81.5915 93.0281L81.5101 93.145L81.4284 93.2645L81.3462 93.3865L81.2636 93.511L81.1807 93.6381L81.0976 93.7678L81.0142 93.9L80.9306 94.0349L80.8468 94.1723L80.7629 94.3123L80.6789 94.455L80.5949 94.6002L80.5108 94.748L80.4268 94.8985L80.3428 95.0515L80.2589 95.2072L80.1751 95.3655L80.0916 95.5264L80.0082 95.6899L79.9251 95.8561L79.8423 96.0249L79.7598 96.1962L79.6777 96.3703L79.596 96.5469L79.5147 96.7261L79.4339 96.908L79.3537 97.0924L79.274 97.2795L79.1949 97.4692L79.1164 97.6614L79.0387 97.8563L78.9616 98.0537L78.8853 98.2537L78.8098 98.4563L78.7351 98.6614L78.6613 98.8691L78.5884 99.0794L78.5164 99.2921L78.4455 99.5074L78.3755 99.7252L78.3066 99.9456L78.2388 100.168L78.1722 100.394L78.1067 100.621L78.0424 100.852L77.9794 101.084L77.9177 101.319L77.8572 101.557L77.7982 101.797L77.7405 102.039L77.6843 102.284L77.6295 102.531L77.5763 102.78L77.5246 103.032L77.4744 103.286L77.4259 103.542L77.379 103.801L77.3338 104.062L77.2903 104.325L77.2486 104.59L77.2086 104.858L77.1705 105.127L77.1342 105.399L77.0998 105.673L77.0674 105.949L77.0369 106.227L77.0083 106.507L76.9819 106.789L76.9574 107.073L76.935 107.359L76.9148 107.648L76.8967 107.938L76.8808 108.23L76.8671 108.523L76.8556 108.819L76.8464 109.117L76.8395 109.416L76.8349 109.717L76.8327 110.02L76.8329 110.325L76.8355 110.631L76.8406 110.939L76.8481 111.248L76.8581 111.559L76.8707 111.872L76.8858 112.186L76.9035 112.502L76.9238 112.819L76.9468 113.138L76.9724 113.458L77.0006 113.779L77.0316 114.102L77.0654 114.426L77.1018 114.752L77.1411 115.078L77.1832 115.406L77.2281 115.735L77.2758 116.065L77.3264 116.396L77.3799 116.728L77.4364 117.062L77.4957 117.396L77.558 117.731L77.6233 118.067L77.6916 118.404L77.7628 118.742L77.8371 119.081L77.9145 119.42L77.9949 119.76L78.0784 120.101L78.165 120.443L78.2547 120.785L78.3475 121.128L78.4435 121.471L78.5426 121.814L78.6449 122.159L78.7504 122.503L78.859 122.848L78.9709 123.193L79.086 123.539L79.2043 123.885L79.3259 124.231L79.4507 124.577L79.5788 124.923L79.7102 125.269L79.8448 125.616L79.9828 125.962L80.124 126.309L80.2685 126.655L80.4164 127.001L80.5675 127.347L80.722 127.693L80.8798 128.038L81.041 128.383L81.2054 128.728L81.3733 129.073L81.5444 129.417L81.719 129.76L81.8968 130.103L82.078 130.446L82.2626 130.788L82.4505 131.129L82.6418 131.469L82.8364 131.809L83.0344 132.148L83.2357 132.487L83.4403 132.824L83.6483 133.16L83.8597 133.496L84.0743 133.83L84.2923 134.164L84.5137 134.496L84.7383 134.827L84.9663 135.157L85.1976 135.486L85.4322 135.814L85.67 136.14L85.9112 136.465L86.1556 136.789L86.4033 137.111L86.6543 137.431L86.9085 137.751L87.1659 138.068L87.4266 138.384L87.6904 138.699L87.9575 139.011L88.2278 139.322L88.5012 139.631L88.7778 139.939L89.0575 140.244L89.3404 140.548L89.6264 140.849L89.9155 141.149L90.2076 141.446L90.5028 141.742L90.8011 142.035L91.1024 142.327L91.4067 142.616L91.714 142.903L92.0243 143.187L92.3375 143.47L92.6537 143.75L92.9727 144.027L93.2947 144.302L93.6195 144.575L93.9471 144.845L94.2776 145.113L94.6108 145.378L94.9469 145.64L95.2856 145.9L95.6271 146.157L95.9713 146.411L96.3182 146.662L96.6677 146.911L97.0198 147.157L97.3745 147.4L97.7317 147.64L98.0915 147.877L98.4538 148.111L98.8186 148.342L99.1858 148.57L99.5554 148.795L99.9274 149.017L100.302 149.236L100.678 149.451L101.057 149.663L101.439 149.872L101.822 150.078L102.208 150.28L102.595 150.479L102.985 150.674L103.377 150.866L103.771 151.055L104.167 151.24L104.566 151.422L104.966 151.6L105.367 151.775L105.771 151.946L106.177 152.113L106.584 152.277L106.993 152.437L107.404 152.593L107.817 152.746L108.231 152.894L108.647 153.039L109.064 153.181L109.483 153.318L109.904 153.452L110.326 153.581L110.749 153.707L111.174 153.829L111.6 153.947L112.027 154.061L112.455 154.17L112.885 154.276L113.316 154.378L113.748 154.476L114.181 154.57L114.615 154.659L115.05 154.745L115.486 154.826L115.923 154.904L116.361 154.977L116.799 155.046L117.239 155.11L117.679 155.171L118.12 155.227L118.561 155.279L119.003 155.327L119.446 155.371L119.889 155.41L120.332 155.445L120.776 155.476L121.22 155.502L121.665 155.525L122.11 155.542L122.555 155.556L123 155.565L123.445 155.57L123.891 155.57L124.336 155.566L124.782 155.558L125.227 155.545L125.672 155.528L126.117 155.506L126.562 155.48L127.007 155.45L127.451 155.415L127.895 155.376L128.339 155.333L128.782 155.285L129.225 155.233L129.667 155.176L130.109 155.115L130.55 155.049L130.99 154.979L131.43 154.905L131.868 154.826L132.306 154.743L132.744 154.655L133.18 154.563L133.615 154.467L134.049 154.366L134.482 154.261L134.915 154.152L135.345 154.038L135.775 153.92L136.204 153.797L136.631 153.671L137.057 153.539L137.481 153.404L137.904 153.264L138.326 153.12L138.746 152.972L139.164 152.819L139.581 152.662L139.996 152.501L140.409 152.336L140.821 152.166L141.231 151.992L141.639 151.814L142.045 151.632L142.449 151.446L142.852 151.255L143.252 151.061L143.65 150.862L144.046 150.659L144.44 150.452L144.831 150.241L145.221 150.027L145.608 149.808L145.992 149.585L146.375 149.358L146.755 149.127L147.132 148.892L147.507 148.654L147.879 148.411L148.249 148.165L148.616 147.915L148.981 147.661L149.343 147.403L149.702 147.142L150.058 146.876L150.411 146.607L150.762 146.335L151.109 146.059L151.454 145.779L151.795 145.495L152.134 145.209L152.47 144.918L152.802 144.624L153.131 144.327L153.457 144.026L153.78 143.722L154.1 143.414L154.416 143.103L154.729 142.789L155.039 142.471L155.345 142.151L155.648 141.827L155.947 141.5L156.243 141.169L156.535 140.836L156.824 140.5L157.109 140.16L157.391 139.818L157.669 139.473L157.943 139.124L158.213 138.773L158.48 138.419L158.743 138.063L159.002 137.703L159.257 137.341L159.509 136.976L159.756 136.609L160 136.238L160.239 135.866L160.475 135.491L160.707 135.113L160.934 134.733L161.158 134.35L161.218 134.245L161.437 133.859L161.651 133.472L161.861 133.081L162.067 132.689L162.269 132.295L162.466 131.898L162.66 131.499L162.849 131.099L163.034 130.696L163.215 130.291L163.391 129.885L163.563 129.476L163.73 129.066L163.894 128.654L164.053 128.24L164.207 127.825L164.357 127.408L164.503 126.989L164.644 126.569L164.781 126.147L164.914 125.724L165.041 125.299L165.165 124.873L165.284 124.446L165.398 124.018L165.508 123.588L165.613 123.157L165.714 122.725L165.81 122.292L165.902 121.858L165.989 121.423L166.072 120.987L166.15 120.55L166.223 120.112L166.292 119.673L166.356 119.234L166.415 118.794L166.47 118.353L166.521 117.912L166.566 117.47L166.607 117.028L166.644 116.585L166.676 116.142L166.703 115.699L166.725 115.255L166.743 114.811L166.757 114.366L166.765 113.922L166.769 113.477L166.769 113.033L166.763 112.588L166.754 112.143L166.739 111.699L166.72 111.254L166.697 110.81L166.668 110.366L166.635 109.922L166.598 109.479L166.556 109.036L166.509 108.593L166.458 108.151L166.403 107.709L166.343 107.268L166.278 106.827L166.209 106.388L166.135 105.948L166.056 105.51L165.974 105.072L165.887 104.635L165.795 104.199L165.699 103.764L165.598 103.33L165.493 102.897L165.384 102.465L165.27 102.034L165.152 101.604L165.03 101.176L164.903 100.748L164.772 100.322L164.636 99.8976L164.497 99.4743L164.353 99.0523L164.205 98.6318L164.052 98.2129L163.896 97.7954L163.735 97.3796L163.57 96.9653L163.401 96.5528L163.228 96.1419L163.051 95.7329L162.87 95.3256L162.685 94.9201L162.495 94.5165L162.302 94.1148L162.105 93.7151L161.904 93.3174L161.699 92.9217L161.49 92.5281L161.277 92.1366L161.061 91.7472L160.84 91.3601L160.616 90.9751L160.388 90.5925L160.157 90.2121L159.922 89.834L159.683 89.4583L159.441 89.085L159.195 88.7142L158.945 88.3458L158.692 87.98L158.435 87.6167L158.176 87.2559L157.912 86.8978L157.645 86.5423L157.375 86.1895L157.102 85.8394L156.825 85.4921L156.545 85.1475L156.262 84.8057L155.976 84.4667L155.687 84.1306L155.394 83.7974L155.099 83.4671L154.8 83.1397L154.499 82.8153L154.194 82.4939L153.887 82.1756L153.577 81.8603L153.264 81.548L152.948 81.2389L152.629 80.9329L152.308 80.6301L151.984 80.3304L151.657 80.0339L151.328 79.7407L150.997 79.4507L150.662 79.164L150.326 78.8806L149.987 78.6005L149.645 78.3237L149.301 78.0502L148.955 77.7802L148.607 77.5135L148.256 77.2502L147.904 76.9904L147.549 76.734L147.192 76.4811L146.833 76.2316L146.472 75.9857L146.109 75.7432L145.744 75.5043L145.378 75.2689L145.009 75.037L144.639 74.8087L144.267 74.584L143.893 74.3629L143.518 74.1454L143.141 73.9315L142.762 73.7212L142.382 73.5146L142.001 73.3115L141.618 73.1122L141.234 72.9165L140.848 72.7244L140.461 72.5361L140.073 72.3514L139.684 72.1704L139.294 71.993L138.902 71.8194L138.509 71.6495L138.116 71.4833L137.721 71.3208L137.326 71.162L136.929 71.0069L136.532 70.8555L136.134 70.7078L135.736 70.5639L135.336 70.4237L134.936 70.2871L134.535 70.1543L134.134 70.0252L133.732 69.8999L133.33 69.7782L132.928 69.6602L132.525 69.5459L132.121 69.4354L131.718 69.3285L131.314 69.2253L130.91 69.1258L130.505 69.0299L130.101 68.9377L129.697 68.8492L129.292 68.7643L128.888 68.6831L128.483 68.6055L128.079 68.5315L127.675 68.4611L127.271 68.3944L126.867 68.3312L126.464 68.2716L126.061 68.2156L125.658 68.1631L125.256 68.1142L124.854 68.0688L124.453 68.0269L124.052 67.9885L123.651 67.9536L123.252 67.9222L122.853 67.8942L122.454 67.8696L122.057 67.8485L121.66 67.8307L121.264 67.8164L120.869 67.8054L120.475 67.7977L120.081 67.7934L119.689 67.7924L119.298 67.7946L118.908 67.8001L118.518 67.8089L118.13 67.8209L117.743 67.8361L117.358 67.8544L116.973 67.8759L116.59 67.9006L116.208 67.9283L115.828 67.9591L115.449 67.993L115.071 68.0299L114.695 68.0698L114.32 68.1127L113.947 68.1586L113.575 68.2073L113.205 68.259L112.836 68.3135L112.469 68.3709L112.104 68.4311L111.741 68.4941L111.379 68.5598L111.019 68.6283L110.661 68.6994L110.305 68.7732L109.95 68.8497L109.598 68.9287L109.247 69.0104L108.898 69.0946L108.552 69.1812L108.207 69.2704L107.865 69.362L107.524 69.4561L107.186 69.5525L106.849 69.6512L106.515 69.7523L106.183 69.8556L105.853 69.9612L105.526 70.069L105.2 70.179L104.877 70.2911L104.556 70.4054L104.238 70.5217L103.921 70.64L103.608 70.7603L103.296 70.8826L102.987 71.0069L102.68 71.133L102.376 71.2609L102.074 71.3907L101.775 71.5223L101.478 71.6556L101.184 71.7906L100.892 71.9272L100.603 72.0655L100.316 72.2054L100.032 72.3469L99.7503 72.4898L99.4714 72.6342L99.195 72.7801L98.9213 72.9274L98.6502 73.076L98.3817 73.2259L98.1159 73.3771L97.8528 73.5296L97.5924 73.6832L97.3346 73.8381L97.0796 73.994L96.8273 74.151L96.5777 74.3091L96.3308 74.4681L96.0867 74.6282L95.8453 74.7891L95.6066 74.9509L95.3708 75.1136L95.1376 75.2771L94.9073 75.4413L94.6797 75.6063L94.4549 75.7719L94.2329 75.9382L94.0136 76.1051L93.7972 76.2725L93.5835 76.4405L93.3726 76.609L93.1646 76.7778L92.9593 76.9471L92.7568 77.1168L92.557 77.2868L92.3601 77.457L92.166 77.6275L91.9746 77.7982L91.786 77.969L91.6002 78.14L91.4172 78.3111L91.2369 78.4822L91.0594 78.6533L90.8847 78.8244L90.7127 78.9954L90.5434 79.1663L90.3769 79.337L90.2132 79.5075L90.0521 79.6778L89.8938 79.8479L89.7382 80.0176L89.5852 80.187L89.435 80.356L89.2875 80.5246L89.1426 80.6927L89.0003 80.8603L88.8607 81.0274L88.7238 81.1939L88.5894 81.3599L88.4577 81.5251L88.3286 81.6897L88.202 81.8536L88.078 82.0167L87.9565 82.179L87.8376 82.3405L87.7212 82.5012L87.6073 82.6609L87.4958 82.8198L87.3869 82.9776L87.2804 83.1345L87.1763 83.2903L87.0746 83.445L86.9753 83.5987L86.8784 83.7512L86.7838 83.9026L86.6916 84.0527L86.6016 84.2016L86.514 84.3493L86.4286 84.4957L86.3455 84.6407L86.2646 84.7844L86.1859 84.9267L86.1093 85.0675L86.035 85.2069L85.9627 85.3449L85.8926 85.4813L85.8245 85.6162L85.7585 85.7495L85.6945 85.8813L85.6325 86.0114L85.5724 86.1399L85.5144 86.2666L85.4582 86.3917L85.404 86.5151L85.3516 86.6367L85.301 86.7565L85.2523 86.8745L85.2053 86.9907L85.1601 87.105L85.1166 87.2174L85.0748 87.3279L85.0347 87.4365L84.9962 87.5432L84.9593 87.6479L84.9239 87.7506L84.8902 87.8512L84.8579 87.9499L84.8271 88.0464L84.7977 88.1409L84.7698 88.2333L84.7432 88.3236L84.718 88.4118L84.6941 88.4978L84.6715 88.5816L84.6501 88.6632L84.6299 88.7426L84.611 88.8198L84.5931 88.8948L84.5764 88.9675L84.5608 89.0379L84.5462 89.1061L84.5326 89.1719L84.52 89.2355L84.5083 89.2967L84.4975 89.3556L84.4876 89.4121L84.4786 89.4663L84.4703 89.5181L84.4628 89.5675L84.456 89.6145L84.4499 89.6591L84.4445 89.7013L84.4396 89.7411L84.4354 89.7785L84.4317 89.8134L84.4285 89.8458L84.4257 89.8759L84.4234 89.9034L84.4215 89.9285L84.42 89.9511L84.4187 89.9713L84.4178 89.989L84.4171 90.0042L84.4166 90.0169L84.4163 90.0271L84.4161 90.0348L84.416 90.0409M84.4152 90.0438L84.416 90.0433M84.4152 90.0438L84.4111 90.0461L84.4054 90.0492L84.3975 90.0535L84.3873 90.0589L84.3749 90.0654L84.3602 90.0729L84.3432 90.0815L84.324 90.091L84.3024 90.1014L84.2785 90.1128L84.2523 90.125L84.2237 90.1381L84.1928 90.152L84.1595 90.1666L84.1238 90.1819L84.0857 90.198L84.0451 90.2147L84.0022 90.2321L83.9568 90.25L83.909 90.2685L83.8588 90.2875L83.806 90.3069L83.7509 90.3269L83.6932 90.3472L83.6331 90.3679L83.5705 90.3889L83.5053 90.4102L83.4377 90.4317L83.3676 90.4535L83.295 90.4755L83.2199 90.4976L83.1422 90.5198L83.0621 90.5421L82.9794 90.5644L82.8942 90.5868L82.8065 90.609L82.7162 90.6312L82.6234 90.6533L82.5281 90.6752L82.4303 90.6969L82.33 90.7184L82.2271 90.7396L82.1218 90.7605L82.0139 90.7811L81.9035 90.8013L81.7906 90.821L81.6751 90.8403L81.5572 90.8591L81.4368 90.8774L81.3139 90.8951L81.1886 90.9122L81.0607 90.9287L80.9304 90.9444L80.7977 90.9595L80.6624 90.9738L80.5248 90.9873L80.3847 90.9999L80.2422 91.0117L80.0973 91.0226L79.9499 91.0326L79.8002 91.0416L79.6482 91.0495L79.4937 91.0565L79.3369 91.0623L79.1778 91.067L79.0163 91.0705L78.8525 91.0729L78.6865 91.074L78.5181 91.0739L78.3475 91.0725L78.1747 91.0697L77.9996 91.0656L77.8223 91.06L77.6428 91.0531L77.4611 91.0446L77.2773 91.0347L77.0913 91.0232L76.9033 91.0102L76.7131 90.9955L76.5208 90.9792L76.3265 90.9613L76.1302 90.9416L75.9318 90.9202L75.7314 90.8971L75.5291 90.8721L75.3248 90.8453L75.1187 90.8167L74.9106 90.7862L74.7006 90.7537L74.4888 90.7193L74.2752 90.683L74.0597 90.6446L73.8425 90.6042L73.6236 90.5617L73.4029 90.5171L73.1806 90.4704L72.9566 90.4215L72.731 90.3705L72.5037 90.3173L72.2749 90.2618L72.0445 90.2041L71.8126 90.144L71.5793 90.0817L71.3444 90.0171L71.1082 89.9501L70.8705 89.8807L70.6315 89.8089L70.3912 89.7346L70.1495 89.6579L69.9066 89.5787L69.6625 89.4971L69.4171 89.4129L69.1706 89.3261L68.923 89.2368L68.6742 89.145L68.4244 89.0504L68.1736 88.9533L67.9218 88.8536L67.669 88.7511L67.4153 88.646L67.1607 88.5382L66.9052 88.4276L66.649 88.3144L66.3919 88.1983L66.1341 88.0795L65.8756 87.9579L65.6165 87.8335L65.3567 87.7063L65.0963 87.5763L64.8354 87.4434L64.5739 87.3077L64.312 87.1691L64.0496 87.0276L63.7869 86.8832L63.5237 86.7359L63.2603 86.5856L62.9966 86.4325L62.7326 86.2764L62.4684 86.1174L62.2041 85.9554L61.9396 85.7904L61.6751 85.6224L61.4105 85.4515L61.1459 85.2776L60.8814 85.1007L60.6169 84.9208L60.3526 84.7378L60.0884 84.5519L59.8244 84.363L59.5607 84.171L59.2973 83.976L59.0342 83.7779L58.7714 83.5769L58.5091 83.3728L58.2472 83.1657L57.9858 82.9555L57.725 82.7423L57.4647 82.5261L57.205 82.3068L56.946 82.0845L56.6877 81.8592L56.4302 81.6308L56.1734 81.3994L55.9175 81.165L55.6624 80.9276L55.4083 80.6871L55.1551 80.4437L54.9029 80.1972L54.6517 79.9478L54.4016 79.6953L54.1527 79.4399L53.9049 79.1815L53.6583 78.9201L53.4129 78.6558L53.1689 78.3885L52.9261 78.1182L52.6848 77.8451L52.4448 77.569L52.2063 77.29L51.9693 77.0081L51.7338 76.7234L51.4999 76.4357L51.2677 76.1452L51.037 75.8519L50.8081 75.5557L50.5809 75.2567L50.3555 74.955L50.1319 74.6504L49.9102 74.3431L49.6903 74.033L49.4724 73.7202L49.2565 73.4047L49.0426 73.0864L48.8307 72.7655L48.621 72.442L48.4133 72.1158L48.2079 71.787L48.0046 71.4556L47.8036 71.1216L47.6049 70.7851L47.4085 70.446L47.2144 70.1045L47.0228 69.7604L46.8335 69.4139L46.6468 69.065L46.4625 68.7136L46.2808 68.3599L46.1016 68.0038L45.9251 67.6454L45.7512 67.2846L45.58 66.9216L45.4115 66.5564L45.2457 66.1889L45.0828 65.8192L44.9226 65.4473L44.7653 65.0734L44.6109 64.6973L44.4594 64.3191L44.3108 63.9389L44.1652 63.5567L44.0226 63.1725L43.8831 62.7863L43.7466 62.3982L43.6132 62.0083L43.483 61.6165L43.3559 61.2228L43.232 60.8274L43.1113 60.4302L42.9939 60.0313L42.8797 59.6308L42.7688 59.2285L42.6613 58.8247L42.5571 58.4193L42.4563 58.0124L42.359 57.6039L42.265 57.194L42.1745 56.7827L42.0875 56.3699L42.004 55.9558L41.924 55.5404L41.8476 55.1238L41.7747 54.7059L41.7055 54.2868L41.6398 53.8665L41.5778 53.4451L41.5195 53.0227L41.4649 52.5992L41.4139 52.1747L41.3667 51.7492L41.3233 51.3229L41.2835 50.8957L41.2476 50.4676L41.2155 50.0388L41.1871 49.6092L41.1627 49.1789L41.142 48.7479L41.1252 48.3164L41.1123 47.8842L41.1033 47.4515L41.0982 47.0184L41.097 46.5848L41.0997 46.1508L41.1064 45.7164L41.1171 45.2817L41.1317 44.8468L41.1503 44.4116L41.1728 43.9763L41.1994 43.5408L41.23 43.1053L41.2646 42.6697L41.3033 42.2341L41.3459 41.7986L41.3926 41.3631L41.4434 40.9278L41.4982 40.4927L41.5571 40.0578L41.62 39.6232L41.687 39.1889L41.7581 38.755L41.8332 38.3215L41.9125 37.8885L41.9958 37.456L42.0832 37.024L42.1747 36.5927L42.2702 36.162L42.3699 35.7319L42.4736 35.3027L42.5814 34.8742L42.6933 34.4466L42.8093 34.0198L42.9294 33.594L43.0535 33.1691L43.1817 32.7453L43.314 32.3226L43.4503 31.9009L43.5907 31.4804L43.7351 31.0612L43.8836 30.6432L44.0361 30.2265L44.1926 29.8111L44.3532 29.3971L44.5178 28.9846L44.6863 28.5736L44.8589 28.1641L45.0355 27.7562L45.216 27.3499L45.4004 26.9453L45.5889 26.5423L45.7812 26.1412L45.9775 25.7419L46.1777 25.3444L46.3817 24.9488L46.5897 24.5551L46.8015 24.1635L47.0171 23.7739L47.2366 23.3863L47.4599 23.0009L47.687 22.6176L47.9179 22.2366L48.1525 21.8577L48.3909 21.4812L48.633 21.1071L48.8788 20.7353L49.1282 20.3659L49.3814 19.999L49.6381 19.6346L49.8985 19.2728L50.1625 18.9135L50.43 18.5569L50.7011 18.203L50.9757 17.8518L51.2538 17.5033L51.5354 17.1577L51.8204 16.8148L52.1088 16.4749L52.4006 16.1379L52.6958 15.8038L52.9944 15.4727L53.2962 15.1447L53.6013 14.8197L53.9097 14.4979L54.2213 14.1792L54.5361 13.8637L54.854 13.5514L55.1751 13.2424L55.4993 12.9366L55.8265 12.6343L56.1568 12.3352L56.4901 12.0396L56.8264 11.7474L57.1656 11.4587L57.5077 11.1735L57.8527 10.8918L58.2005 10.6138L58.5511 10.3393L58.9045 10.0684L59.2606 9.80128L59.6194 9.53782L59.9809 9.27809L60.345 9.02213L60.7116 8.76997L61.0808 8.52163L61.4525 8.27715L61.8267 8.03655L62.2034 7.79987L62.5824 7.56713L62.9637 7.33836L63.3474 7.11359L63.7333 6.89284L64.1215 6.67615L64.5119 6.46352L64.9044 6.255L65.299 6.05061L65.6957 5.85037L66.0945 5.65431L66.4952 5.46244L66.8978 5.27479L67.3024 5.09139L67.7088 4.91226L68.117 4.73741L68.527 4.56688L68.9387 4.40067L69.3521 4.23881L69.7671 4.08132L70.1837 3.92822L70.6019 3.77952L71.0215 3.63525L71.4426 3.49542L71.8652 3.36004L72.2891 3.22914L72.7143 3.10274L73.1408 2.98083L73.5685 2.86345L73.9974 2.7506L74.4275 2.6423L74.8586 2.53856L75.2908 2.4394L75.7239 2.34482L76.1581 2.25484L76.5931 2.16946L77.029 2.0887L77.4657 2.01258L77.9031 1.94108L78.3412 1.87424L78.7801 1.81204L79.2195 1.75451L79.6595 1.70165L80.1 1.65346L80.541 1.60996L80.9824 1.57113L81.4242 1.537L81.8663 1.50756L82.3087 1.48283L82.7514 1.46279L83.1942 1.44745L83.6371 1.43682L84.0801 1.4309L84.5232 1.42969L84.9663 1.43318L85.4092 1.44138L85.8521 1.45429L86.2949 1.4719L86.7374 1.49421L87.1797 1.52122L87.6216 1.55293L88.0632 1.58933L88.5045 1.63042L88.9452 1.6762L89.3855 1.72665L89.8252 1.78177L90.2644 1.84156L90.7029 1.906L91.1407 1.9751L91.5778 2.04884L92.0141 2.12721L92.4495 2.2102L92.8841 2.29781L93.3178 2.39001L93.7505 2.48681L94.1822 2.5882L94.6128 2.69414L95.0423 2.80464L95.4706 2.91969L95.8977 3.03926L96.3236 3.16335L96.7482 3.29193L97.1715 3.42499L97.5933 3.56253L98.0137 3.70451L98.4327 3.85092L98.8501 4.00176L99.266 4.15698L99.6802 4.31659L100.093 4.48056L100.504 4.64886L100.913 4.82149L101.32 4.99841L101.726 5.17961L102.129 5.36507L102.531 5.55476L102.931 5.74866L103.328 5.94675L103.724 6.14901L104.118 6.3554L104.509 6.56591L104.899 6.7805L105.286 6.99916L105.671 7.22186L106.053 7.44857L106.433 7.67926L106.811 7.91392L107.187 8.1525L107.56 8.39497L107.93 8.64132L108.298 8.89152L108.664 9.14552L109.026 9.40331L109.387 9.66485L109.744 9.93011L110.099 10.1991L110.451 10.4717L110.8 10.7479L111.147 11.0277L111.49 11.3111L111.831 11.598L112.169 11.8884L112.504 12.1822L112.835 12.4795L113.164 12.7802L113.49 13.0842L113.813 13.3915L114.132 13.7021L114.449 14.016L114.762 14.333L115.072 14.6533L115.379 14.9766L115.682 15.3031L115.983 15.6326L116.279 15.9651L116.573 16.3006L116.863 16.639L117.15 16.9804L117.433 17.3246L117.713 17.6716L117.99 18.0214L118.263 18.3739L118.532 18.7292L118.798 19.0871L119.06 19.4476L119.319 19.8106L119.574 20.1762L119.825 20.5443L120.073 20.9149L120.317 21.2878L120.557 21.6631L120.793 22.0408L121.026 22.4207L121.255 22.8028L121.481 23.1871L121.702 23.5736L121.92 23.9621L122.133 24.3528L122.343 24.7454L122.55 25.14L122.752 25.5365L122.95 25.9349L123.144 26.3351L123.335 26.7371L123.521 27.1409L123.704 27.5463L123.882 27.9534L124.057 28.3621L124.228 28.7723L124.394 29.1841L124.557 29.5973L124.716 30.0119L124.87 30.428L125.021 30.8453L125.167 31.2639L125.31 31.6838L125.448 32.1048L125.583 32.527L125.713 32.9503L125.839 33.3746L125.961 33.7999L126.079 34.2262L126.193 34.6534L126.303 35.0815L126.409 35.5103L126.511 35.9399L126.609 36.3703L126.702 36.8013L126.792 37.233L126.877 37.6652L126.958 38.098L127.036 38.5312L127.109 38.9649L127.178 39.399L127.243 39.8335L127.304 40.2682L127.361 40.7032L127.414 41.1384L127.462 41.5738L127.507 42.0093L127.548 42.4449L127.585 42.8805L127.617 43.3161L127.646 43.7516L127.671 44.187L127.691 44.6222L127.708 45.0573L127.721 45.4921L127.729 45.9266L127.734 46.3608L127.735 46.7946L127.732 47.228L127.725 47.661L127.714 48.0934L127.699 48.5253L127.68 48.9565L127.658 49.3872L127.632 49.8171L127.601 50.2464L127.567 50.6748L127.53 51.1025L127.488 51.5293L127.443 51.9552L127.394 52.3802L127.341 52.8042L127.285 53.2272L127.225 53.6492L127.161 54.07L127.093 54.4897L127.022 54.9082L126.948 55.3256L126.87 55.7416L126.788 56.1564L126.703 56.5698L126.614 56.9819L126.522 57.3925L126.426 57.8018L126.327 58.2095L126.225 58.6157L126.119 59.0203L126.01 59.4234L125.897 59.8248L125.782 60.2246L125.663 60.6226L125.54 61.019L125.415 61.4135L125.286 61.8063L125.155 62.1972L125.02 62.5863L124.882 62.9734L124.741 63.3587L124.597 63.7419L124.45 64.1232L124.3 64.5024L124.147 64.8795L123.991 65.2546L123.832 65.6276L123.671 65.9984L123.506 66.367L123.339 66.7334L123.169 67.0976L122.997 67.4595L122.822 67.8191L122.644 68.1764L122.464 68.5313L122.281 68.8839L122.095 69.2341L121.907 69.5819L121.717 69.9272L121.524 70.27L121.329 70.6104L121.131 70.9482L120.931 71.2835L120.729 71.6163L120.525 71.9464L120.318 72.274L120.11 72.5989L119.899 72.9212L119.686 73.2408L119.471 73.5577L119.254 73.8719L119.036 74.1834L118.815 74.4921L118.592 74.7981L118.368 75.1014L118.141 75.4018L117.913 75.6994L117.684 75.9942L117.452 76.2862L117.219 76.5753L116.984 76.8615L116.748 77.1449L116.51 77.4254L116.271 77.703L116.031 77.9776L115.789 78.2494L115.545 78.5182L115.301 78.784L115.055 79.0469L114.807 79.3069L114.559 79.5639L114.309 79.8178L114.059 80.0688L113.807 80.3168L113.555 80.5618L113.301 80.8039L113.046 81.0428L112.791 81.2788L112.534 81.5118L112.277 81.7417L112.019 81.9686L111.761 82.1924L111.501 82.4133L111.241 82.6311L110.981 82.8458L110.72 83.0576L110.458 83.2663L110.196 83.4719L109.933 83.6746L109.671 83.8741L109.407 84.0707L109.144 84.2643L108.88 84.4548L108.616 84.6423L108.351 84.8267L108.087 85.0082L107.823 85.1867L107.558 85.3621L107.293 85.5346L107.029 85.7041L106.764 85.8706L106.5 86.0341L106.236 86.1947L105.972 86.3523L105.708 86.507L105.444 86.6587L105.181 86.8075L104.918 86.9534L104.655 87.0964L104.393 87.2365L104.131 87.3737L103.87 87.5081L103.61 87.6396L103.35 87.7683L103.09 87.8941L102.831 88.0171L102.573 88.1374L102.316 88.2548L102.059 88.3695L101.803 88.4815L101.548 88.5907L101.294 88.6972L101.041 88.801L100.788 88.9022L100.537 89.0007L100.287 89.0965L100.037 89.1897L99.789 89.2804L99.5419 89.3684L99.296 89.4539L99.0512 89.5369L98.8077 89.6174L98.5654 89.6953L98.3244 89.7708L98.0847 89.8439L97.8463 89.9145L97.6093 89.9828L97.3737 90.0487L97.1396 90.1122L96.907 90.1734L96.6758 90.2323L96.4462 90.2889L96.2181 90.3433L95.9916 90.3955L95.7668 90.4454L95.5436 90.4932L95.322 90.5389L95.1022 90.5825L94.8841 90.624L94.6678 90.6634L94.4532 90.7008L94.2405 90.7362L94.0295 90.7697L93.8205 90.8012L93.6133 90.8308L93.4081 90.8585L93.2047 90.8844L93.0034 90.9085L92.804 90.9308L92.6066 90.9513L92.4112 90.9702L92.2179 90.9873L92.0266 91.0028L91.8375 91.0167L91.6504 91.029L91.4655 91.0397L91.2827 91.0489L91.1021 91.0566L90.9236 91.0629L90.7474 91.0677L90.5734 91.0712L90.4016 91.0733L90.2321 91.0741L90.0649 91.0736L89.8999 91.0719L89.7373 91.069L89.5769 91.0648L89.4189 91.0596L89.2633 91.0532L89.11 91.0458L88.959 91.0373L88.8105 91.0279L88.6643 91.0175L88.5205 91.0061L88.3792 90.9939L88.2403 90.9808L88.1038 90.967L87.9698 90.9523L87.8382 90.9369L87.7091 90.9208L87.5824 90.904L87.4583 90.8866L87.3366 90.8686L87.2174 90.8501L87.1007 90.831L86.9865 90.8115L86.8748 90.7916L86.7656 90.7712L86.6589 90.7504L86.5548 90.7294L86.4531 90.708L86.354 90.6864L86.2574 90.6646L86.1633 90.6426L86.0718 90.6205L85.9828 90.5983L85.8963 90.576L85.8123 90.5536L85.7308 90.5313L85.6519 90.5091L85.5754 90.4869L85.5015 90.4649L85.4301 90.443L85.3612 90.4213L85.2948 90.3998L85.2309 90.3787L85.1695 90.3578L85.1106 90.3373L85.0541 90.3172L85.0001 90.2975L84.9486 90.2782L84.8995 90.2595L84.8529 90.2412L84.8087 90.2236L84.7669 90.2066L84.7276 90.1901L84.6906 90.1744L84.6561 90.1594L84.6239 90.1451L84.5941 90.1316L84.5667 90.119L84.5416 90.1072L84.5188 90.0962L84.4984 90.0862L84.4803 90.0772L84.4644 90.0691L84.4508 90.0621L84.4395 90.0562L84.4304 90.0513L84.4236 90.0475L84.4189 90.0449L84.416 90.0433M84.416 90.0433L84.418 90.0445L84.422 90.0468L84.4281 90.0505L84.4363 90.0556L84.4465 90.062L84.4589 90.0699L84.4732 90.0792L84.4896 90.09L84.5079 90.1023L84.5282 90.1161L84.5505 90.1315L84.5746 90.1485L84.6007 90.1671L84.6286 90.1873L84.6584 90.2093L84.69 90.2329L84.7234 90.2583L84.7586 90.2855L84.7955 90.3144L84.8341 90.3452L84.8744 90.3778L84.9164 90.4123L84.96 90.4487L85.0052 90.487L85.052 90.5272L85.1004 90.5694L85.1502 90.6136L85.2016 90.6599L85.2545 90.7081L85.3087 90.7585L85.3644 90.8109L85.4214 90.8654L85.4798 90.9221L85.5395 90.9809L85.6005 91.0418L85.6627 91.105L85.7262 91.1704L85.7908 91.238L85.8566 91.3078L85.9234 91.3799L85.9914 91.4543L86.0605 91.5311L86.1305 91.6101L86.2015 91.6915L86.2735 91.7752L86.3464 91.8613L86.4202 91.9498L86.4948 92.0406L86.5702 92.1339L86.6465 92.2297L86.7234 92.3278L86.8011 92.4284L86.8794 92.5315L86.9584 92.6371L87.0379 92.7452L87.118 92.8557L87.1987 92.9688L87.2798 93.0844L87.3614 93.2025L87.4434 93.3232L87.5257 93.4464L87.6084 93.5722L87.6915 93.7005L87.7747 93.8315L87.8582 93.965L87.9419 94.1011L88.0258 94.2397L88.1097 94.381L88.1937 94.5249L88.2778 94.6714L88.3619 94.8205L88.4459 94.9722L88.5298 95.1265L88.6136 95.2835L88.6973 95.443L88.7808 95.6052L88.864 95.77L88.947 95.9374L89.0297 96.1075L89.112 96.2801L89.1939 96.4554L89.2754 96.6333L89.3564 96.8138L89.437 96.9969L89.517 97.1826L89.5964 97.371L89.6752 97.5619L89.7533 97.7554L89.8307 97.9515L89.9074 98.1502L89.9834 98.3514L90.0585 98.5552L90.1327 98.7616L90.2061 98.9705L90.2786 99.182L90.35 99.396L90.4205 99.6125L90.49 99.8315L90.5583 100.053L90.6256 100.277L90.6917 100.504L90.7566 100.733L90.8202 100.964L90.8826 101.198L90.9437 101.434L91.0035 101.673L91.0619 101.914L91.1189 102.157L91.1744 102.403L91.2284 102.651L91.2809 102.902L91.3319 103.155L91.3813 103.41L91.429 103.667L91.4751 103.927L91.5195 104.189L91.5621 104.453L91.603 104.719L91.642 104.988L91.6793 105.258L91.7146 105.531L91.7481 105.806L91.7796 106.083L91.8092 106.362L91.8367 106.643L91.8622 106.926L91.8857 107.212L91.907 107.499L91.9262 107.788L91.9433 108.079L91.9581 108.372L91.9708 108.666L91.9811 108.963L91.9892 109.261L91.995 109.562L91.9984 109.863L91.9995 110.167L91.9981 110.473L91.9943 110.78L91.9881 111.088L91.9793 111.399L91.9681 111.71L91.9543 112.024L91.9379 112.339L91.919 112.655L91.8974 112.973L91.8732 113.293L91.8463 113.613L91.8167 113.935L91.7844 114.259L91.7493 114.583L91.7115 114.909L91.6709 115.237L91.6274 115.565L91.5812 115.894L91.532 116.225L91.48 116.557L91.4251 116.89L91.3673 117.223L91.3065 117.558L91.2428 117.894L91.176 118.23L91.1063 118.568L91.0336 118.906L90.9578 119.245L90.879 119.585L90.7971 119.925L90.7121 120.266L90.624 120.608L90.5328 120.951L90.4384 121.294L90.3409 121.637L90.2403 121.981L90.1365 122.325L90.0294 122.67L89.9192 123.015L89.8058 123.36L89.6891 123.706L89.5692 124.052L89.4461 124.398L89.3197 124.744L89.19 125.091L89.0571 125.437L88.9208 125.783L88.7813 126.13L88.6385 126.476L88.4923 126.822L88.3429 127.168L88.1901 127.514L88.034 127.86L87.8746 128.205L87.7118 128.55L87.5457 128.895L87.3763 129.239L87.2035 129.583L87.0274 129.926L86.8479 130.269L86.6651 130.611L86.4789 130.953L86.2894 131.294L86.0965 131.634L85.9002 131.973L85.7006 132.312L85.4977 132.65L85.2914 132.987L85.0818 133.323L84.8689 133.658L84.6526 133.992L84.433 134.325L84.21 134.657L83.9837 134.987L83.7542 135.317L83.5213 135.645L83.2851 135.972L83.0457 136.298L82.8029 136.622L82.5569 136.945L82.3076 137.266L82.0551 137.586L81.7994 137.905L81.5404 138.221L81.2781 138.537L81.0127 138.85L80.7441 139.162L80.4723 139.472L80.1973 139.78L79.9192 140.087L79.638 140.391L79.3536 140.694L79.0661 140.994L78.7755 141.293L78.4819 141.59L78.1852 141.884L77.8854 142.177L77.5827 142.467L77.2769 142.755L76.9682 143.041L76.6565 143.324L76.3418 143.605L76.0243 143.884L75.7038 144.161L75.3805 144.434L75.0543 144.706L74.7253 144.975L74.3935 145.241L74.0589 145.505L73.7215 145.766L73.3814 146.024L73.0386 146.28L72.6932 146.533L72.345 146.783L71.9943 147.031L71.6409 147.275L71.285 147.517L70.9265 147.755L70.5655 147.991L70.202 148.223L69.836 148.453L69.4676 148.679L69.0969 148.903L68.7237 149.123L68.3482 149.34L67.9704 149.554L67.5904 149.765L67.2081 149.972L66.8236 150.176L66.4369 150.377L66.0481 150.574L65.6572 150.768L65.2642 150.958L64.8692 151.145L64.4721 151.329L64.0731 151.509L63.6722 151.685L63.2694 151.858L62.8647 152.027L62.4582 152.193L62.05 152.355L61.6399 152.513L61.2282 152.667L60.8148 152.818L60.3998 152.965L59.9832 153.108L59.565 153.248L59.1454 153.383L58.7242 153.515L58.3017 153.643L57.8777 153.766L57.4524 153.886L57.0258 154.002L56.5979 154.114L56.1688 154.222L55.7386 154.326L55.3071 154.426L54.8746 154.522L54.4411 154.614L54.0065 154.701L53.571 154.785L53.1345 154.864L52.6972 154.94L52.259 155.011L51.82 155.078L51.3803 155.14L50.9399 155.199L50.4988 155.253L50.0571 155.303L49.6149 155.349L49.1721 155.39L48.7288 155.428L48.2852 155.461L47.8411 155.489L47.3967 155.514L46.952 155.534L46.5071 155.549L46.0619 155.561L45.6167 155.568L45.1713 155.57L44.7258 155.569L44.2803 155.562L43.8349 155.552L43.3896 155.537L42.9443 155.518L42.4993 155.494L42.0545 155.466L41.61 155.434L41.1657 155.397L40.7219 155.356L40.2784 155.31L39.8354 155.26L39.393 155.206L38.9511 155.147L38.5097 155.083L38.0691 155.016L37.6291 154.944L37.1899 154.867L36.7515 154.786L36.3139 154.701L35.8772 154.611L35.4415 154.517L35.0067 154.419L34.573 154.316L34.1403 154.209L33.7088 154.097L33.2785 153.981L32.8493 153.861L32.4215 153.737L31.995 153.608L31.5698 153.474L31.146 153.337L30.7237 153.195L30.3029 153.049L29.8837 152.898L29.466 152.744L29.05 152.585L28.6357 152.421L28.2231 152.254L27.8123 152.082L27.4033 151.907L26.9962 151.727L26.591 151.542L26.1877 151.354L25.7865 151.162L25.3873 150.965L24.9903 150.764L24.5953 150.56L24.2026 150.351L23.8121 150.138L23.4238 149.921L23.0379 149.7L22.6543 149.475L22.2732 149.247L21.8944 149.014L21.5182 148.777L21.1445 148.537L20.7733 148.292L20.4048 148.044L20.039 147.792L19.6758 147.536L19.3153 147.277L18.9577 147.014L18.6028 146.747L18.2509 146.476L17.9018 146.202L17.5556 145.924L17.2124 145.642L16.8723 145.357L16.5352 145.068L16.2011 144.776L15.8702 144.481L15.5425 144.182L15.218 143.879L14.8967 143.573L14.5786 143.264L14.2639 142.951L13.9526 142.636L13.6446 142.317L13.34 141.994L13.0389 141.669L12.7412 141.34L12.4471 141.009L12.1565 140.674L11.8695 140.336L11.5861 139.995L11.3063 139.651L11.0303 139.305L10.7579 138.955L10.4893 138.602L10.2244 138.247L9.96333 137.889L9.70608 137.528L9.45268 137.165L9.20317 136.799L8.95757 136.43L8.7159 136.058L8.47819 135.684L8.24448 135.308L8.01477 134.929L7.78911 134.548L7.56751 134.164L7.35 133.778L7.1366 133.39L6.92734 132.999L6.72223 132.607L6.52131 132.212L6.32459 131.815L6.1321 131.416L5.94384 131.014L5.75985 130.611L5.58015 130.206L5.40474 129.799L5.23366 129.39L5.06692 128.98L4.90453 128.567L4.74653 128.153L4.59291 127.738L4.4437 127.32L4.29891 126.901L4.15856 126.481L4.02266 126.059L3.89123 125.635L3.76427 125.21L3.6418 124.784L3.52384 124.356L3.41039 123.928L3.30148 123.498L3.19709 123.067L3.09726 122.634L3.00198 122.201L2.91126 121.767L2.82512 121.331L2.74355 120.895L2.66658 120.458L2.59419 120.02L2.52641 119.581L2.46324 119.142L2.40467 118.702L2.35072 118.261L2.30139 117.819L2.25668 117.378L2.21659 116.935L2.18113 116.492L2.1503 116.049L2.12409 115.606L2.10253 115.162L2.08558 114.718L2.07326 114.273L2.06557 113.829L2.0625 113.384L2.06406 112.939L2.07023 112.495L2.08102 112.05L2.09641 111.606L2.11642 111.161L2.14103 110.717L2.17023 110.273L2.20403 109.829L2.2424 109.386L2.28534 108.943L2.33285 108.5L2.38493 108.058L2.44154 107.617L2.50269 107.176L2.56838 106.735L2.63858 106.295L2.71328 105.856L2.79248 105.418L2.87616 104.98L2.9643 104.544L3.05691 104.108L3.15395 103.673L3.25542 103.239L3.36129 102.806L3.47156 102.374L3.58621 101.944L3.70523 101.514L3.82858 101.086L3.95626 100.659L4.08825 100.233L4.22452 99.8087L4.36507 99.3856L4.50987 98.964L4.6589 98.5438L4.81213 98.1251L4.96955 97.708L5.13114 97.2925L5.29687 96.8787L5.46672 96.4664L5.64066 96.056L5.81868 95.6473L6.00075 95.2403L6.18684 94.8353L6.37693 94.4321L6.57098 94.0308L6.76899 93.6315L6.97092 93.2342L7.17674 92.839L7.38643 92.4458L7.59995 92.0547L7.81729 91.6658L8.0384 91.2791L8.26326 90.8947L8.49184 90.5125L8.72412 90.1325L8.96005 89.755L9.19962 89.3798L9.44278 89.007L9.68951 88.6367L9.93977 88.2689L10.1935 87.9035L10.4508 87.5408L10.7114 87.1806L10.9755 86.823L11.243 86.4681L11.5137 86.1158L11.7878 85.7663L12.0651 85.4195L12.3457 85.0755L12.6294 84.7343L12.9164 84.3959L13.2064 84.0604L13.4995 83.7278L13.7956 83.3981L14.0948 83.0714L14.3969 82.7476L14.702 82.4269L15.01 82.1092L15.3208 81.7945L15.6344 81.4829L15.9508 81.1744L16.27 80.8691L16.5918 80.5669L16.9163 80.2679L17.2434 79.9722L17.5731 79.6796L17.9053 79.3903L18.2401 79.1043L18.5772 78.8215L18.9168 78.5421L19.2588 78.266L19.603 77.9933L19.9496 77.7239L20.2984 77.458L20.6494 77.1954L21.0026 76.9363L21.3579 76.6807L21.7152 76.4284L22.0746 76.1797L22.436 75.9345L22.7993 75.6928L23.1645 75.4546L23.5316 75.2199L23.9004 74.9888L24.2711 74.7613L24.6434 74.5373L25.0175 74.317L25.3932 74.1002L25.7704 73.8871L26.1492 73.6776L26.5295 73.4717L26.9113 73.2694L27.2944 73.0708L27.6789 72.8759L28.0648 72.6846L28.4519 72.497L28.8403 72.3131L29.2298 72.1329L29.6204 71.9563L30.0122 71.7835L30.405 71.6143L30.7988 71.4489L31.1936 71.2872L31.5893 71.1291L31.9858 70.9748L32.3832 70.8242L32.7813 70.6773L33.1802 70.5342L33.5797 70.3947L33.9799 70.259L34.3807 70.1269L34.7821 69.9986L35.1839 69.874L35.5862 69.7531L35.9889 69.6359L36.392 69.5224L36.7954 69.4126L37.1991 69.3065L37.6031 69.2041L38.0072 69.1053L38.4114 69.0103L38.8158 68.9188L39.2203 68.8311L39.6247 68.747L40.0291 68.6665L40.4335 68.5897L40.8377 68.5165L41.2418 68.4468L41.6457 68.3808L42.0493 68.3184L42.4526 68.2596L42.8556 68.2043L43.2583 68.1526L43.6605 68.1044L44.0623 68.0597L44.4635 68.0186L44.8643 67.9809L45.2644 67.9467L45.664 67.916L46.0628 67.8887L46.461 67.8649L46.8584 67.8445L47.255 67.8274L47.6508 67.8138L48.0458 67.8035L48.4398 67.7965L48.8329 67.7929L49.225 67.7926L49.6161 67.7955L50.0061 67.8017L50.3951 67.8112L50.7829 67.8238L51.1695 67.8397L51.555 67.8587L51.9391 67.8809L52.322 67.9061L52.7036 67.9345L53.0839 67.966L53.4627 68.0005L53.8401 68.0381L54.2161 68.0786L54.5905 68.1221L54.9635 68.1686L55.3349 68.2179L55.7047 68.2702L56.0728 68.3253L56.4394 68.3833L56.8042 68.4441L57.1673 68.5076L57.5286 68.5739L57.8882 68.643L58.2459 68.7147L58.6018 68.789L58.9558 68.8661L59.308 68.9457L59.6582 69.0278L60.0064 69.1125L60.3526 69.1997L60.6969 69.2894L61.039 69.3815L61.3791 69.4761L61.7172 69.573L62.0531 69.6722L62.3868 69.7738L62.7184 69.8776L63.0477 69.9837L63.3749 70.0919L63.6998 70.2024L64.0225 70.3149L64.3428 70.4296L64.6608 70.5463L64.9766 70.6651L65.2899 70.7858L65.6009 70.9085L65.9095 71.0332L66.2156 71.1597L66.5193 71.288L66.8206 71.4182L67.1194 71.5501L67.4157 71.6838L67.7095 71.8191L68.0008 71.9561L68.2896 72.0948L68.5758 72.235L68.8594 72.3767L69.1404 72.52L69.4188 72.6647L69.6946 72.8109L69.9678 72.9584L70.2384 73.1073L70.5063 73.2575L70.7715 73.409L71.034 73.5617L71.2939 73.7156L71.5511 73.8707L71.8056 74.0268L72.0573 74.1841L72.3063 74.3424L72.5526 74.5016L72.7962 74.6619L73.037 74.823L73.2751 74.985L73.5104 75.1478L73.7429 75.3115L73.9727 75.4759L74.1997 75.641L74.4239 75.8068L74.6453 75.9732L74.864 76.1402L75.0799 76.3077L75.2929 76.4758L75.5032 76.6444L75.7107 76.8133L75.9154 76.9827L76.1174 77.1524L76.3165 77.3224L76.5129 77.4928L76.7064 77.6633L76.8972 77.834L77.0852 78.0049L77.2704 78.1759L77.4529 78.347L77.6326 78.5181L77.8095 78.6892L77.9836 78.8603L78.1551 79.0312L78.3237 79.2021L78.4896 79.3728L78.6528 79.5433L78.8133 79.7135L78.9711 79.8835L79.1261 80.0532L79.2785 80.2225L79.4282 80.3914L79.5752 80.5599L79.7195 80.7279L79.8612 80.8954L80.0002 81.0624L80.1366 81.2288L80.2704 81.3946L80.4016 81.5597L80.5302 81.7242L80.6562 81.8879L80.7797 82.0508L80.9006 82.213L81.019 82.3743L81.1349 82.5348L81.2483 82.6943L81.3592 82.853L81.4677 83.0106L81.5737 83.1672L81.6773 83.3228L81.7784 83.4774L81.8772 83.6308L81.9736 83.7831L82.0677 83.9342L82.1595 84.0841L82.2489 84.2327L82.3361 84.3801L82.421 84.5262L82.5037 84.671L82.5841 84.8143L82.6624 84.9563L82.7384 85.0969L82.8124 85.236L82.8842 85.3736L82.9539 85.5097L83.0215 85.6443L83.0871 85.7773L83.1507 85.9087L83.2123 86.0385L83.2719 86.1666L83.3296 86.293L83.3853 86.4177L83.4392 86.5407L83.4912 86.662L83.5414 86.7814L83.5897 86.899L83.6363 87.0148L83.6812 87.1287L83.7243 87.2408L83.7657 87.3509L83.8055 87.4591L83.8437 87.5653L83.8803 87.6696L83.9153 87.7718L83.9487 87.8721L83.9807 87.9703L84.0112 88.0664L84.0403 88.1605L84.0679 88.2524L84.0942 88.3423L84.1191 88.43L84.1428 88.5155L84.1651 88.5989L84.1862 88.68L84.2061 88.759L84.2249 88.8357L84.2425 88.9102L84.2589 88.9825L84.2744 89.0524L84.2887 89.1201L84.3021 89.1855L84.3145 89.2485L84.326 89.3093L84.3366 89.3677L84.3463 89.4237L84.3552 89.4774L84.3633 89.5287L84.3707 89.5776L84.3773 89.6241L84.3833 89.6682L84.3886 89.7099L84.3933 89.7492L84.3974 89.786L84.401 89.8204L84.4041 89.8523L84.4068 89.8818L84.409 89.9089L84.4108 89.9335L84.4123 89.9556L84.4135 89.9752L84.4144 89.9924L84.415 90.0071L84.4155 90.0192L84.4158 90.0289L84.4159 90.0361L84.416 90.0409M84.416 90.0433L84.416 90.0409" stroke="#202223" stroke-width="2.65841"/>
</svg>
