<svg width="135" height="135" viewBox="0 0 135 135" fill="none" xmlns="http://www.w3.org/2000/svg">
<path d="M113.54 37.2998C119.587 46.3496 122.815 56.9891 122.815 67.8732C122.815 75.1001 121.392 82.2562 118.627 88.933C115.861 95.6098 111.808 101.677 106.698 106.787C101.588 111.897 95.521 115.95 88.8442 118.716C82.1673 121.481 75.0112 122.904 67.7844 122.904C56.9003 122.904 46.2607 119.676 37.211 113.629C28.1613 107.582 21.1079 98.9879 16.9427 88.9324C12.7776 78.8769 11.6878 67.8121 13.8112 57.1372C15.9346 46.4624 21.1757 36.6569 28.8719 28.9607C36.568 21.2646 46.3735 16.0234 57.0484 13.9001C67.7232 11.7767 78.788 12.8665 88.8435 17.0316C98.899 21.1967 107.494 28.2501 113.54 37.2998ZM43.8098 51.8508C40.6409 56.5934 38.9494 62.1691 38.9494 67.873L67.7843 96.7118C73.4882 96.7126 79.0641 95.0219 83.8071 91.8536C88.5501 88.6852 92.2471 84.1815 94.4304 78.912C96.6137 73.6425 97.1854 67.8438 96.0731 62.2494C94.9608 56.655 92.2145 51.5161 88.1815 47.4825C84.1485 43.449 79.0099 40.7019 73.4157 39.5889C67.8214 38.4758 62.0227 39.0467 56.7529 41.2293C51.4831 43.4119 46.9789 47.1082 43.8098 51.8508ZM38.9494 67.8732C38.9489 71.6601 39.6943 75.41 41.1432 78.9088C42.592 82.4077 44.7159 85.5869 47.3935 88.2649C50.0712 90.9429 53.2501 93.0672 56.7487 94.5165C60.2474 95.9658 63.9972 96.7118 67.7841 96.7118L38.9494 67.8732Z" stroke="#202223" stroke-width="2.26145"/>
<path d="M1.82812 133.082L45.9264 88.9838M132.992 1.91797L50.8262 84.084" stroke="#202223" stroke-width="2.26145" stroke-linecap="square"/>
</svg>
