<svg width="156" height="145" viewBox="0 0 156 145" fill="none" xmlns="http://www.w3.org/2000/svg">
<path d="M104.484 78.4771L104.462 78.3071L104.416 77.979L104.368 77.6518L104.316 77.3254L104.261 77L104.203 76.6755L104.141 76.3521L104.077 76.0297L104.009 75.7083L103.938 75.3881L103.864 75.069L103.787 74.751L103.706 74.4342L103.623 74.1187L103.537 73.8044L103.447 73.4913L103.355 73.1796L103.259 72.8692L103.161 72.5602L103.059 72.2526L102.955 71.9464L102.847 71.6417L102.737 71.3385L102.624 71.0367L102.507 70.7366L102.388 70.438L102.267 70.1409L102.142 69.8456L102.014 69.5518L101.884 69.2598L101.751 68.9694L101.615 68.6808L101.477 68.394L101.335 68.1089L101.192 67.8257L101.045 67.5443L100.896 67.2647L100.744 66.9871L100.589 66.7113L100.432 66.4375L100.273 66.1657L100.111 65.8958L99.9461 65.628L99.7791 65.3622L99.6095 65.0984L99.4375 64.8367L99.2632 64.5772L99.0864 64.3197L98.9073 64.0644L98.7258 63.8113L98.5421 63.5603L98.356 63.3116L98.1677 63.0651L97.9772 62.8209L97.7845 62.5789L97.5895 62.3392L97.3925 62.1018L97.1932 61.8668L96.9919 61.6341L96.7886 61.4038L96.5831 61.1759L96.3757 60.9504L96.1662 60.7273L95.9548 60.5066L95.7415 60.2885L95.5262 60.0728L95.3091 59.8595L95.09 59.6488L94.8692 59.4407L94.6466 59.235L94.4222 59.0319L94.196 58.8314L93.9682 58.6335L93.7386 58.4382L93.5074 58.2455L93.2746 58.0554L93.0402 57.868L92.8042 57.6832L92.5666 57.5011L92.3276 57.3217L92.0871 57.145L91.8451 56.971L91.6017 56.7997L91.3569 56.6311L91.1107 56.4653L90.8632 56.3022L90.6144 56.1419L90.3644 55.9844L90.113 55.8296L89.8605 55.6776L89.6068 55.5285L89.3519 55.3821L89.0959 55.2385L88.8389 55.0978L88.5807 54.9599L88.3215 54.8249L88.0614 54.6927L87.8002 54.5633L87.5381 54.4368L87.2751 54.3132L87.0113 54.1924L86.7466 54.0745L86.481 53.9595L86.2147 53.8474L85.9476 53.7382L85.6798 53.6318L85.4113 53.5284L85.1421 53.4279L84.8723 53.3302L84.6019 53.2355L84.3309 53.1437L84.0594 53.0548L83.7874 52.9688L83.5149 52.8857L83.2419 52.8056L82.9685 52.7283L82.6947 52.654L82.4206 52.5826L82.1462 52.5141L81.8714 52.4485L81.5964 52.3858L81.3211 52.3261L81.0456 52.2693L80.77 52.2153L80.4942 52.1643L80.2183 52.1162L79.9423 52.071L79.6662 52.0287L79.3902 51.9893L79.1141 51.9528L78.838 51.9191L78.5621 51.8884L78.2862 51.8605L78.0104 51.8355L77.7348 51.8134L77.4593 51.7942L77.1841 51.7778L76.9091 51.7642L76.6344 51.7535L76.36 51.7457L76.0859 51.7407L75.8121 51.7385L75.5388 51.7391L75.2658 51.7425L74.9933 51.7487L74.7213 51.7578L74.4497 51.7696L74.1787 51.7841L73.9082 51.8015L73.6383 51.8216L73.369 51.8444L73.1004 51.87L72.8324 51.8983L72.5651 51.9293L72.2985 51.9631L72.0326 51.9995L71.7676 52.0386L71.5033 52.0804L71.2398 52.1248L70.9772 52.1718L70.7155 52.2215L70.4546 52.2738L70.1947 52.3288L69.9357 52.3863L69.6778 52.4464L69.4208 52.509L69.1648 52.5742L68.9099 52.642L68.6561 52.7122L68.4034 52.785L68.1518 52.8602L67.9013 52.938L67.652 53.0182L67.4039 53.1008L67.1571 53.1858L66.9115 53.2733L66.6671 53.3632L66.424 53.4554L66.1823 53.55L65.9419 53.647L65.7028 53.7463L65.4651 53.8478L65.2288 53.9517L64.994 54.0579L64.7606 54.1663L64.5286 54.2769L64.2982 54.3898L64.0692 54.5048L63.8418 54.622L63.6159 54.7414L63.3916 54.863L63.1688 54.9866L62.9477 55.1124L62.7282 55.2402L62.5104 55.3701L62.2942 55.502L62.0797 55.636L61.8669 55.7719L61.6558 55.9098L61.4465 56.0497L61.2389 56.1915L61.0331 56.3353L60.829 56.4809L60.6268 56.6284L60.4264 56.7778L60.2279 56.9289L60.0312 57.0819L59.8363 57.2367L59.6434 57.3932L59.4523 57.5515L59.2632 57.7114L59.076 57.8731L58.8908 58.0364L58.7075 58.2014L58.5262 58.368L58.3469 58.5362L58.1696 58.706L57.9943 58.8774L57.821 59.0502L57.6498 59.2246L57.4806 59.4004L57.3135 59.5777L57.1485 59.7565L56.9855 59.9366L56.8247 60.1182L56.666 60.301L56.5094 60.4853L56.3549 60.6708L56.2026 60.8576L56.0525 61.0457L55.9045 61.2351L55.7586 61.4256L55.615 61.6173L55.4736 61.8102L55.3343 62.0042L55.1973 62.1994L55.0625 62.3956L54.9299 62.5929L54.7995 62.7912L54.6714 62.9906L54.5455 63.1909L54.4219 63.3922L54.3005 63.5944L54.1814 63.7975L54.0646 64.0016L53.9501 64.2064L53.8378 64.4121L53.7278 64.6187L53.6202 64.826L53.5148 65.034L53.4117 65.2428L53.3109 65.4523L53.2125 65.6625L53.1163 65.8733L53.0225 66.0848L52.931 66.2968L52.8418 66.5095L52.7549 66.7227L52.6704 66.9364L52.5882 67.1506L52.5083 67.3653L52.4307 67.5805L52.3555 67.796L52.2826 68.012L52.212 68.2283L52.1438 68.445L52.0779 68.6621L52.0143 68.8794L51.9531 69.097L51.8942 69.3148L51.8376 69.5329L51.7834 69.7511L51.7314 69.9695L51.6818 70.1881L51.6346 70.4068L51.5896 70.6256L51.5469 70.8444L51.5066 71.0634L51.4686 71.2823L51.4329 71.5012L51.3995 71.7201L51.3683 71.939L51.3395 72.1577L51.313 72.3764L51.2887 72.595L51.2667 72.8134L51.247 73.0316L51.2296 73.2496L51.2144 73.4675L51.2015 73.685L51.1908 73.9023L51.1824 74.1193L51.1762 74.336L51.1723 74.5524L51.1705 74.7684L51.171 74.984L51.1737 75.1992L51.1786 75.414L51.1856 75.6283L51.1949 75.8422L51.2063 76.0555L51.2199 76.2683L51.2356 76.4806L51.2535 76.6923L51.2736 76.9034L51.2957 77.114L51.32 77.3239L51.3463 77.5331L51.3748 77.7417L51.4053 77.9495L51.4379 78.1567L51.4726 78.3631L51.5094 78.5688L51.5481 78.7736L51.5889 78.9777L51.6317 79.181L51.6765 79.3834L51.7233 79.585L51.7721 79.7856L51.8229 79.9854L51.8756 80.1843L51.9302 80.3822L51.9868 80.5792L52.0452 80.7752L52.1056 80.9702L52.1679 81.1642L52.232 81.3571L52.298 81.549L52.3658 81.7399L52.4355 81.9296L52.5069 82.1182L52.5802 82.3058L52.6553 82.4921L52.7321 82.6774L52.8106 82.8614L52.8909 83.0443L52.973 83.2259L53.0567 83.4063L53.1421 83.5855L53.2292 83.7635L53.3179 83.9401L53.4083 84.1155L53.5003 84.2896L53.5939 84.4623L53.6891 84.6338L53.7859 84.8038L53.8843 84.9726L53.9841 85.1399L54.0855 85.3059L54.1884 85.4704L54.2928 85.6335L54.3986 85.7952L54.5059 85.9555L54.6146 86.1143L54.7248 86.2716L54.8363 86.4275L54.9492 86.5818L55.0635 86.7347L55.1791 86.886L55.296 87.0358L55.4142 87.184L55.5338 87.3307L55.6545 87.4759L55.7765 87.6194L55.8998 87.7614L56.0242 87.9018L56.1499 88.0406L56.2767 88.1777L56.4047 88.3133L56.5337 88.4472L56.6639 88.5794L56.7952 88.71L56.9276 88.8389L57.061 88.9662L57.1954 89.0918L57.3309 89.2157L57.4673 89.3379L57.6047 89.4584L57.7431 89.5772L57.8824 89.6943L58.0226 89.8096L58.1636 89.9233L58.3056 90.0352L58.4484 90.1453L58.592 90.2537L58.7365 90.3603L58.8817 90.4652L59.0277 90.5683L59.1745 90.6697L59.3219 90.7693L59.4701 90.8671L59.619 90.9631L59.7685 91.0573L59.9187 91.1498L60.0695 91.2404L60.2209 91.3292L60.3729 91.4163L60.5254 91.5015L60.6785 91.585L60.8321 91.6666L60.9862 91.7464L61.1408 91.8244L61.2959 91.9006L61.4514 91.975L61.6073 92.0475L61.7636 92.1182L61.9203 92.1872L62.0773 92.2543L62.2347 92.3195L62.3924 92.383L62.5504 92.4446L62.7087 92.5045L62.8672 92.5624L63.026 92.6186L63.185 92.673L63.3441 92.7255L63.5035 92.7763L63.663 92.8252L63.8226 92.8723L63.9824 92.9176L64.1423 92.9611L64.3022 93.0028L64.4622 93.0427L64.6222 93.0808L64.7822 93.1171L64.9423 93.1517L65.1023 93.1844L65.2623 93.2153L65.4222 93.2445L65.582 93.2719L65.7417 93.2975L65.9014 93.3214L66.0608 93.3435L66.2202 93.3638L66.3793 93.3824L66.5383 93.3993L66.697 93.4144L66.8555 93.4278L67.0138 93.4394L67.1718 93.4494L67.3295 93.4576L67.4869 93.4641L67.644 93.4689L67.8007 93.472L67.9571 93.4735L68.1131 93.4732L68.2687 93.4713L68.4239 93.4678L68.5787 93.4625L68.733 93.4557L68.8869 93.4472L69.0403 93.437L69.1932 93.4253L69.3456 93.4119L69.4974 93.397L69.6487 93.3804L69.7995 93.3623L69.9496 93.3425L70.0992 93.3213L70.2482 93.2985L70.3965 93.2741L70.5442 93.2482L70.6912 93.2208L70.8376 93.1918L70.9833 93.1614L71.1282 93.1295L71.2725 93.0961L71.416 93.0612L71.5588 93.0249L71.7008 92.9871L71.842 92.9479L71.9825 92.9073L72.1221 92.8653L72.2609 92.8219L72.3989 92.7771L72.5361 92.7309L72.6724 92.6834L72.8078 92.6345L72.9423 92.5843L73.0759 92.5327L73.2087 92.4799L73.3405 92.4258L73.4713 92.3704L73.6012 92.3137L73.7302 92.2557L73.8582 92.1966L73.9852 92.1362L74.1112 92.0746L74.2362 92.0117L74.3602 91.9478L74.4831 91.8826L74.6051 91.8163L74.7259 91.7488L74.8457 91.6802L74.9645 91.6105L75.0821 91.5397L75.1987 91.4679L75.3142 91.3949L75.4285 91.3209L75.5418 91.2459L75.6539 91.1698L75.7649 91.0928L75.8747 91.0147L75.9834 90.9357L76.0909 90.8557L76.1973 90.7747L76.3025 90.6929L76.4064 90.6101L76.5092 90.5264L76.6108 90.4418L76.7112 90.3564L76.8104 90.2701L76.9083 90.183L77.0051 90.0951L77.1006 90.0063L77.1948 89.9168L77.2878 89.8265L77.3796 89.7355L77.47 89.6437L77.5593 89.5511L77.6472 89.4579L77.7339 89.364L77.8193 89.2694L77.9034 89.1742L77.9863 89.0783L78.0678 88.9818L78.1481 88.8847L78.227 88.787L78.3046 88.6887L78.381 88.5899L78.456 88.4905L78.5297 88.3906L78.6021 88.2902L78.6732 88.1893L78.7429 88.0879L78.8114 87.9861L78.8785 87.8838L78.9442 87.7811L79.0087 87.678L79.0718 87.5745L79.1336 87.4706L79.194 87.3664L79.2531 87.2618L79.3109 87.1569L79.3674 87.0517L79.4225 86.9462L79.4763 86.8404L79.5287 86.7343L79.5798 86.628L79.6296 86.5215L79.678 86.4148L79.7251 86.3078L79.7708 86.2007L79.8153 86.0934L79.8584 85.986L79.9001 85.8784L79.9406 85.7708L79.9797 85.663L80.0175 85.5551L80.054 85.4472L80.0891 85.3392L80.123 85.2312L80.1555 85.1232L80.1867 85.0152L80.2166 84.9071L80.2452 84.7991L80.2725 84.6912L80.2985 84.5833L80.3233 84.4755L80.3467 84.3677L80.3688 84.2601L80.3897 84.1526L80.4093 84.0452L80.4276 83.9379L80.4447 83.8309L80.4605 83.724L80.475 83.6173L80.4883 83.5108L80.5003 83.4045L80.5111 83.2985L80.5207 83.1927L80.5291 83.0871L80.5362 82.9819L80.5421 82.877L80.5468 82.7723L80.5503 82.668L80.5526 82.564L80.5537 82.4603L80.5537 82.3571L80.5525 82.2541L80.5501 82.1516L80.5465 82.0495L80.5418 81.9478L80.536 81.8465L80.529 81.7457L80.5209 81.6453L80.5117 81.5454L80.5014 81.4459L80.4899 81.347L80.4774 81.2485L80.4638 81.1506L80.4492 81.0532L80.4334 80.9563L80.4166 80.86L80.3988 80.7642L80.3799 80.669L80.36 80.5744L80.3391 80.4804L80.3172 80.387L80.2942 80.2942L80.2703 80.202L80.2454 80.1105L80.2196 80.0197L80.1927 79.9294L80.165 79.8399L80.1363 79.751L80.1067 79.6629L80.0761 79.5754L80.0447 79.4886L80.0124 79.4026L79.9791 79.3172L79.9451 79.2326L79.9101 79.1488L79.8743 79.0657L79.8377 78.9834L79.8002 78.9018L79.762 78.8211L79.7229 78.7411L104.484 78.4771ZM104.484 78.4771L104.504 78.6361L104.543 78.9659L104.578 79.2964L104.611 79.6277L104.64 79.9597L104.665 80.2924L104.688 80.6257L104.707 80.9596L104.723 81.2941L104.735 81.6291L104.744 81.9646L104.75 82.3006L104.752 82.6371L104.751 82.9739L104.746 83.3111L104.738 83.6486L104.727 83.9865L104.712 84.3246L104.694 84.6629L104.672 85.0014L104.647 85.34L104.619 85.6788L104.587 86.0177L104.552 86.3566L104.513 86.6956L104.471 87.0345L104.425 87.3733L104.376 87.7121L104.323 88.0507L104.267 88.3892L104.207 88.7274L104.144 89.0655L104.078 89.4032L104.008 89.7407L103.935 90.0777L103.858 90.4145L103.777 90.7508L103.693 91.0866L103.606 91.4219L103.515 91.7568L103.421 92.091L103.323 92.4247L103.222 92.7577L103.118 93.0901L103.009 93.4217L102.898 93.7526L102.783 94.0827L102.665 94.412L102.543 94.7404L102.417 95.0679L102.289 95.3945L102.156 95.7202L102.021 96.0448L101.882 96.3684L101.74 96.6909L101.594 97.0123L101.445 97.3326L101.292 97.6517L101.136 97.9695L100.977 98.2862L100.814 98.6015L100.648 98.9155L100.479 99.2281L100.306 99.5393L100.13 99.8491L99.9512 100.157L99.7687 100.464L99.5829 100.769L99.3939 101.073L99.2016 101.375L99.006 101.676L98.8072 101.974L98.6053 102.271L98.4001 102.567L98.1917 102.86L97.9802 103.152L97.7656 103.442L97.5477 103.73L97.3268 104.016L97.1028 104.3L96.8757 104.582L96.6455 104.862L96.4123 105.14L96.176 105.416L95.9367 105.689L95.6944 105.961L95.4492 106.23L95.201 106.497L94.9498 106.762L94.6957 107.025L94.4388 107.285L94.1789 107.543L93.9162 107.798L93.6507 108.052L93.3823 108.302L93.1112 108.55L92.8373 108.796L92.5606 109.039L92.2812 109.28L91.9992 109.518L91.7144 109.753L91.427 109.985L91.137 110.215L90.8443 110.442L90.5491 110.667L90.2514 110.889L89.9511 111.107L89.6483 111.323L89.343 111.536L89.0353 111.747L88.7252 111.954L88.4127 112.158L88.0978 112.359L87.7806 112.558L87.4611 112.753L87.1393 112.945L86.8152 113.134L86.489 113.32L86.1605 113.503L85.8299 113.683L85.4971 113.859L85.1622 114.033L84.8253 114.203L84.4863 114.369L84.1454 114.533L83.8024 114.693L83.4575 114.85L83.1107 115.003L82.762 115.153L82.4115 115.3L82.0591 115.443L81.705 115.583L81.3491 115.719L80.9915 115.852L80.6322 115.981L80.2712 116.107L79.9087 116.229L79.5446 116.347L79.1789 116.462L78.8117 116.574L78.4431 116.681L78.073 116.785L77.7015 116.886L77.3286 116.982L76.9544 117.075L76.5789 117.165L76.2022 117.25L75.8242 117.332L75.445 117.41L75.0647 117.484L74.6833 117.554L74.3009 117.621L73.9173 117.684L73.5328 117.742L73.1474 117.797L72.761 117.848L72.3737 117.896L71.9856 117.939L71.5967 117.978L71.207 118.014L70.8166 118.045L70.4254 118.073L70.0337 118.097L69.6413 118.116L69.2484 118.132L68.855 118.144L68.461 118.151L68.0666 118.155L67.6718 118.155L67.2766 118.15L66.8811 118.142L66.4853 118.129L66.0893 118.113L65.6931 118.092L65.2967 118.068L64.9001 118.039L64.5035 118.006L64.1068 117.969L63.7102 117.928L63.3135 117.883L62.917 117.834L62.5206 117.781L62.1243 117.724L61.7283 117.663L61.3325 117.597L60.937 117.528L60.5418 117.454L60.147 117.376L59.7525 117.295L59.3586 117.209L58.9652 117.119L58.5722 117.025L58.1799 116.926L57.7882 116.824L57.3972 116.718L57.0068 116.607L56.6172 116.493L56.2284 116.374L55.8405 116.251L55.4534 116.125L55.0672 115.994L54.682 115.859L54.2978 115.72L53.9146 115.577L53.5325 115.43L53.1515 115.279L52.7717 115.124L52.3931 114.965L52.0158 114.802L51.6397 114.635L51.265 114.464L50.8917 114.289L50.5197 114.11L50.1493 113.927L49.7803 113.741L49.4129 113.55L49.047 113.355L48.6828 113.157L48.3202 112.954L47.9593 112.748L47.6002 112.538L47.2428 112.324L46.8873 112.106L46.5337 111.884L46.1819 111.659L45.8321 111.429L45.4843 111.196L45.1385 110.96L44.7947 110.719L44.4531 110.475L44.1136 110.227L43.7763 109.975L43.4412 109.72L43.1084 109.461L42.7778 109.199L42.4496 108.933L42.1238 108.663L41.8004 108.39L41.4794 108.113L41.161 107.833L40.845 107.549L40.5316 107.262L40.2209 106.971L39.9127 106.677L39.6073 106.379L39.3045 106.078L39.0045 105.774L38.7073 105.467L38.4129 105.156L38.1213 104.842L37.8327 104.524L37.5469 104.204L37.2641 103.88L36.9844 103.553L36.7076 103.223L36.4339 102.89L36.1633 102.554L35.8959 102.215L35.6316 101.872L35.3705 101.527L35.1126 101.179L34.858 100.828L34.6067 100.474L34.3587 100.117L34.1141 99.7571L33.8729 99.3946L33.6351 99.0293L33.4007 98.6613L33.1698 98.2906L32.9425 97.9172L32.7186 97.5412L32.4984 97.1626L32.2817 96.7814L32.0687 96.3977L31.8594 96.0115L31.6537 95.6229L31.4517 95.2318L31.2535 94.8383L31.0591 94.4425L30.8684 94.0444L30.6816 93.644L30.4986 93.2413L30.3195 92.8365L30.1443 92.4295L29.973 92.0203L29.8056 91.6091L29.6423 91.1958L29.4829 90.7806L29.3275 90.3633L29.1762 89.9441L29.029 89.5231L28.8858 89.1001L28.7468 88.6754L28.6119 88.2489L28.4812 87.8207L28.3546 87.3908L28.2322 86.9592L28.114 86.526L28.0001 86.0913L27.8904 85.655L27.785 85.2173L27.6839 84.7782L27.5871 84.3376L27.4946 83.8957L27.4065 83.4525L27.3227 83.008L27.2433 82.5623L27.1683 82.1155L27.0977 81.6675L27.0315 81.2184L26.9697 80.7682L26.9124 80.3171L26.8596 79.865L26.8113 79.4121L26.7674 78.9582L26.728 78.5035L26.6932 78.0481L26.6629 77.5919L26.6371 77.1351L26.6158 76.6776L26.5992 76.2195L26.587 75.7609L26.5795 75.3018L26.5766 74.8423L26.5782 74.3823L26.5844 73.922L26.5953 73.4614L26.6108 73.0005L26.6308 72.5394L26.6555 72.0781L26.6849 71.6167L26.7189 71.1552L26.7575 70.6937L26.8007 70.2323L26.8487 69.7708L26.9012 69.3096L26.9584 68.8484L27.0203 68.3875L27.0868 67.9269L27.158 67.4665L27.2339 67.0065L27.3144 66.5469L27.3995 66.0878L27.4894 65.6292L27.5838 65.1711L27.683 64.7136L27.7868 64.2567L27.8952 63.8006L28.0083 63.3452L28.126 62.8905L28.2484 62.4367L28.3753 61.9838L28.507 61.5318L28.6432 61.0808L28.7841 60.6309L28.9295 60.182L29.0796 59.7342L29.2342 59.2876L29.3935 58.8422L29.5573 58.3981L29.7257 57.9553L29.8986 57.5139L30.0761 57.0739L30.2582 56.6353L30.4447 56.1983L30.6358 55.7628L30.8314 55.3289L31.0314 54.8966L31.2359 54.4661L31.4449 54.0373L31.6584 53.6103L31.8763 53.1851L32.0985 52.7618L32.3252 52.3404L32.5563 51.921L32.7918 51.5036L33.0316 51.0883L33.2757 50.6752L33.5242 50.2641L33.7769 49.8553L34.034 49.4488L34.2953 49.0445L34.5608 48.6426L34.8306 48.243L35.1045 47.8459L35.3827 47.4513L35.665 47.0592L35.9514 46.6697L36.2419 46.2828L36.5366 45.8985L36.8353 45.5169L37.138 45.1381L37.4447 44.7621L37.7555 44.3889L38.0702 44.0185L38.3888 43.6511L38.7114 43.2867L39.0378 42.9252L39.3681 42.5668L39.7023 42.2114L40.0402 41.8592L40.3819 41.5102L40.7274 41.1643L41.0765 40.8217L41.4294 40.4824L41.7859 40.1465L42.1461 39.8139L42.5098 39.4847L42.8771 39.1589L43.2479 38.8366L43.6222 38.5179L44 38.2027L44.3813 37.8911L44.7659 37.5832L45.1539 37.2789L45.5452 36.9784L45.9398 36.6816L46.3377 36.3886L46.7387 36.0994L47.143 35.814L47.5505 35.5326L47.961 35.2551L48.3746 34.9815L48.7913 34.712L49.211 34.4464L49.6336 34.185L50.0591 33.9276L50.4876 33.6744L50.9189 33.4253L51.353 33.1805L51.7898 32.9398L52.2294 32.7034L52.6717 32.4713L53.1166 32.2436L53.5641 32.0201L54.0142 31.8011L54.4668 31.5865L54.9219 31.3763L55.3794 31.1706L55.8393 30.9693L56.3015 30.7726L56.7661 30.5804L57.2329 30.3929L57.7019 30.2099L58.1731 30.0315L58.6464 29.8578L59.1218 29.6888L59.5992 29.5245L60.0787 29.3649L60.56 29.2101L61.0433 29.06L61.5284 28.9148L62.0153 28.7743L62.504 28.6387L62.9944 28.508L63.4864 28.3821L63.98 28.2612L64.4753 28.1452L64.972 28.0341L65.4702 27.928L65.9698 27.8268L66.4708 27.7307L66.9731 27.6396L67.4767 27.5535L67.9815 27.4725L68.4874 27.3965L68.9945 27.3256L69.5027 27.2598L70.0119 27.1992L70.5221 27.1436L71.0331 27.0932L71.5451 27.0479L72.0578 27.0079L72.5714 26.9729L73.0856 26.9432L73.6005 26.9187L74.1161 26.8994L74.6321 26.8853L75.1487 26.8764L75.6658 26.8728L76.1832 26.8744L76.701 26.8813L77.2191 26.8934L77.7375 26.9108L78.256 26.9334L78.7747 26.9614L79.2934 26.9946L79.8122 27.0332L80.331 27.077L80.8497 27.1261L81.3683 27.1805L81.8867 27.2402L82.4049 27.3052L82.9228 27.3756L83.4404 27.4512L83.9575 27.5321L84.4742 27.6184L84.9905 27.7099L85.5061 27.8068L86.0212 27.9089L86.5356 28.0164L87.0493 28.1291L87.5622 28.2471L88.0743 28.3705L88.5855 28.4991L89.0958 28.633L89.6052 28.7721L90.1134 28.9165L90.6206 29.0662L91.1267 29.2212L91.6316 29.3813L92.1352 29.5468L92.6375 29.7174L93.1384 29.8932L93.638 30.0743L94.1361 30.2606L94.6326 30.452L95.1276 30.6486L95.621 30.8504L96.1127 31.0573L96.6027 31.2693L97.0909 31.4865L97.5773 31.7087L98.0618 31.9361L98.5443 32.1685L99.0249 32.406L99.5034 32.6485L99.9799 32.896L100.454 33.1486L100.926 33.4061L101.396 33.6686L101.864 33.936L102.329 34.2084L102.792 34.4857L103.252 34.7678L103.71 35.0549L104.165 35.3467L104.618 35.6434L105.068 35.9449L105.515 36.2511L105.96 36.5621L106.402 36.8778L106.84 37.1982L107.277 37.5233L107.71 37.853L108.14 38.1873L108.567 38.5262L108.991 38.8697L109.411 39.2177L109.829 39.5702L110.243 39.9272L110.655 40.2887L111.062 40.6545L111.467 41.0247L111.868 41.3993L112.265 41.7782L112.659 42.1614L113.05 42.5488L113.436 42.9405L113.82 43.3363L114.199 43.7363L114.575 44.1405L114.947 44.5486L115.315 44.9609L115.679 45.3771L116.04 45.7973L116.396 46.2215L116.749 46.6495L117.097 47.0814L117.441 47.5172L117.781 47.9567L118.117 48.3999L118.449 48.8469L118.777 49.2975L119.1 49.7517L119.419 50.2095L119.734 50.6708L120.044 51.1357L120.35 51.604L120.651 52.0757L120.948 52.5508L121.241 53.0291L121.528 53.5108L121.811 53.9957L122.09 54.4838L122.364 54.975L122.633 55.4694L122.897 55.9668L123.156 56.4672L123.411 56.9705L123.661 57.4768L123.906 57.9859L124.146 58.4978L124.381 59.0125L124.611 59.53L124.836 60.0501L125.056 60.5728L125.271 61.0981L125.481 61.6259L125.686 62.1562L125.886 62.6889L126.08 63.2239L126.269 63.7613L126.453 64.301L126.632 64.8428L126.805 65.3869L126.974 65.933L127.136 66.4812L127.294 67.0314L127.446 67.5835L127.592 68.1376L127.734 68.6934L127.869 69.2511L128 69.8105L128.124 70.3716L128.244 70.9343L128.357 71.4986L128.466 72.0644L128.568 72.6316L128.665 73.2003L128.757 73.7703L128.842 74.3416L128.923 74.9141L128.997 75.4878L129.066 76.0626L129.129 76.6385L129.186 77.2154L129.238 77.7932L129.272 78.2129M104.484 78.4771L129.272 78.2129M129.272 78.2129L129.284 78.372L129.324 78.9515L129.359 79.5318L129.388 80.1129L129.411 80.6946L129.428 81.2769L129.439 81.8598L129.445 82.4431L129.445 83.0269L129.438 83.611L129.427 84.1954L129.409 84.7801L129.385 85.3649L129.356 85.9499L129.321 86.535L129.28 87.1201L129.233 87.7051L129.18 88.29L129.121 88.8747L129.057 89.4592L128.986 90.0435L128.91 90.6273L128.828 91.2108L128.74 91.7938L128.646 92.3763L128.546 92.9581L128.44 93.5394L128.329 94.1199L128.212 94.6996L128.088 95.2786L127.959 95.8566L127.825 96.4337L127.684 97.0097L127.537 97.5847L127.385 98.1586L127.227 98.7313L127.063 99.3027L126.893 99.8728L126.718 100.442L126.536 101.009L126.349 101.575L126.156 102.139L125.958 102.702L125.753 103.263L125.543 103.822L125.328 104.379L125.106 104.935L124.879 105.489L124.646 106.041L124.408 106.59L124.164 107.138L123.914 107.684L123.659 108.227L123.398 108.768L123.132 109.307L122.86 109.843L122.583 110.377L122.3 110.909L122.011 111.438L121.718 111.964L121.418 112.488L121.114 113.009L120.804 113.527L120.488 114.042L120.168 114.555L119.842 115.064L119.511 115.571L119.174 116.074L118.832 116.575L118.485 117.072L118.133 117.566L117.776 118.057L117.414 118.544L117.046 119.028L116.674 119.509L116.297 119.986L115.914 120.46L115.527 120.93L115.134 121.396L114.737 121.859L114.335 122.318L113.928 122.773L113.517 123.224L113.101 123.671L112.679 124.115L112.254 124.554L111.823 124.989L111.388 125.421L110.949 125.848L110.505 126.271L110.056 126.689L109.603 127.104L109.146 127.514L108.684 127.919L108.218 128.321L107.748 128.717L107.274 129.109L106.795 129.497L106.312 129.88L105.825 130.258L105.334 130.632L104.839 131.001L104.34 131.365L103.837 131.724L103.331 132.078L102.82 132.428L102.306 132.772L101.787 133.111L101.266 133.446L100.74 133.775L100.211 134.099L99.6786 134.418L99.1425 134.732L98.603 135.04L98.0602 135.344L97.5139 135.642L96.9644 135.934L96.4117 136.221L95.8558 136.503L95.2967 136.779L94.7346 137.05L94.1694 137.315L93.6013 137.575L93.0303 137.829L92.4564 138.077L91.8796 138.32L91.3002 138.557L90.718 138.788L90.1332 139.014L89.5458 139.233L88.9559 139.447L88.3635 139.655L87.7687 139.858L87.1716 140.054L86.5721 140.244L85.9704 140.429L85.3665 140.607L84.7605 140.779L84.1524 140.946L83.5424 141.106L82.9303 141.26L82.3164 141.408L81.7007 141.55L81.0832 141.686L80.464 141.815L79.8431 141.939L79.2207 142.056L78.5967 142.167L77.9713 142.271L77.3445 142.37L76.7163 142.462L76.0869 142.548L75.4562 142.627L74.8244 142.7L74.1915 142.767L73.5576 142.827L72.9228 142.881L72.287 142.929L71.6504 142.97L71.013 143.005L70.3749 143.033L69.7362 143.055L69.0969 143.071L68.4571 143.08L67.8168 143.082L67.1761 143.078L66.5351 143.068L65.8939 143.051L65.2525 143.027L64.6109 142.997L63.9693 142.96L63.3277 142.917L62.6861 142.868L62.0447 142.812L61.4035 142.749L60.7625 142.68L60.1219 142.604L59.4817 142.522L58.8419 142.433L58.2027 142.338L57.564 142.236L56.926 142.128L56.2888 142.013L55.6523 141.892L55.0167 141.764L54.3819 141.629L53.7482 141.489L53.1156 141.341L52.484 141.187L51.8536 141.027L51.2245 140.86L50.5967 140.687L49.9702 140.507L49.3452 140.321L48.7217 140.128L48.0998 139.929L47.4795 139.724L46.861 139.512L46.2441 139.294L45.6292 139.069L45.0161 138.838L44.405 138.601L43.7959 138.357L43.1889 138.107L42.584 137.851L41.9814 137.588L41.3811 137.32L40.7831 137.045L40.1875 136.764L39.5944 136.476L39.0038 136.183L38.4158 135.883L37.8305 135.577L37.2479 135.266L36.6681 134.948L36.0911 134.624L35.5171 134.294L34.946 133.958L34.3779 133.616L33.813 133.268L33.2512 132.914L32.6926 132.554L32.1373 132.189L31.5854 131.818L31.0368 131.44L30.4917 131.057L29.9501 130.669L29.4121 130.274L28.8777 129.875L28.347 129.469L27.8201 129.058L27.297 128.641L26.7777 128.219L26.2624 127.791L25.751 127.358L25.2437 126.919L24.7405 126.475L24.2414 126.026L23.7466 125.571L23.256 125.111L22.7697 124.646L22.2877 124.176L21.8102 123.7L21.3372 123.22L20.8687 122.734L20.4048 122.244L19.9455 121.748L19.491 121.248L19.0411 120.742L18.5961 120.232L18.1558 119.717L17.7205 119.198L17.2901 118.673L16.8647 118.144L16.4444 117.611L16.0291 117.073L15.619 116.53L15.214 115.983L14.8143 115.432L14.4199 114.876L14.0308 114.316L13.647 113.752L13.2687 113.183L12.8958 112.611L12.5284 112.034L12.1666 111.453L11.8104 110.869L11.4597 110.28L11.1148 109.688L10.7756 109.091L10.4421 108.491L10.1145 107.888L9.79265 107.28L9.4767 106.669L9.16667 106.055L8.86259 105.437L8.5645 104.816L8.27244 104.191L7.98644 103.563L7.70654 102.932L7.43278 102.298L7.16519 101.66L6.90381 101.02L6.64866 100.376L6.39978 99.7301L6.15721 99.0809L5.92097 98.4289L5.6911 97.7741L5.46763 97.1167L5.25059 96.4567L5.04 95.7941L4.8359 95.1291L4.63831 94.4616L4.44726 93.7919L4.26278 93.1198L4.08489 92.4455L3.91362 91.769L3.749 91.0905L3.59104 90.41L3.43978 89.7275L3.29523 89.0431L3.15742 88.3569L3.02637 87.669L2.9021 86.9793L2.78462 86.2881L2.67397 85.5953L2.57015 84.901L2.4732 84.2053L2.38311 83.5083L2.29992 82.81L2.22363 82.1106L2.15427 81.4099L2.09185 80.7082L2.03637 80.0056L1.98786 79.302L1.94633 78.5975L1.91179 77.8923L1.88426 77.1864L1.86373 76.4798L1.85022 75.7726L1.84375 75.065L1.84432 74.3569L1.85193 73.6485L1.8666 72.9397L1.88833 72.2308L1.91712 71.5217L1.95299 70.8126L1.99593 70.1035L2.04596 69.3944L2.10306 68.6855L2.16725 67.9768L2.23853 67.2684L2.31689 66.5603L2.40234 65.8527L2.49487 65.1456L2.59449 64.439L2.70119 63.7332L2.81497 63.028L2.93583 62.3236L3.06375 61.6201L3.19874 60.9176L3.34079 60.216L3.4899 59.5156L3.64605 58.8163L3.80924 58.1182L3.97946 57.4214L4.15669 56.726L4.34094 56.032L4.53219 55.3396L4.73042 54.6487L4.93563 53.9595L5.1478 53.2721L5.36692 52.5864L5.59297 51.9026L5.82594 51.2207L6.06581 50.5409L6.31256 49.8632L6.56619 49.1876L6.82666 48.5142L7.09396 47.8432L7.36808 47.1745L7.64899 46.5083L7.93666 45.8445L8.23109 45.1834L8.53224 44.5249L8.84009 43.8691L9.15462 43.2161L9.47581 42.566L9.80362 41.9187L10.138 41.2745L10.479 40.6334L10.8266 39.9954L11.1806 39.3606L11.5412 38.729L11.9082 38.1008L12.2817 37.476L12.6615 36.8547L13.0477 36.2369L13.4403 35.6227L13.8392 35.0122L14.2443 34.4054L14.6557 33.8024L15.0733 33.2033L15.497 32.6081L15.9269 32.0169L16.3629 31.4298L16.8049 30.8468L17.2529 30.2679L17.707 29.6934L18.1669 29.1231L18.6328 28.5572L19.1045 27.9958L19.5821 27.4388L20.0654 26.8864L20.5544 26.3387L21.0492 25.7956L21.5495 25.2572L22.0555 24.7237L22.5671 24.195L23.0841 23.6712L23.6066 23.1525L24.1346 22.6387L24.6679 22.13L25.2065 21.6265L25.7504 21.1282L26.2995 20.6352L26.8538 20.1474L27.4132 19.6651L27.9776 19.1881L28.5471 18.7167L29.1216 18.2508L29.701 17.7905L30.2852 17.3358L30.8743 16.8868L31.4681 16.4435L32.0665 16.0061L32.6697 15.5744L33.2774 15.1487L33.8896 14.7289L34.5064 14.3152L35.1275 13.9074L35.753 13.5058L36.3828 13.1103L37.0168 12.7209L37.655 12.3378L38.2973 11.961L38.9437 11.5905L39.5941 11.2263L40.2484 10.8686L40.9065 10.5173L41.5685 10.1725L42.2343 9.83419L42.9037 9.5025L43.5767 9.17741L44.2533 8.85898L44.9334 8.54725L45.6169 8.24225L46.3038 7.94402L46.994 7.65259L47.6874 7.36801L48.3839 7.09031L49.0836 6.81953L49.7863 6.5557L50.4919 6.29885L51.2004 6.04901L51.9118 5.80623L52.6259 5.57053L53.3427 5.34195L54.0621 5.1205L54.784 4.90623L55.5084 4.69917L56.2352 4.49933L56.9644 4.30676L57.6958 4.12147L58.4294 3.94349L59.1651 3.77286L59.9029 3.60958L60.6426 3.45369L61.3842 3.30522L62.1277 3.16417L62.8729 3.03058L63.6198 2.90447L64.3683 2.78586L65.1183 2.67476L65.8698 2.5712L66.6227 2.47519L67.3769 2.38676L68.1323 2.30591L68.8888 2.23267L69.6465 2.16705L70.4051 2.10906L71.1647 2.05872L71.9252 2.01604L72.6864 1.98104L73.4483 1.95372L74.2109 1.93409L74.974 1.92217L75.7376 1.91797L76.5016 1.92149L77.2659 1.93274L78.0304 1.95172L78.7951 1.97845L79.5599 2.01293L80.3247 2.05517L81.0895 2.10515L81.8541 2.1629L82.6185 2.22841L83.3825 2.30169L84.1463 2.38273L84.9095 2.47153L85.6722 2.56809L86.4344 2.67242L87.1958 2.7845L87.9565 2.90434L88.7163 3.03192L89.4752 3.16726L90.2331 3.31033L90.99 3.46114L91.7457 3.61967L92.5001 3.78592L93.2533 3.95988L94.005 4.14153L94.7554 4.33088L95.5041 4.5279L96.2513 4.73259L96.9967 4.94493L97.7404 5.16491L98.4823 5.39251L99.2222 5.62772L99.9601 5.87052L100.696 6.1209L101.43 6.37884L102.161 6.64432L102.89 6.91732L103.617 7.19781L104.341 7.48579L105.063 7.78123L105.782 8.0841L106.499 8.39438L107.212 8.71205L107.923 9.03709L108.631 9.36947L109.336 9.70916L110.038 10.0561L110.737 10.4104L111.433 10.7718L112.125 11.1405L112.814 11.5163L113.499 11.8993L114.182 12.2894L114.86 12.6865L115.535 13.0907L116.206 13.5019L116.873 13.9201L117.537 14.3452L118.196 14.7772L118.852 15.2161L119.503 15.6618L120.151 16.1143L120.794 16.5736L121.433 17.0396L122.067 17.5122L122.697 17.9915L123.323 18.4773L123.944 18.9697L124.56 19.4686L125.172 19.974L125.779 20.4858L126.381 21.0039L126.978 21.5284L127.571 22.0592L128.158 22.5961L128.74 23.1393L129.317 23.6886L129.889 24.2439L130.456 24.8053L131.017 25.3727L131.573 25.946L132.124 26.5252L132.668 27.1103L133.208 27.701L133.742 28.2976L134.27 28.8997L134.792 29.5075L135.308 30.1208L135.819 30.7397L136.324 31.3639L136.822 31.9936L137.315 32.6285L137.801 33.2688L138.282 33.9142L138.756 34.5648L139.224 35.2205L139.686 35.8811L140.141 36.5468L140.59 37.2173L141.032 37.8927L141.468 38.5729L141.897 39.2577L142.32 39.9472L142.736 40.6413L143.145 41.3399L143.547 42.0429L143.943 42.7504L144.332 43.4621L144.714 44.1781L145.089 44.8982L145.457 45.6225L145.818 46.3508L146.171 47.0831L146.518 47.8192L146.858 48.5592L147.19 49.303L147.515 50.0504L147.833 50.8015L148.143 51.5561L148.446 52.3141L148.742 53.0756L149.03 53.8404L149.311 54.6084L149.584 55.3796L149.85 56.1539L150.108 56.9312L150.359 57.7115L150.601 58.4947L150.837 59.2806L151.064 60.0693L151.284 60.8606L151.496 61.6544L151.7 62.4508L151.896 63.2495L152.084 64.0506L152.265 64.854L152.438 65.6595L152.602 66.4671L152.759 67.2768L152.908 68.0883L153.049 68.9017L153.181 69.7169L153.306 70.5338L153.423 71.3523L153.531 72.1723L153.632 72.9938L153.724 73.8167L153.808 74.6408L153.884 75.4661L153.952 76.2926L154.011 77.1201L154.063 77.9486L129.272 78.2129Z" stroke="#202223" stroke-width="2.55116"/>
</svg>
