<svg width="181" height="115" viewBox="0 0 181 115" fill="none" xmlns="http://www.w3.org/2000/svg">
<path d="M97.577 21.1399C105.735 30.1227 110.936 41.8893 111.551 54.957C112.955 84.8106 89.8926 110.15 60.0391 111.555C30.1855 112.959 4.84584 89.8966 3.4414 60.043C2.03696 30.1894 25.0995 4.84976 54.9531 3.44532C68.358 2.81469 80.8528 7.11712 90.6793 14.7523" stroke="#202223" stroke-width="2.45975" stroke-linecap="square"/>
<path d="M91.5235 99.5827C100.819 107.109 112.658 111.617 125.55 111.617C155.437 111.617 179.664 87.3888 179.664 57.5022C179.664 27.6156 155.437 3.3877 125.55 3.3877C95.6634 3.3877 71.4355 27.6156 71.4355 57.5022C71.4355 71.1649 76.4989 83.6451 84.8516 93.1685" stroke="#202223" stroke-width="2.45975" stroke-linecap="square"/>
</svg>
