<svg width="131" height="131" viewBox="0 0 131 131" fill="none" xmlns="http://www.w3.org/2000/svg">
<path d="M129.693 65.5C129.693 71.4251 128.887 77.1603 127.381 82.6028C125.885 88.0038 123.699 93.1181 120.922 97.8444C117.664 103.39 113.593 108.402 108.873 112.716C97.501 123.109 82.365 129.447 65.7461 129.447C59.2788 129.447 53.0377 128.487 47.1564 126.703C37.9203 123.902 29.5673 119.066 22.6194 112.716C17.8993 108.402 13.8285 103.39 10.5702 97.8444C7.79353 93.1181 5.60703 88.0038 4.11163 82.6028C2.60475 77.1603 1.79921 71.4251 1.79921 65.5C1.79921 59.5749 2.60475 53.8397 4.11163 48.3972C5.60703 42.9962 7.79353 37.8819 10.5702 33.1556C13.8285 27.6096 17.8993 22.5978 22.6194 18.2841C33.9912 7.89125 49.1271 1.55312 65.7461 1.55312C82.365 1.55312 97.501 7.89125 108.873 18.2841C113.593 22.5978 117.664 27.6096 120.922 33.1556C123.699 37.8819 125.885 42.9962 127.381 48.3972C128.887 53.8397 129.693 59.5749 129.693 65.5Z" stroke="black" stroke-width="2.2703"/>
</svg>
