<svg width="205" height="205" viewBox="0 0 205 205" fill="none" xmlns="http://www.w3.org/2000/svg">
<circle cx="108.487" cy="96.5168" r="68.6077" stroke="#202223" stroke-width="2.5"/>
<circle cx="108.487" cy="96.5163" r="16.5808" stroke="#202223" stroke-width="3"/>
<path d="M14.3984 87.4729C18.9494 39.5155 59.3361 2 108.485 2C128.668 2 147.374 8.32659 162.727 19.1049M14.3984 105.554C18.9494 153.511 59.3361 191.027 108.485 191.027C110.417 191.027 112.335 190.969 114.238 190.854M176.777 31.1758C193.02 48.1486 202.998 71.1657 202.998 96.5133C202.998 140.922 172.37 178.177 131.086 188.307" stroke="#202223" stroke-width="2.5"/>
<circle cx="13.9648" cy="96.5077" r="8.37527" transform="rotate(45 13.9648 96.5077)" stroke="#202223" stroke-width="3"/>
<circle cx="169.297" cy="25.0058" r="8.37527" transform="rotate(45 169.297 25.0058)" stroke="#202223" stroke-width="3"/>
<circle cx="122.451" cy="190.199" r="8.37527" transform="rotate(45 122.451 190.199)" stroke="#202223" stroke-width="3"/>
</svg>
