<svg width="90" height="180" viewBox="0 0 90 180" fill="none" xmlns="http://www.w3.org/2000/svg">
<path d="M88.499 178.485C40.3142 177.685 1.5 138.375 1.5 89.999C1.5 41.6233 40.3142 2.31323 88.499 1.51246V178.485Z" stroke="#202223" stroke-width="3"/>
<path d="M90 178.277C54.5416 178.277 25.7969 138.753 25.7969 89.998C25.7969 41.2427 54.5416 1.71875 90 1.71875" stroke="#202223" stroke-width="3"/>
<path d="M90 178.277C71.0044 178.277 55.6055 138.753 55.6055 89.998C55.6055 41.2427 71.0044 1.71875 90 1.71875" stroke="#202223" stroke-width="3"/>
<path d="M1.14453 90.0078H88.5639" stroke="#202223" stroke-width="3"/>
<path d="M6.30273 59.0469L88.2763 59.0469" stroke="#202223" stroke-width="3"/>
<path d="M6.30273 120.953L88.2763 120.953" stroke="#202223" stroke-width="3"/>
<path d="M25.793 151.914L88.2763 151.914" stroke="#202223" stroke-width="3"/>
<path d="M25.793 28.0938L89.9961 28.0938" stroke="#202223" stroke-width="3"/>
</svg>
