<svg width="183" height="105" viewBox="0 0 183 105" fill="none" xmlns="http://www.w3.org/2000/svg">
<g clip-path="url(#clip0_4788_1619)">
<path d="M52.1931 103.257C80.395 103.257 103.257 80.395 103.257 52.1931C103.257 23.9911 80.395 1.12891 52.1931 1.12891C23.9911 1.12891 1.12891 23.9911 1.12891 52.1931C1.12891 80.395 23.9911 103.257 52.1931 103.257Z" stroke="#202223" stroke-width="2.77289" stroke-linecap="round" stroke-linejoin="round"/>
</g>
<g clip-path="url(#clip1_4788_1619)">
<path d="M68.447 103.257C96.6489 103.257 119.511 80.395 119.511 52.1931C119.511 23.9911 96.6489 1.12891 68.447 1.12891C40.245 1.12891 17.3828 23.9911 17.3828 52.1931C17.3828 80.395 40.245 103.257 68.447 103.257Z" stroke="#202223" stroke-width="2.77289" stroke-linecap="round" stroke-linejoin="round"/>
</g>
<g clip-path="url(#clip2_4788_1619)">
<path d="M87.486 103.257C115.688 103.257 138.55 80.395 138.55 52.1931C138.55 23.9911 115.688 1.12891 87.486 1.12891C59.2841 1.12891 36.4219 23.9911 36.4219 52.1931C36.4219 80.395 59.2841 103.257 87.486 103.257Z" stroke="#202223" stroke-width="2.77289" stroke-linecap="round" stroke-linejoin="round"/>
</g>
<g clip-path="url(#clip3_4788_1619)">
<path d="M109.158 103.257C137.36 103.257 160.222 80.395 160.222 52.1931C160.222 23.9911 137.36 1.12891 109.158 1.12891C80.956 1.12891 58.0938 23.9911 58.0938 52.1931C58.0938 80.395 80.956 103.257 109.158 103.257Z" stroke="#202223" stroke-width="2.77289" stroke-linecap="round" stroke-linejoin="round"/>
</g>
<g clip-path="url(#clip4_4788_1619)">
<path d="M130.832 103.257C159.034 103.257 181.896 80.395 181.896 52.1931C181.896 23.9911 159.034 1.12891 130.832 1.12891C102.63 1.12891 79.7676 23.9911 79.7676 52.1931C79.7676 80.395 102.63 103.257 130.832 103.257Z" stroke="#202223" stroke-width="2.77289" stroke-linecap="round" stroke-linejoin="round"/>
</g>
<defs>
<clipPath id="clip0_4788_1619">
<rect width="104.388" height="104.388" fill="white"/>
</clipPath>
<clipPath id="clip1_4788_1619">
<rect width="104.388" height="104.388" fill="white" transform="translate(16.2793)"/>
</clipPath>
<clipPath id="clip2_4788_1619">
<rect width="104.388" height="104.388" fill="white" transform="translate(35.2422)"/>
</clipPath>
<clipPath id="clip3_4788_1619">
<rect width="104.388" height="104.388" fill="white" transform="translate(56.9395)"/>
</clipPath>
<clipPath id="clip4_4788_1619">
<rect width="104.388" height="104.388" fill="white" transform="translate(78.6133)"/>
</clipPath>
</defs>
</svg>
