<svg width="205" height="189" viewBox="0 0 205 189" fill="none" xmlns="http://www.w3.org/2000/svg">
<mask id="path-1-inside-1_3705_1424" fill="white">
<path fill-rule="evenodd" clip-rule="evenodd" d="M144.878 105.95C144.99 95.3522 142.351 84.5871 136.668 74.744C130.985 64.9007 122.981 57.2322 113.747 52.0307C116.713 47.2534 120.866 43.1175 126.076 40.1094C142.955 30.3643 164.538 36.1475 174.283 53.0265C184.028 69.9055 178.245 91.4886 161.366 101.234C156.156 104.242 150.498 105.77 144.878 105.95ZM144.878 105.95C144.656 126.882 133.699 147.16 114.256 158.385C84.9706 175.294 47.523 165.26 30.6149 135.974C13.7068 106.688 23.7408 69.2405 53.0266 52.3324C72.469 41.1073 95.5086 41.7568 113.747 52.0307C107.106 62.7305 106.422 76.6477 113.159 88.3166C119.896 99.9857 132.291 106.352 144.878 105.95Z"/>
</mask>
<path d="M134.602 75.9369C140.065 85.3998 142.6 95.7425 142.492 105.924L147.264 105.975C147.38 94.9619 144.636 83.7744 138.734 73.5512L134.602 75.9369ZM112.577 54.1093C121.449 59.1069 129.138 66.4737 134.602 75.9369L138.734 73.5512C132.832 63.3277 124.514 55.3576 114.918 49.9521L112.577 54.1093ZM115.774 53.2889C118.538 48.8372 122.407 44.9823 127.269 42.1755L124.883 38.0433C119.324 41.2526 114.888 45.6695 111.72 50.7726L115.774 53.2889ZM127.269 42.1755C143.006 33.0892 163.13 38.4814 172.217 54.2194L176.349 51.8336C165.945 33.8136 142.903 27.6395 124.883 38.0433L127.269 42.1755ZM172.217 54.2194C181.303 69.9573 175.911 90.0813 160.173 99.1676L162.559 103.3C180.579 92.8958 186.753 69.8537 176.349 51.8336L172.217 54.2194ZM160.173 99.1676C155.312 101.974 150.039 103.398 144.802 103.565L144.954 108.334C150.957 108.142 157 106.509 162.559 103.3L160.173 99.1676ZM142.492 105.924C142.279 126.049 131.746 145.533 113.064 156.319L115.449 160.452C135.652 148.788 147.033 127.716 147.264 105.975L142.492 105.924ZM113.064 156.319C84.9188 172.569 48.9303 162.926 32.681 134.781L28.5488 137.167C46.1158 167.594 85.0224 178.019 115.449 160.452L113.064 156.319ZM32.681 134.781C16.4316 106.636 26.0747 70.6478 54.2194 54.3984L51.8337 50.2663C21.4069 67.8332 10.9819 106.74 28.5488 137.167L32.681 134.781ZM54.2194 54.3984C72.9018 43.6122 95.0421 44.2322 112.577 54.1093L114.918 49.9521C95.9752 39.2815 72.0362 38.6024 51.8337 50.2663L54.2194 54.3984ZM115.225 87.1237C108.945 76.2465 109.578 63.2712 115.774 53.2889L111.72 50.7726C104.634 62.1898 103.898 77.0488 111.093 89.5094L115.225 87.1237ZM144.802 103.565C133.059 103.94 121.505 98.0011 115.225 87.1237L111.093 89.5094C118.287 101.97 131.523 108.763 144.954 108.334L144.802 103.565Z" fill="#202223" mask="url(#path-1-inside-1_3705_1424)"/>
</svg>
