<svg width="177" height="185" viewBox="0 0 177 185" fill="none" xmlns="http://www.w3.org/2000/svg">
<path d="M153.743 95.7031L153.742 96.2758L153.739 96.8486L153.734 97.4213L153.727 97.994L153.717 98.5665L153.706 99.139L153.693 99.7112L153.678 100.283L153.661 100.855L153.641 101.427L153.62 101.998L153.597 102.569L153.572 103.14L153.544 103.711L153.515 104.281L153.484 104.851L153.45 105.42L153.415 105.989L153.377 106.558L153.338 107.126L153.296 107.693L153.253 108.261L153.207 108.827L153.16 109.393L153.11 109.958L153.059 110.523L153.005 111.087L152.95 111.651L152.892 112.213L152.833 112.775L152.771 113.336L152.707 113.897L152.642 114.457L152.574 115.016L152.504 115.574L152.433 116.131L152.359 116.687L152.284 117.242L152.206 117.797L152.126 118.35L152.045 118.903L151.961 119.454L151.875 120.005L151.788 120.554L151.698 121.103L151.607 121.65L151.513 122.196L151.417 122.741L151.32 123.285L151.22 123.827L151.119 124.369L151.015 124.909L150.91 125.448L150.802 125.985L150.693 126.521L150.581 127.056L150.468 127.59L150.353 128.122L150.235 128.653L150.116 129.182L149.995 129.71L149.872 130.236L149.746 130.761L149.619 131.285L149.49 131.807L149.359 132.327L149.226 132.846L149.091 133.363L148.954 133.878L148.816 134.392L148.675 134.904L148.532 135.415L148.387 135.923L148.241 136.43L148.092 136.936L147.942 137.439L147.79 137.941L147.635 138.441L147.479 138.939L147.321 139.435L147.161 139.929L146.999 140.421L146.835 140.912L146.669 141.4L146.502 141.886L146.332 142.371L146.161 142.853L145.987 143.334L145.812 143.812L145.635 144.288L145.456 144.763L145.275 145.235L145.093 145.705L144.908 146.172L144.721 146.638L144.533 147.101L144.343 147.563L144.151 148.022L143.957 148.478L143.761 148.933L143.563 149.385L143.364 149.835L143.163 150.282L142.96 150.727L142.755 151.17L142.548 151.611L142.339 152.049L142.129 152.484L141.916 152.917L141.702 153.348L141.486 153.776L141.269 154.202L141.049 154.625L140.828 155.046L140.605 155.464L140.38 155.88L140.153 156.293L139.925 156.703L139.694 157.111L139.462 157.516L139.229 157.919L138.993 158.319L138.756 158.716L138.517 159.11L138.276 159.502L138.034 159.891L137.789 160.277L137.543 160.661L137.296 161.042L137.046 161.42L136.795 161.795L136.542 162.167L136.288 162.537L136.031 162.904L135.773 163.267L135.514 163.628L135.252 163.986L134.989 164.341L134.725 164.694L134.458 165.043L134.19 165.389L133.92 165.733L133.649 166.073L133.376 166.41L133.101 166.745L132.825 167.076L132.547 167.404L132.268 167.73L131.986 168.052L131.704 168.371L131.419 168.687L131.133 169L130.846 169.31L130.556 169.617L130.266 169.92L129.973 170.221L129.679 170.518L129.384 170.813L129.087 171.104L128.788 171.391L128.488 171.676L128.186 171.957L127.883 172.236L127.578 172.51L127.272 172.782L126.964 173.051L126.655 173.316L126.344 173.578L126.032 173.836L125.718 174.092L125.403 174.344L125.086 174.593L124.768 174.838L124.449 175.08L124.127 175.319L123.805 175.554L123.481 175.786L123.156 176.015L122.829 176.241L122.501 176.462L122.171 176.681L121.84 176.896L121.507 177.108L121.174 177.316L120.839 177.521L120.502 177.723L120.164 177.921L119.825 178.116L119.484 178.307L119.142 178.495L118.799 178.679L118.454 178.86L118.109 179.038L117.761 179.212L117.413 179.382L117.063 179.549L116.712 179.713L116.36 179.873L116.006 180.029L115.651 180.182L115.295 180.332L114.938 180.478L114.579 180.62L114.219 180.759L113.858 180.895L113.496 181.027L113.133 181.155L112.768 181.28L112.402 181.401L112.036 181.519L111.667 181.633L111.298 181.744L110.928 181.851L110.556 181.955L110.184 182.055L109.81 182.151L109.435 182.244L109.059 182.334L108.682 182.419L108.304 182.502L107.925 182.58L107.545 182.655L107.164 182.727L106.781 182.795L106.398 182.859L106.014 182.92L105.629 182.978L105.242 183.031L104.855 183.082L104.467 183.128L104.077 183.171L103.687 183.211L103.296 183.247L102.904 183.279L102.511 183.308L102.117 183.333L101.722 183.354L101.327 183.373L100.93 183.387L100.533 183.398L100.134 183.406L99.7354 183.409L99.3354 183.41L98.9346 183.407L98.5329 183.4L98.1305 183.389L97.7273 183.376L97.3233 183.358L96.9185 183.337L96.513 183.313L96.1067 183.285L95.6996 183.253L95.2919 183.218L94.8834 183.18L94.4742 183.138L94.0644 183.092L93.6538 183.043L93.2426 182.991L92.8307 182.935L92.4182 182.875L92.005 182.812L91.5912 182.746L91.1768 182.676L90.7618 182.602L90.3463 182.526L89.9301 182.445L89.5134 182.362L89.0961 182.274L88.6783 182.184L88.26 182.09L87.8411 181.992L87.4217 181.891L87.0019 181.787L86.5816 181.679L86.1608 181.568L85.7395 181.454L85.3179 181.336L84.8957 181.215L84.4732 181.09L84.0503 180.962L83.627 180.831L83.2033 180.696L82.7792 180.558L82.3548 180.417L81.93 180.272L81.5049 180.124L81.0795 179.973L80.6538 179.819L80.2279 179.661L79.8016 179.5L79.3751 179.335L78.9483 179.168L78.5213 178.997L78.0941 178.823L77.6667 178.646L77.2391 178.465L76.8112 178.282L76.3833 178.095L75.9551 177.905L75.5269 177.712L75.0985 177.515L74.67 177.316L74.2414 177.113L73.8127 176.907L73.3839 176.699L72.9551 176.487L72.5262 176.272L72.0973 176.054L71.6684 175.832L71.2395 175.608L70.8105 175.381L70.3817 175.151L69.9528 174.917L69.524 174.681L69.0953 174.442L68.6666 174.199L68.238 173.954L67.8096 173.706L67.3813 173.455L66.9531 173.201L66.525 172.944L66.0972 172.684L65.6695 172.421L65.242 172.155L64.8147 171.887L64.3876 171.615L63.9608 171.341L63.5342 171.064L63.1079 170.784L62.6819 170.502L62.2562 170.216L61.8307 169.928L61.4056 169.637L60.9809 169.344L60.5565 169.047L60.1324 168.748L59.7088 168.447L59.2855 168.142L58.8627 167.835L58.4403 167.526L58.0183 167.213L57.5968 166.898L57.1758 166.581L56.7552 166.261L56.3352 165.938L55.9157 165.613L55.4967 165.285L55.0782 164.955L54.6604 164.622L54.243 164.287L53.8263 163.95L53.4102 163.609L52.9947 163.267L52.5799 162.922L52.1657 162.574L51.7522 162.225L51.3393 161.873L50.9272 161.518L50.5158 161.161L50.105 160.802L49.6951 160.441L49.2859 160.077L48.8775 159.711L48.4698 159.343L48.063 158.973L47.657 158.6L47.2518 158.225L46.8475 157.848L46.4441 157.469L46.0415 157.088L45.6398 156.704L45.239 156.319L44.8392 155.931L44.4403 155.542L44.0424 155.15L43.6454 154.756L43.2494 154.36L42.8544 153.963L42.4605 153.563L42.0675 153.161L41.6757 152.758L41.2849 152.352L40.8951 151.945L40.5065 151.535L40.119 151.124L39.7326 150.711L39.3473 150.296L38.9632 149.88L38.5803 149.461L38.1986 149.041L37.818 148.619L37.4387 148.195L37.0606 147.77L36.6838 147.343L36.3082 146.914L35.9339 146.484L35.5609 146.052L35.1892 145.618L34.8189 145.183L34.4498 144.746L34.0822 144.308L33.7159 143.868L33.351 143.426L32.9874 142.983L32.6253 142.539L32.2647 142.093L31.9054 141.646L31.5477 141.197L31.1914 140.747L30.8366 140.296L30.4833 139.843L30.1315 139.389L29.7813 138.933L29.4326 138.476L29.0855 138.018L28.74 137.559L28.396 137.099L28.0537 136.637L27.713 136.174L27.3739 135.71L27.0365 135.244L26.7008 134.778L26.3667 134.31L26.0344 133.842L25.7037 133.372L25.3748 132.901L25.0477 132.429L24.7222 131.957L24.3986 131.483L24.0767 131.008L23.7567 130.532L23.4384 130.056L23.122 129.578L22.8075 129.1L22.4948 128.62L22.1839 128.14L21.875 127.659L21.5679 127.177L21.2628 126.695L20.9596 126.211L20.6583 125.727L20.359 125.242L20.0617 124.757L19.7664 124.27L19.473 123.783L19.1817 123.296L18.8924 122.808L18.6051 122.319L18.3199 121.829L18.0368 121.339L17.7557 120.849L17.4768 120.358L17.1999 119.866L16.9252 119.374L16.6526 118.882L16.3821 118.389L16.1138 117.895L15.8477 117.402L15.5838 116.907L15.3221 116.413L15.0626 115.918L14.8053 115.423L14.5503 114.927L14.2975 114.431L14.047 113.935L13.7987 113.439L13.5528 112.943L13.3091 112.446L13.0678 111.949L12.8288 111.452L12.5922 110.955L12.3579 110.457L12.1259 109.96L11.8964 109.462L11.6692 108.965L11.4445 108.467L11.2221 107.969L11.0022 107.472L10.7847 106.974L10.5697 106.476L10.3571 105.979L10.147 105.481L9.93943 104.984L9.73432 104.487L9.53172 103.99L9.33165 103.493L9.1341 102.996L8.9391 102.499L8.74665 102.003L8.55677 101.506L8.36946 101.01L8.18474 100.515L8.00262 100.019L7.82309 99.5241L7.6462 99.0293L7.47193 98.5349L7.30031 98.0408L7.13133 97.5471L6.96502 97.0538L6.80137 96.5609L6.64041 96.0684L6.48214 95.5764L6.32656 95.0849L6.1737 94.5938L6.02356 94.1033L5.87614 93.6133L5.73147 93.1238L5.58955 92.6349L5.45039 92.1466L5.314 91.6589L5.18038 91.1718L5.04955 90.6854L4.92152 90.1996L4.79629 89.7145L4.67388 89.23L4.55427 88.7463L4.43751 88.2633L4.32359 87.7811L4.21252 87.2996L4.10429 86.8189L3.99893 86.339L3.89645 85.8599L3.79684 85.3816L3.70012 84.9042L3.60631 84.4276L3.51539 83.9519L3.42739 83.4772L3.3423 83.0033L3.26014 82.5304L3.18091 82.0584L3.10462 81.5874L3.03129 81.1174L2.96091 80.6484L2.89349 80.1804L2.82903 79.7134L2.76755 79.2475L2.70906 78.7827L2.65354 78.3189L2.60103 77.8563L2.55151 77.3947L2.50501 76.9343L2.46151 76.475L2.42104 76.0169L2.38359 75.56L2.34916 75.1043L2.31778 74.6497L2.28944 74.1965L2.26414 73.7444L2.24188 73.2936L2.22269 72.8441L2.20656 72.3958L2.19349 71.9489L2.18349 71.5033L2.17658 71.059L2.17273 70.616L2.17197 70.1745L2.1743 69.7342L2.17972 69.2954L2.18824 68.858L2.19986 68.422L2.21458 67.9875L2.23241 67.5544L2.25334 67.1227L2.2774 66.6925L2.30457 66.2639L2.33486 65.8367L2.36827 65.411L2.40481 64.9869L2.44448 64.5643L2.48727 64.1433L2.5332 63.7239L2.58227 63.306L2.63447 62.8897L2.68983 62.4751L2.74832 62.0621L2.80994 61.6507L2.87471 61.241L2.94265 60.8329L3.01371 60.4265L3.08794 60.0218L3.16531 59.6188L3.24583 59.2175L3.32951 58.8179L3.41634 58.4201L3.50632 58.024L3.59946 57.6297L3.69575 57.2372L3.7952 56.8464L3.8978 56.4575L4.00356 56.0703L4.11248 55.685L4.22454 55.3015L4.33976 54.9199L4.45813 54.5401L4.57966 54.1622L4.70434 53.7861L4.83217 53.412L4.96315 53.0397L5.09727 52.6694L5.23454 52.3009L5.37496 51.9344L5.51853 51.5699L5.66522 51.2073L5.81507 50.8467L5.96805 50.488L6.12416 50.1313L6.28341 49.7766L6.44579 49.4239L6.61129 49.0733L6.77991 48.7246L6.95167 48.378L7.12654 48.0334L7.30453 47.6909L7.48563 47.3504L7.66983 47.012L7.85714 46.6757L8.04755 46.3414L8.24106 46.0093L8.43766 45.6792L8.63735 45.3513L8.84012 45.0255L9.04598 44.7018L9.25491 44.3803L9.46691 44.0609L9.68197 43.7437L9.9001 43.4286L10.1213 43.1157L10.3455 42.805L10.5728 42.4964L10.8031 42.1901L11.0364 41.8859L11.2728 41.584L11.5122 41.2843L11.7546 40.9868L12 40.6915L12.2485 40.3985L12.4999 40.1077L12.7543 39.8191L13.0117 39.5329L13.272 39.2489L13.5354 38.9671L13.8016 38.6877L14.0709 38.4105L14.3431 38.1356L14.6182 37.863L14.8962 37.5927L15.1772 37.3247L15.4611 37.059L15.7479 36.7957L16.0376 36.5347L16.3302 36.276L16.6256 36.0196L16.9239 35.7656L17.2251 35.5139L17.5292 35.2646L17.836 35.0176L18.1457 34.773L18.4583 34.5308L18.7736 34.2909L19.0918 34.0534L19.4127 33.8183L19.7365 33.5856L20.063 33.3552L20.3923 33.1273L20.7243 32.9017L21.059 32.6786L21.3965 32.4578L21.7368 32.2395L22.0797 32.0236L22.4253 31.8101L22.7736 31.599L23.1246 31.3903L23.4783 31.1841L23.8346 30.9803L24.1935 30.7789L24.5551 30.58L24.9193 30.3835L25.2861 30.1894L25.6555 29.9978L26.0274 29.8086L26.402 29.6219L26.779 29.4377L27.1587 29.2558L27.5408 29.0765L27.9255 28.8996L28.3126 28.7252L28.7023 28.5532L29.0944 28.3837L29.489 28.2167L29.8861 28.0521L30.2855 27.89L30.6874 27.7304L31.0917 27.5732L31.4984 27.4185L31.9074 27.2663L32.3189 27.1166L32.7326 26.9694L33.1487 26.8246L33.5671 26.6823L33.9878 26.5425L34.4108 26.4052L34.8361 26.2703L35.2636 26.138L35.6934 26.0081L36.1254 25.8807L36.5596 25.7558L36.9959 25.6334L37.4345 25.5134L37.8752 25.396L38.3181 25.281L38.7631 25.1685L39.2102 25.0585L39.6594 24.951L40.1107 24.846L40.564 24.7434L41.0194 24.6434L41.4768 24.5458L41.9362 24.4507L42.3977 24.358L42.861 24.2679L43.3264 24.1802L43.7937 24.095L44.2629 24.0123L44.734 23.9321L45.207 23.8543L45.6818 23.779L46.1586 23.7062L46.6371 23.6358L47.1175 23.568L47.5996 23.5025L48.0836 23.4396L48.5692 23.3791L49.0567 23.3211L49.5458 23.2655L50.0367 23.2124L50.5292 23.1617L51.0234 23.1135L51.5192 23.0677L52.0167 23.0244L52.5158 22.9835L53.0164 22.9451L53.5186 22.9091L54.0224 22.8756L54.5277 22.8444L55.0345 22.8158L55.5428 22.7895L56.0525 22.7657L56.5637 22.7443L57.0763 22.7253L57.5903 22.7087L58.1057 22.6945L58.6225 22.6828L59.1406 22.6734L59.6601 22.6665L60.1808 22.6619L60.7029 22.6598L61.2261 22.66L61.7507 22.6627L62.2764 22.6677L62.8033 22.6751L63.3315 22.6849L63.8607 22.697L64.3911 22.7115L64.9226 22.7284L65.4552 22.7476L65.9889 22.7692L66.5236 22.7932L67.0594 22.8195L67.5961 22.8481L68.1339 22.8791L68.6726 22.9124L69.2122 22.9481L69.7527 22.986L70.2942 23.0263L70.8365 23.0689L71.3796 23.1138L71.9236 23.161L72.4684 23.2106L73.014 23.2624L73.5603 23.3165L74.1073 23.3729L74.6551 23.4315L75.2036 23.4925L75.7527 23.5557L76.3025 23.6212L76.8529 23.6889L77.4039 23.7589L77.9555 23.8311L78.5076 23.9056L79.0603 23.9823L79.6135 24.0613L80.1671 24.1424L80.7212 24.2258L81.2758 24.3114L81.8308 24.3992L82.3862 24.4892L82.9419 24.5814L83.498 24.6758L84.0544 24.7724L84.6111 24.8712L85.1681 24.9721L85.7253 25.0752L86.2827 25.1804L86.8404 25.2879L87.3982 25.3974L87.9562 25.5091L88.5144 25.6229L89.0726 25.7389L89.6309 25.8569L90.1893 25.9771L90.7477 26.0994L91.3062 26.2238L91.8646 26.3503L92.423 26.4788L92.9813 26.6095L93.5396 26.7422L94.0978 26.877L94.6558 27.0138L95.2137 27.1527L95.7714 27.2937L96.3288 27.4367L96.8861 27.5817L97.4432 27.7287L97.9999 27.8778L98.5564 28.0288L99.1125 28.1819L99.6683 28.337L100.224 28.494L100.779 28.653L101.333 28.814L101.888 28.977L102.441 29.1419L102.994 29.3088L103.547 29.4776L104.099 29.6484L104.651 29.821L105.202 29.9957L105.752 30.1722L106.302 30.3506L106.851 30.5309L107.4 30.7131L107.948 30.8972L108.495 31.0831L109.041 31.271L109.586 31.4606L110.131 31.6522L110.675 31.8456L111.218 32.0408L111.76 32.2378L112.302 32.4367L112.842 32.6373L113.381 32.8398L113.92 33.044L114.457 33.2501L114.994 33.4579L115.529 33.6675L116.063 33.8789L116.597 34.092L117.129 34.3068L117.66 34.5234L118.19 34.7417L118.719 34.9618L119.246 35.1835L119.772 35.407L120.297 35.6321L120.821 35.859L121.344 36.0875L121.865 36.3177L122.385 36.5495L122.903 36.783L123.42 37.0181L123.936 37.2549L124.45 37.4933L124.963 37.7333L125.474 37.9749L125.984 38.2182L126.492 38.463L126.999 38.7094L127.504 38.9574L128.008 39.2069L128.509 39.458L129.01 39.7107L129.508 39.9649L130.005 40.2206L130.501 40.4778L130.994 40.7366L131.486 40.9969L131.976 41.2586L132.464 41.5219L132.951 41.7866L133.435 42.0528L133.918 42.3204L134.399 42.5896L134.878 42.8601L135.355 43.1321L135.83 43.4055L136.303 43.6803L136.775 43.9566L137.244 44.2342L137.711 44.5132L138.176 44.7936L138.639 45.0754L139.1 45.3585L139.559 45.643L140.015 45.9288L140.47 46.216L140.922 46.5045L141.373 46.7943L141.821 47.0854L142.266 47.3778L142.71 47.6715L143.151 47.9665L143.59 48.2627L144.026 48.5602L144.461 48.859L144.893 49.159L145.322 49.4602L145.749 49.7627L146.174 50.0664L146.596 50.3713L147.016 50.6774L147.434 50.9846L147.849 51.2931L148.261 51.6027L148.671 51.9135L149.078 52.2254L149.483 52.5385L149.885 52.8527L150.285 53.1681L150.682 53.4845L151.076 53.8021L151.468 54.1207L151.857 54.4404L152.243 54.7612L152.627 55.0831L153.008 55.406L153.386 55.73L153.761 56.055L154.134 56.3811L154.504 56.7082L154.871 57.0363L155.235 57.3653L155.596 57.6954L155.955 58.0265L156.31 58.3585L156.663 58.6915L157.013 59.0255L157.36 59.3604L157.704 59.6962L158.045 60.033L158.383 60.3707L158.718 60.7093L159.05 61.0487L159.379 61.3891L159.705 61.7304L160.028 62.0725L160.348 62.4155L160.665 62.7594L160.978 63.1041L161.289 63.4496L161.596 63.7959L161.901 64.1431L162.202 64.4911L162.5 64.8398L162.795 65.1894L163.086 65.5397L163.375 65.8908L163.66 66.2426L163.942 66.5952L164.221 66.9486L164.497 67.3026L164.769 67.6574L165.038 68.0129L165.304 68.3691L165.566 68.726L165.825 69.0836L166.081 69.4418L166.333 69.8007L166.582 70.1603L166.828 70.5205L167.07 70.8813L167.309 71.2428L167.545 71.6049L167.777 71.9676L168.005 72.3309L168.231 72.6947L168.453 73.0592L168.671 73.4242L168.886 73.7898L169.097 74.1559L169.305 74.5226L169.51 74.8898L169.711 75.2575L169.908 75.6258L170.102 75.9945L170.293 76.3638L170.48 76.7335L170.663 77.1037L170.843 77.4743L171.019 77.8454L171.192 78.217L171.361 78.589L171.526 78.9614L171.688 79.3343L171.847 79.7075L172.001 80.0812L172.152 80.4552L172.3 80.8296L172.444 81.2044L172.584 81.5796L172.721 81.9551L172.853 82.3309L172.983 82.7071L173.108 83.0836L173.23 83.4604L173.349 83.8375L173.463 84.2149L173.574 84.5927L173.681 84.9706L173.785 85.3489L173.885 85.7274L173.981 86.1061L174.073 86.4851L174.162 86.8643L174.247 87.2438L174.328 87.6234L174.406 88.0032L174.48 88.3833L174.55 88.7635L174.616 89.1439L174.679 89.5244L174.738 89.9051L174.793 90.286L174.845 90.667L174.892 91.048L174.936 91.4293L174.976 91.8106L175.013 92.192L175.046 92.5735L175.074 92.9551L175.1 93.3368L175.121 93.7185L175.139 94.1003L175.153 94.4821L175.163 94.8639L175.169 95.2457L175.172 95.6276L175.171 96.0095L175.166 96.3913L175.157 96.7732L175.145 97.155L175.129 97.5368L175.109 97.9185L175.085 98.3002L175.057 98.6818L175.026 99.0634L174.991 99.4448L174.953 99.8262L174.91 100.207L174.864 100.589L174.814 100.97L174.76 101.351L174.703 101.731L174.642 102.112L174.577 102.492L174.508 102.873L174.436 103.253L174.36 103.633L174.28 104.012L174.196 104.392L174.109 104.771L174.018 105.15L173.923 105.529L173.825 105.908L173.723 106.286L173.617 106.664L173.507 107.042L173.394 107.419L173.277 107.797L173.157 108.174L173.033 108.55L172.905 108.927L172.773 109.303L172.638 109.678L172.5 110.053L172.357 110.428L172.211 110.803L172.061 111.177L171.908 111.551L171.751 111.924L171.591 112.297L171.427 112.67L171.259 113.042L171.088 113.414L170.913 113.785L170.734 114.156L170.552 114.526L170.367 114.896L170.178 115.266L169.985 115.635L169.789 116.003L169.59 116.371L169.387 116.738L169.18 117.105L168.97 117.472L168.756 117.837L168.539 118.203L168.319 118.567L168.095 118.932L167.868 119.295L167.637 119.658L167.403 120.02L167.165 120.382L166.924 120.743L166.68 121.104L166.432 121.463L166.181 121.823L165.926 122.181L165.669 122.539L165.408 122.896L165.143 123.253L164.876 123.608L164.605 123.963L164.33 124.318L164.053 124.671L163.772 125.024L163.488 125.376L163.201 125.728L162.91 126.078L162.617 126.428L162.32 126.777L162.02 127.126L161.717 127.473L161.411 127.82L161.101 128.166L160.789 128.511L160.473 128.855L160.155 129.198L159.833 129.541L159.508 129.882L159.18 130.223L158.849 130.563L158.516 130.902L158.179 131.24L157.839 131.577L157.496 131.913L157.15 132.248L156.802 132.583L156.45 132.916L156.096 133.249L155.738 133.58L155.378 133.91L155.015 134.24L154.649 134.568L154.28 134.896L153.909 135.222L153.534 135.548L153.157 135.872L152.778 136.196L152.395 136.518L152.01 136.839L151.622 137.159L151.231 137.478L150.838 137.796L150.442 138.113L150.043 138.429L149.642 138.744L149.238 139.057L148.832 139.369L148.423 139.681L148.012 139.991L147.598 140.3L147.182 140.607L146.763 140.914L146.341 141.219L145.918 141.524L145.491 141.826L145.063 142.128L144.632 142.429L144.198 142.728L143.763 143.026L143.325 143.323L142.884 143.618L142.442 143.912L141.997 144.205L141.55 144.497L141.101 144.787L140.649 145.076L140.195 145.364L139.74 145.65L139.282 145.935L138.821 146.219L138.359 146.501L137.895 146.782L137.429 147.062L136.96 147.34L136.49 147.617L136.017 147.892L135.543 148.166L135.067 148.439L134.589 148.71L134.108 148.98L133.626 149.248L133.143 149.515L132.657 149.78L132.169 150.044L131.68 150.306L131.189 150.567L130.696 150.826L130.201 151.084L129.705 151.34L129.207 151.595L128.707 151.848L128.206 152.1L127.703 152.35L127.199 152.599L126.692 152.846L126.185 153.091L125.676 153.335L125.165 153.578L124.653 153.818L124.139 154.057L123.624 154.295L123.107 154.53L122.59 154.765L122.07 154.997L121.55 155.228L121.028 155.457L120.504 155.685L119.98 155.91L119.454 156.134L118.927 156.357L118.399 156.578L117.869 156.797L117.339 157.014L116.807 157.229L116.274 157.443L115.74 157.655L115.205 157.866L114.669 158.074L114.132 158.281L113.594 158.486L113.055 158.689L112.515 158.89L111.974 159.09L111.432 159.288L110.89 159.484L110.346 159.678L109.802 159.87L109.257 160.06L108.711 160.249L108.164 160.436L107.616 160.62L107.068 160.803L106.519 160.985L105.97 161.164L105.42 161.341L104.869 161.516L104.317 161.69L103.765 161.861L103.213 162.031L102.66 162.198L102.106 162.364L101.552 162.528L100.998 162.69L100.443 162.849L99.8878 163.007L99.3321 163.163L98.7761 163.317L98.2198 163.469L97.6632 163.619L97.1062 163.767L96.5491 163.912L95.9916 164.056L95.434 164.198L94.8762 164.338L94.3182 164.475L93.7601 164.611L93.2019 164.744L92.6436 164.876L92.0852 165.005L91.5268 165.133L90.9684 165.258L90.4099 165.381L89.8515 165.502L89.2932 165.621L88.7349 165.738L88.1767 165.852L87.6187 165.965L87.0608 166.075L86.503 166.183L85.9455 166.29L85.3882 166.394L84.8311 166.495L84.2743 166.595L83.7178 166.692L83.1616 166.788L82.6057 166.881L82.0502 166.972L81.495 167.06L80.9403 167.147L80.386 167.231L79.8322 167.313L79.2788 167.393L78.7259 167.47L78.1736 167.546L77.6218 167.619L77.0705 167.69L76.5199 167.758L75.9699 167.825L75.4205 167.889L74.8717 167.951L74.3237 168.01L73.7763 168.068L73.2297 168.123L72.6839 168.175L72.1388 168.226L71.5945 168.274L71.051 168.32L70.5083 168.363L69.9666 168.404L69.4256 168.443L68.8857 168.48L68.3466 168.514L67.8085 168.546L67.2713 168.576L66.7352 168.603L66.2001 168.628L65.666 168.65L65.1329 168.67L64.601 168.688L64.0702 168.704L63.5404 168.717L63.0119 168.727L62.4844 168.736L61.9582 168.742L61.4332 168.745L60.9094 168.746L60.3869 168.745L59.8657 168.742L59.3457 168.736L58.8271 168.727L58.3098 168.717L57.7938 168.703L57.2792 168.688L56.7661 168.67L56.2543 168.649L55.744 168.626L55.2351 168.601L54.7277 168.573L54.2218 168.543L53.7175 168.511L53.2146 168.475L52.7134 168.438L52.2137 168.398L51.7156 168.356L51.2191 168.311L50.7243 168.264L50.2311 168.214L49.7395 168.162L49.2497 168.107L48.7616 168.05L48.2752 167.991L47.7906 167.929L47.3077 167.864L46.8267 167.797L46.3474 167.728L45.87 167.656L45.3944 167.582L44.9206 167.505L44.4488 167.426L43.9788 167.344L43.5108 167.26L43.0447 167.173L42.5805 167.084L42.1183 166.992L41.6581 166.898L41.1999 166.802L40.7437 166.703L40.2896 166.601L39.8375 166.497L39.3874 166.39L38.9395 166.281L38.4937 166.17L38.05 166.056L37.6084 165.939L37.169 165.82L36.7317 165.699L36.2967 165.575L35.8638 165.449L35.4332 165.32L35.0047 165.188L34.5786 165.054L34.1547 164.918L33.7331 164.779L33.3138 164.638L32.8967 164.494L32.4821 164.348L32.0697 164.199L31.6597 164.048L31.2521 163.894L30.8469 163.738L30.444 163.579L30.0436 163.418L29.6456 163.255L29.25 163.089L28.8569 162.92L28.4663 162.749L28.0781 162.576L27.6925 162.4L27.3094 162.221L26.9287 162.041L26.5506 161.857L26.1751 161.672L25.8021 161.483L25.4317 161.293L25.0639 161.1L24.6987 160.904L24.3361 160.706L23.9761 160.506L23.6187 160.303L23.264 160.098L22.912 159.89L22.5626 159.68L22.2159 159.467L21.8719 159.252L21.5306 159.035L21.1921 158.815L20.8562 158.593L20.5231 158.368L20.1927 158.141L19.8651 157.912L19.5403 157.68L19.2183 157.446L18.899 157.209L18.5825 156.97L18.2689 156.729L17.9581 156.485L17.6501 156.239L17.3449 155.991L17.0426 155.74L16.7431 155.487L16.4465 155.232L16.1528 154.974L15.862 154.714L15.5741 154.451L15.289 154.187L15.0069 153.92L14.7277 153.65L14.4514 153.379L14.1781 153.105L13.9077 152.828L13.6402 152.55L13.3757 152.269L13.1142 151.986L12.8556 151.7L12.6 151.413L12.3474 151.123L12.0978 150.831L11.8512 150.536L11.6076 150.24L11.367 149.941L11.1295 149.64L10.8949 149.336L10.6634 149.031L10.435 148.723L10.2095 148.413L9.98713 148.101L9.76779 147.787L9.55152 147.471L9.3383 147.152L9.12816 146.832L8.92109 146.509L8.7171 146.184L8.51619 145.857L8.31837 145.527L8.12364 145.196L7.932 144.863L7.74346 144.527L7.55803 144.19L7.37571 143.85L7.19649 143.508L7.02039 143.165L6.84741 142.819L6.67754 142.471L6.51081 142.121L6.34719 141.769L6.18671 141.415L6.02936 141.059L5.87513 140.701L5.72406 140.342L5.57611 139.98L5.4313 139.616L5.28965 139.25L5.15113 138.883L5.01576 138.513L4.88354 138.141L4.75447 137.768L4.62854 137.393L4.50578 137.016L4.38615 136.636L4.26969 136.256L4.15638 135.873L4.04621 135.488L3.93921 135.102L3.83536 134.714L3.73467 134.324L3.63713 133.932L3.54274 133.538L3.45151 133.143L3.36344 132.746L3.27852 132.347L3.19675 131.946L3.11813 131.544L3.04266 131.14L2.97035 130.734L2.90118 130.327L2.83516 129.917L2.77229 129.507L2.71256 129.094L2.65597 128.68L2.60252 128.265L2.55222 127.848L2.50505 127.429L2.46101 127.008L2.42011 126.586L2.38233 126.163L2.34769 125.738L2.31617 125.311L2.28776 124.883L2.26248 124.454L2.24031 124.022L2.22125 123.59L2.20531 123.156L2.19246 122.721L2.18272 122.284L2.17607 121.845L2.17252 121.406L2.17206 120.965L2.17469 120.522L2.18039 120.079L2.18917 119.633L2.20103 119.187L2.21595 118.739L2.23393 118.29L2.25498 117.84L2.27907 117.388L2.30621 116.936L2.3364 116.482L2.36963 116.026L2.40588 115.57L2.44516 115.112L2.48746 114.653L2.53278 114.193L2.5811 113.732L2.63244 113.27L2.68676 112.807L2.74409 112.342L2.80438 111.877L2.86766 111.41L2.93391 110.943L3.00313 110.474L3.0753 110.004L3.15041 109.534L3.22848 109.062L3.30949 108.59L3.39341 108.116L3.48027 107.642L3.57003 107.167L3.66271 106.69L3.75828 106.213L3.85675 105.735L3.9581 105.257L4.06232 104.777L4.16941 104.297L4.27936 103.815L4.39216 103.333L4.5078 102.851L4.62628 102.367L4.74758 101.883L4.8717 101.398L4.99863 100.913L5.12836 100.427L5.26087 99.9397L5.39617 99.4522L5.53424 98.9642L5.67508 98.4755L5.81866 97.9863L5.96499 97.4965L6.11405 97.0061L6.26584 96.5153L6.42035 96.024L6.57755 95.5321L6.73745 95.0399L6.90004 94.5471L7.0653 94.054L7.23323 93.5604L7.40381 93.0665L7.57704 92.5722L7.75289 92.0775L7.93137 91.5825L8.11247 91.0872L8.29617 90.5916L8.48245 90.0957L8.67132 89.5996L8.86276 89.1033L9.05675 88.6067L9.2533 88.1099L9.45238 87.613L9.65397 87.1159L9.85809 86.6186L10.0647 86.1213L10.2738 85.6238L10.4854 85.1262L10.6995 84.6286L10.916 84.131L11.1349 83.6333L11.3563 83.1356L11.5801 82.638L11.8063 82.1404L12.0349 81.6428L12.2659 81.1453L12.4993 80.6479L12.735 80.1507L12.9731 79.6535L13.2135 79.1566L13.4562 78.6598L13.7013 78.1631L13.9486 77.6667L14.1982 77.1706L14.4501 76.6747L14.7043 76.1791L14.9607 75.6838L15.2193 75.1887L15.4801 74.6941L15.7432 74.1998L16.0084 73.7058L16.2759 73.2123L16.5455 72.7192L16.8172 72.2265L17.0911 71.7342L17.3671 71.2425L17.6452 70.7512L17.9255 70.2605L18.2078 69.7703L18.4922 69.2806L18.7787 68.7916L19.0672 68.3031L19.3577 67.8153L19.6502 67.3281L19.9448 66.8415L20.2413 66.3557L20.5399 65.8705L20.8403 65.3861L21.1428 64.9024L21.4471 64.4195L21.7534 63.9373L22.0616 63.4559L22.3717 62.9754L22.6837 62.4957L22.9975 62.0169L23.3132 61.539L23.6307 61.062L23.9501 60.5858L24.2712 60.1107L24.5941 59.6365L24.9189 59.1633L25.2453 58.6911L25.5736 58.2199L25.9035 57.7498L26.2352 57.2807L26.5686 56.8127L26.9037 56.3459L27.2404 55.8801L27.5788 55.4155L27.9189 54.9521L28.2606 54.4899L28.6039 54.0289L28.9488 53.569L29.2953 53.1105L29.6434 52.6532L29.993 52.1972L30.3441 51.7425L30.6968 51.2892L31.051 50.8372L31.4067 50.3865L31.7639 49.9373L32.1226 49.4894L32.4827 49.043L32.8442 48.5981L33.2072 48.1546L33.5715 47.7126L33.9373 47.272L34.3044 46.8331L34.6729 46.3956L35.0427 45.9598L35.4139 45.5255L35.7864 45.0928L36.1602 44.6618L36.5353 44.2324L36.9116 43.8046L37.2892 43.3786L37.668 42.9542L38.0481 42.5316L38.4293 42.1107L38.8118 41.6916L39.1954 41.2742L39.5802 40.8586L39.9662 40.4449L40.3533 40.033L40.7415 39.623L41.1308 39.2148L41.5211 38.8085L41.9126 38.4041L42.3051 38.0017L42.6987 37.6012L43.0932 37.2027L43.4888 36.8061L43.8854 36.4116L44.283 36.0191L44.6815 35.6286L45.0809 35.2402L45.4814 34.8538L45.8827 34.4696L46.2849 34.0875L46.688 33.7075L47.092 33.3296L47.4968 32.954L47.9025 32.5805L48.309 32.2092L48.7163 31.8401L49.1244 31.4733L49.5333 31.1087L49.943 30.7464L50.3534 30.3864L50.7646 30.0286L51.1764 29.6733L51.589 29.3202L52.0022 28.9695L52.4162 28.6212L52.8308 28.2753L53.246 27.9318L53.6618 27.5907L54.0783 27.252L54.4954 26.9159L54.913 26.5822L55.3313 26.2509L55.7501 25.9222L56.1694 25.596L56.5892 25.2724L57.0096 24.9513L57.4304 24.6328L57.8517 24.3169L58.2735 24.0035L58.6958 23.6928L59.1184 23.3847L59.5415 23.0793L59.965 22.7765L60.3889 22.4764L60.8132 22.1791L61.2378 21.8844L61.6627 21.5924L62.088 21.3032L62.5136 21.0167L62.9395 20.733L63.3657 20.4521L63.7922 20.174L64.2189 19.8987L64.6459 19.6262L65.0731 19.3566L65.5005 19.0898L65.9282 18.8259L66.356 18.5649L66.7839 18.3067L67.2121 18.0515L67.6403 17.7992L68.0687 17.5498L68.4973 17.3034L68.9259 17.0599L69.3546 16.8194L69.7834 16.5819L70.2122 16.3474L70.6411 16.1159L71.07 15.8874L71.4989 15.662L71.9278 15.4396L72.3567 15.2203L72.7856 15.004L73.2145 14.7908L73.6433 14.5808L74.072 14.3738L74.5006 14.1699L74.9292 13.9692L75.3576 13.7716L75.7859 13.5772L76.2141 13.3859L76.6422 13.1978L77.0701 13.0129L77.4977 12.8312L77.9253 12.6527L78.3526 12.4774L78.7796 12.3054L79.2065 12.1365L79.6331 11.9709L80.0595 11.8086L80.4856 11.6495L80.9114 11.4937L81.3369 11.3412L81.7621 11.192L82.187 11.0461L82.6115 10.9035L83.0358 10.7642L83.4596 10.6282L83.8831 10.4956L84.3061 10.3663L84.7288 10.2404L85.1511 10.1178L85.573 9.99862L85.9944 9.8828L86.4154 9.77036L86.8359 9.66131L87.2559 9.55565L87.6755 9.4534L88.0945 9.35457L88.5131 9.25915L88.9311 9.16716L89.3486 9.0786L89.7655 8.99347L90.1819 8.91181L90.5977 8.83358L91.0129 8.75881L91.4276 8.6875L91.8416 8.61967L92.255 8.5553L92.6678 8.49442L93.0799 8.43702L93.4914 8.3831L93.9022 8.33269L94.3124 8.28578L94.7218 8.24236L95.1306 8.20245L95.5386 8.16605L95.9459 8.13318L96.3525 8.10382L96.7584 8.07798L97.1634 8.05568L97.5677 8.0369L97.9713 8.02166L98.374 8.00995L98.776 8.00179L99.1771 7.99718L99.5774 7.99609L99.9769 7.99857L100.376 8.00459L100.773 8.01417L101.17 8.0273L101.566 8.04399L101.961 8.06425L102.356 8.08805L102.749 8.11542L103.141 8.14636L103.533 8.18085L103.923 8.21892L104.313 8.26055L104.702 8.30574L105.089 8.35449L105.476 8.40683L105.862 8.46272L106.246 8.52218L106.63 8.58521L107.013 8.65181L107.394 8.72196L107.775 8.79569L108.155 8.87297L108.533 8.95383L108.911 9.03824L109.287 9.12622L109.662 9.21775L110.036 9.31284L110.409 9.41149L110.781 9.51368L111.152 9.61944L111.522 9.72874L111.89 9.84158L112.258 9.95798L112.624 10.0779L112.989 10.2014L113.353 10.3284L113.715 10.4589L114.077 10.593L114.437 10.7306L114.796 10.8717L115.154 11.0163L115.511 11.1644L115.866 11.3161L116.22 11.4712L116.573 11.6299L116.924 11.792L117.275 11.9576L117.624 12.1267L117.971 12.2993L118.318 12.4754L118.663 12.6549L119.007 12.8379L119.349 13.0244L119.69 13.2143L120.03 13.4076L120.369 13.6044L120.706 13.8046L121.041 14.0082L121.376 14.2153L121.709 14.4257L122.04 14.6396L122.37 14.8568L122.699 15.0775L123.027 15.3015L123.353 15.5289L123.677 15.7596L124 15.9938L124.322 16.2312L124.642 16.472L124.961 16.7161L125.278 16.9636L125.594 17.2143L125.908 17.4684L126.221 17.7257L126.532 17.9864L126.842 18.2503L127.151 18.5175L127.458 18.7879L127.763 19.0616L128.067 19.3385L128.369 19.6186L128.67 19.902L128.969 20.1885L129.267 20.4782L129.563 20.7712L129.857 21.0673L130.15 21.3665L130.442 21.6689L130.731 21.9744L131.02 22.2831L131.306 22.5948L131.591 22.9097L131.875 23.2276L132.157 23.5487L132.437 23.8727L132.715 24.1999L132.992 24.53L133.268 24.8632L133.541 25.1994L133.813 25.5386L134.084 25.8808L134.352 26.226L134.619 26.5741L134.885 26.9251L135.149 27.2791L135.411 27.636L135.671 27.9958L135.93 28.3584L136.187 28.724L136.442 29.0924L136.695 29.4637L136.947 29.8377L137.197 30.2146L137.446 30.5943L137.692 30.9768L137.937 31.362L138.181 31.75L138.422 32.1407L138.662 32.5341L138.9 32.9302L139.136 33.329L139.37 33.7305L139.603 34.1346L139.834 34.5414L140.063 34.9508L140.29 35.3628L140.516 35.7774L140.74 36.1945L140.962 36.6142L141.182 37.0365L141.401 37.4612L141.617 37.8885L141.832 38.3182L142.045 38.7504L142.256 39.185L142.465 39.6221L142.673 40.0616L142.879 40.5034L143.083 40.9477L143.285 41.3943L143.485 41.8432L143.683 42.2945L143.88 42.748L144.074 43.2038L144.267 43.6619L144.458 44.1222L144.647 44.5848L144.834 45.0495L145.02 45.5165L145.203 45.9855L145.385 46.4568L145.565 46.9301L145.743 47.4056L145.918 47.8831L146.093 48.3627L146.265 48.8444L146.435 49.328L146.603 49.8137L146.77 50.3013L146.935 50.791L147.097 51.2825L147.258 51.776L147.417 52.2713L147.574 52.7686L147.729 53.2677L147.882 53.7686L148.033 54.2713L148.182 54.7759L148.33 55.2822L148.475 55.7902L148.619 56.3L148.76 56.8115L148.9 57.3246L149.037 57.8395L149.173 58.3559L149.307 58.874L149.439 59.3937L149.568 59.9149L149.696 60.4377L149.822 60.9621L149.946 61.4879L150.068 62.0152L150.188 62.544L150.307 63.0742L150.423 63.6058L150.537 64.1388L150.649 64.6732L150.759 65.2089L150.867 65.746L150.974 66.2843L151.078 66.8239L151.18 67.3648L151.281 67.9069L151.379 68.4502L151.475 68.9947L151.57 69.5404L151.662 70.0871L151.753 70.6351L151.841 71.184L151.927 71.7341L152.012 72.2852L152.094 72.8373L152.175 73.3904L152.253 73.9445L152.33 74.4995L152.404 75.0554L152.476 75.6122L152.547 76.17L152.615 76.7285L152.682 77.2879L152.746 77.8481L152.808 78.409L152.869 78.9707L152.927 79.5332L152.984 80.0963L153.038 80.6601L153.09 81.2246L153.141 81.7897L153.189 82.3554L153.235 82.9217L153.28 83.4885L153.322 84.0559L153.362 84.6238L153.4 85.1921L153.436 85.7609L153.471 86.3302L153.503 86.8999L153.533 87.4699L153.561 88.0403L153.587 88.611L153.611 89.1821L153.633 89.7534L153.653 90.325L153.671 90.8968L153.687 91.4688L153.701 92.041L153.713 92.6134L153.723 93.1859L153.731 93.7585L153.737 94.3312L153.741 94.9039L153.743 95.4767L153.742 96.0495L153.74 96.6223L153.736 97.1951L153.73 97.7678L153.721 98.3403L153.711 98.9128L153.699 99.4852L153.684 100.057L153.668 100.629L153.649 101.201L153.629 101.773L153.606 102.344L153.582 102.915L153.555 103.486L153.527 104.056L153.496 104.626L153.464 105.195L153.429 105.765L153.392 106.333L153.354 106.902L153.313 107.469L153.27 108.037L153.226 108.603L153.179 109.169L153.13 109.735L153.079 110.3L153.027 110.864L152.972 111.428L152.915 111.991L152.856 112.553L152.796 113.115L152.733 113.676L152.668 114.236L152.601 114.795L152.532 115.353L152.461 115.911L152.389 116.467L152.314 117.023L152.237 117.578L152.158 118.132L152.077 118.685L151.994 119.237L151.909 119.787L151.823 120.337L151.734 120.886L151.643 121.434L151.55 121.98L151.455 122.526L151.359 123.07L151.26 123.613L151.159 124.155L151.056 124.695L150.952 125.235L150.845 125.773L150.736 126.31L150.626 126.845L150.513 127.379L150.398 127.912L150.282 128.443L150.163 128.973L150.043 129.502L149.92 130.029L149.796 130.554L149.67 131.078L149.541 131.601L149.411 132.122L149.279 132.641L149.145 133.159L149.009 133.675L148.871 134.189L148.731 134.702L148.589 135.213L148.445 135.723L148.299 136.23L148.151 136.736L148.002 137.24L147.85 137.743L147.696 138.243L147.541 138.742L147.384 139.239L147.224 139.734L147.063 140.227L146.9 140.718L146.735 141.207L146.568 141.694L146.399 142.18L146.229 142.663L146.056 143.144L145.882 143.623L145.705 144.1L145.527 144.575L145.347 145.048L145.165 145.519L144.981 145.988L144.795 146.454L144.608 146.919L144.418 147.381L144.227 147.84L144.034 148.298L143.839 148.753L143.642 149.206L143.443 149.657L143.242 150.106L143.04 150.552L142.836 150.996L142.63 151.437L142.422 151.876L142.212 152.312L142 152.747L141.787 153.178L141.572 153.607L141.355 154.034L141.136 154.458L140.915 154.88L140.693 155.299L140.469 155.716L140.243 156.13L140.015 156.541L139.786 156.95L139.554 157.356L139.321 157.76L139.086 158.161L138.85 158.559L138.612 158.955L138.371 159.348L138.13 159.738L137.886 160.125L137.641 160.51L137.394 160.892L137.145 161.271L136.894 161.647L136.642 162.021L136.388 162.391L136.133 162.759L135.875 163.124L135.616 163.486L135.356 163.845L135.093 164.202L134.829 164.555L134.564 164.905L134.296 165.253L134.027 165.597L133.756 165.939L133.484 166.277L133.21 166.613L132.934 166.946L132.657 167.275L132.378 167.602L132.098 167.925L131.815 168.245L131.532 168.563L131.246 168.877L130.959 169.188L130.671 169.496L130.381 169.801L130.089 170.103L129.796 170.401L129.501 170.697L129.204 170.989L128.906 171.278L128.607 171.564L128.306 171.847L128.003 172.126L127.699 172.402L127.393 172.675L127.086 172.945L126.777 173.211L126.467 173.475L126.156 173.735L125.842 173.991L125.528 174.245L125.212 174.495L124.894 174.741L124.575 174.985L124.255 175.225L123.933 175.462L123.609 175.695L123.284 175.925L122.958 176.152L122.63 176.375L122.301 176.595L121.971 176.812L121.639 177.025L121.306 177.235L120.971 177.441L120.635 177.644L120.298 177.843L119.959 178.039L119.619 178.232L119.278 178.421L118.935 178.607L118.591 178.789L118.245 178.968L117.899 179.143L117.551 179.315L117.201 179.484L116.851 179.648L116.499 179.81L116.146 179.968L115.792 180.122L115.436 180.273L115.079 180.42L114.721 180.564L114.362 180.705L114.001 180.842L113.639 180.975L113.277 181.105L112.912 181.231L112.547 181.354L112.181 181.473L111.813 181.588L111.444 181.701L111.074 181.809L110.703 181.914L110.331 182.016L109.958 182.114L109.583 182.208L109.208 182.299L108.831 182.386L108.454 182.47L108.075 182.55L107.695 182.626L107.314 182.699L106.933 182.769L106.55 182.834L106.166 182.897L105.781 182.955L105.395 183.011L105.008 183.062L104.62 183.11L104.231 183.155L103.842 183.195L103.451 183.233L103.059 183.267L102.667 183.297L102.273 183.323L101.879 183.346L101.483 183.366L101.087 183.382L100.69 183.394L100.292 183.403L99.8932 183.408L99.4935 183.41L99.093 183.408L98.6917 183.403L98.2896 183.394L97.8867 183.382L97.483 183.366L97.0785 183.346L96.6733 183.323L96.2673 183.296L95.8605 183.266L95.4531 183.233L95.0449 183.196L94.636 183.155L94.2264 183.111L93.8161 183.063L93.4051 183.012L92.9935 182.957L92.5812 182.899L92.1683 182.838L91.7548 182.772L91.3406 182.704L90.9259 182.632L90.5105 182.556L90.0946 182.477L89.6781 182.395L89.261 182.309L88.8434 182.22L88.4253 182.127L88.0067 182.031L87.5875 181.932L87.1678 181.829L86.7477 181.722L86.3271 181.612L85.906 181.499L85.4845 181.383L85.0626 181.263L84.6402 181.14L84.2174 181.013L83.7943 180.883L83.3707 180.75L82.9468 180.613L82.5225 180.473L82.0979 180.33L81.6729 180.183L81.2477 180.033L80.8221 179.88L80.3962 179.723L79.97 179.564L79.5436 179.401L79.117 179.234L78.6901 179.065L78.2629 178.892L77.8356 178.716L77.408 178.537L76.9803 178.355L76.5524 178.169L76.1243 177.98L75.6961 177.788L75.2678 177.593L74.8393 177.395L74.4107 177.194L73.9821 176.989L73.5533 176.782L73.1245 176.571L72.6957 176.357L72.2668 176.14L71.8379 175.92L71.4089 175.697L70.98 175.471L70.5511 175.242L70.1222 175.01L69.6934 174.775L69.2646 174.536L68.836 174.295L68.4074 174.051L67.9789 173.804L67.5505 173.554L67.1222 173.301L66.6941 173.045L66.2662 172.787L65.8384 172.525L65.4109 172.261L64.9835 171.993L64.5563 171.723L64.1294 171.45L63.7027 171.174L63.2763 170.895L62.8502 170.614L62.4243 170.329L61.9988 170.042L61.5735 169.753L61.1486 169.46L60.7241 169.165L60.2999 168.867L59.8761 168.566L59.4527 168.263L59.0297 167.957L58.6071 167.648L58.185 167.337L57.7633 167.023L57.3421 166.707L56.9213 166.388L56.5011 166.066L56.0814 165.742L55.6621 165.415L55.2435 165.086L54.8254 164.754L54.4078 164.42L53.9909 164.083L53.5745 163.744L53.1588 163.402L52.7437 163.058L52.3293 162.712L51.9155 162.363L51.5024 162.012L51.0899 161.658L50.6782 161.303L50.2672 160.944L49.857 160.584L49.4475 160.221L49.0388 159.856L48.6308 159.489L48.2237 159.119L47.8173 158.747L47.4118 158.374L47.0072 157.997L46.6034 157.619L46.2004 157.239L45.7984 156.856L45.3973 156.471L44.9971 156.085L44.5978 155.696L44.1995 155.305L43.8021 154.912L43.4057 154.517L43.0104 154.12L42.616 153.721L42.2227 153.32L41.8304 152.917L41.4392 152.513L41.049 152.106L40.6599 151.697L40.272 151.287L39.8851 150.875L39.4994 150.46L39.1149 150.044L38.7315 149.627L38.3493 149.207L37.9682 148.786L37.5884 148.363L37.2099 147.938L36.8325 147.512L36.4565 147.084L36.0817 146.654L35.7081 146.223L35.3359 145.79L34.965 145.355L34.5955 144.919L34.2273 144.481L33.8604 144.042L33.495 143.601L33.1309 143.159L32.7682 142.715L32.407 142.27L32.0472 141.823L31.6889 141.375L31.332 140.925L30.9766 140.474L30.6227 140.022L30.2703 139.568L29.9195 139.113L29.5702 138.657L29.2225 138.2L28.8763 137.741L28.5317 137.281L28.1888 136.819L27.8474 136.357L27.5077 135.893L27.1696 135.428L26.8332 134.962L26.4985 134.495L26.1655 134.027L25.8342 133.558L25.5046 133.087L25.1767 132.616L24.8506 132.144L24.5262 131.67L24.2037 131.196L23.8829 130.72L23.564 130.244L23.2468 129.767L22.9315 129.289L22.6181 128.81L22.3065 128.33L21.9968 127.849L21.689 127.368L21.3831 126.885L21.0792 126.402L20.7771 125.918L20.4771 125.434L20.179 124.949L19.8828 124.463L19.5887 123.976L19.2966 123.489L19.0065 123.001L18.7184 122.512L18.4324 122.023L18.1484 121.533L17.8665 121.043L17.5867 120.552L17.309 120.06L17.0335 119.569L16.76 119.076L16.4887 118.584L16.2196 118.09L15.9526 117.597L15.6878 117.103L15.4252 116.608L15.1648 116.114L14.9067 115.618L14.6508 115.123L14.3971 114.627L14.1457 114.131L13.8965 113.635L13.6497 113.139L13.4051 112.642L13.1629 112.145L12.923 111.648L12.6854 111.151L12.4501 110.654L12.2173 110.156L11.9868 109.659L11.7587 109.161L11.533 108.664L11.3097 108.166L11.0888 107.668L10.8703 107.171L10.6543 106.673L10.4408 106.175L10.2297 105.678L10.0212 105.181L9.81506 104.683L9.61147 104.186L9.4104 103.689L9.21185 103.192L9.01585 102.695L8.82238 102.199L8.63149 101.702L8.44315 101.206L8.25741 100.71L8.07426 100.215L7.89371 99.7197L7.71578 99.2248L7.54048 98.7302L7.3678 98.236L7.19778 97.7421L7.0304 97.2486L6.86571 96.7556L6.70368 96.2629L6.54434 95.7708L6.3877 95.279L6.23377 94.7878L6.08255 94.297L5.93406 93.8068L5.78831 93.3172L5.6453 92.828L5.50505 92.3395L5.36756 91.8516L5.23285 91.3642L5.10091 90.8775L4.97177 90.3914L4.84543 89.9061L4.7219 89.4213L4.6012 88.9373L4.48331 88.4541L4.36826 87.9715L4.25605 87.4897L4.14671 87.0087L4.04022 86.5285L3.93659 86.049L3.83585 85.5704L3.73799 85.0927L3.64302 84.6158L3.55097 84.1398L3.4618 83.6646L3.37556 83.1904L3.29225 82.7171L3.21187 82.2448L3.13441 81.7734L3.05991 81.303L2.98836 80.8336L2.91977 80.3652L2.85414 79.8978L2.79149 79.4315L2.73181 78.9662L2.67512 78.502L2.62143 78.0389L2.57072 77.5769L2.52302 77.1161L2.47834 76.6564L2.43667 76.1978L2.39802 75.7404L2.3624 75.2842L2.32982 74.8292L2.30027 74.3754L2.27376 73.9228L2.25031 73.4716L2.2299 73.0215L2.21256 72.5728L2.19829 72.1253L2.18708 71.6792L2.17894 71.2344L2.17388 70.7909L2.17191 70.3488L2.17301 69.908L2.17721 69.4686L2.1845 69.0307L2.1949 68.5941L2.20839 68.159L2.22499 67.7253L2.2447 67.2931L2.26753 66.8623L2.29346 66.4331L2.32252 66.0053L2.3547 65.579L2.39 65.1543L2.42843 64.7311L2.46999 64.3095L2.51469 63.8894L2.56251 63.4709L2.61348 63.054L2.66758 62.6387L2.72482 62.2251L2.78521 61.813L2.84875 61.4027L2.91543 60.9939L2.98526 60.5869L3.05823 60.1815L3.13436 59.7778L3.21364 59.3758L3.29607 58.9756L3.38165 58.5771L3.4704 58.1803L3.56229 57.7853L3.65733 57.3921L3.75554 57.0006L3.85689 56.6109L3.9614 56.2231L4.06906 55.837L4.17989 55.4528L4.29386 55.0704L4.41098 54.6899L4.53127 54.3113L4.6547 53.9345L4.78128 53.5596L4.91102 53.1866L5.0439 52.8155L5.17994 52.4463L5.31911 52.079L5.46143 51.7137L5.60688 51.3503L5.75549 50.9889L5.90723 50.6295L6.0621 50.272L6.22011 49.9165L6.38125 49.563L6.54553 49.2116L6.71292 48.8621L6.88344 48.5147L7.05707 48.1693L7.23383 47.826L7.4137 47.4847L7.59668 47.1454L7.78276 46.8083L7.97195 46.4732L8.16424 46.1403L8.35961 45.8094L8.55809 45.4806L8.75964 45.154L8.96428 44.8295L9.17199 44.5071L9.38278 44.1868L9.59664 43.8687L9.81355 43.5528L10.0335 43.239L10.2566 42.9275L10.4826 42.6181L10.7117 42.3108L10.9439 42.0058L11.1791 41.703L11.4173 41.4024L11.6585 41.104L11.9027 40.8079L12.15 40.514L12.4002 40.2223L12.6534 39.9329L12.9096 39.6457L13.1688 39.3608L13.431 39.0782L13.6961 38.7978L13.9642 38.5197L14.2352 38.2439L14.5091 37.9704L14.786 37.6992L15.0658 37.4303L15.3486 37.1637L15.6342 36.8995L15.9228 36.6375L16.2142 36.3779L16.5085 36.1206L16.8057 35.8657L17.1058 35.6131L17.4087 35.3628L17.7144 35.1149L18.023 34.8694L18.3345 34.6262L18.6487 34.3854L18.9658 34.147L19.2856 33.9109L19.6082 33.6772L19.9336 33.4459L20.2618 33.2171L20.5928 32.9906L20.9264 32.7665L21.2629 32.5448L21.602 32.3255L21.9439 32.1086L22.2884 31.8941L22.6357 31.6821L22.9856 31.4725L23.3382 31.2653L23.6935 31.0605L24.0514 30.8582L24.4119 30.6583L24.7751 30.4608L25.1408 30.2658L25.5092 30.0732L25.8801 29.8831L26.2537 29.6954L26.6297 29.5102L27.0084 29.3274L27.3895 29.1471L27.7732 28.9692L28.1594 28.7938L28.5481 28.6209L28.9392 28.4504L29.3328 28.2824L29.7289 28.1168L30.1274 27.9537L30.5283 27.7931L30.9317 27.635L31.3374 27.4794L31.7455 27.3262L32.156 27.1755L32.5689 27.0273L32.984 26.8815L33.4015 26.7382L33.8213 26.5974L34.2434 26.4591L34.6678 26.3233L35.0944 26.19L35.5233 26.0591L35.9544 25.9308L36.3878 25.8049L36.8233 25.6815L37.261 25.5605L37.7009 25.4421L38.1429 25.3262L38.587 25.2127L39.0333 25.1017L39.4817 24.9932L39.9321 24.8872L40.3847 24.7837L40.8392 24.6826L41.2959 24.584L41.7545 24.488L42.2151 24.3943L42.6777 24.3032L43.1423 24.2146L43.6088 24.1284L44.0773 24.0447L44.5476 23.9635L45.0199 23.8848L45.494 23.8085L45.97 23.7347L46.4478 23.6634L46.9275 23.5945L47.4089 23.5281L47.8921 23.4642L48.3771 23.4027L48.8639 23.3437L49.3524 23.2871L49.8425 23.2331L50.3344 23.1814L50.8279 23.1322L51.3231 23.0855L51.82 23.0412L52.3184 22.9994L52.8184 22.96L53.32 22.923L53.8232 22.8885L54.3279 22.8564L54.8341 22.8268L55.3417 22.7996L55.8509 22.7748L56.3615 22.7524L56.8736 22.7325L57.3871 22.715L57.9019 22.6998L58.4182 22.6871L58.9358 22.6768L59.4547 22.6689L59.9749 22.6635L60.4964 22.6604L61.0192 22.6597L61.5433 22.6613L62.0685 22.6654L62.595 22.6719L63.1227 22.6807L63.6515 22.6919L64.1814 22.7055L64.7125 22.7214L65.2447 22.7398L65.7779 22.7604L66.3122 22.7834L66.8476 22.8088L67.3839 22.8365L67.9213 22.8666L68.4596 22.899L68.9989 22.9337L69.539 22.9707L70.0801 23.0101L70.6221 23.0518L71.1649 23.0958L71.7086 23.1421L72.253 23.1907L72.7983 23.2416L73.3443 23.2948L73.8911 23.3503L74.4386 23.4081L74.9868 23.4681L75.5357 23.5304L76.0852 23.595L76.6354 23.6619L77.1862 23.731L77.7375 23.8023L78.2894 23.8759L78.8419 23.9517L79.3949 24.0298L79.9483 24.1101L80.5023 24.1926L81.0567 24.2773L81.6115 24.3643L82.1667 24.4534L82.7223 24.5448L83.2782 24.6383L83.8345 24.734L84.3911 24.8319L84.948 24.932L85.5051 25.0342L86.0625 25.1386L86.62 25.2452L87.1778 25.3539L87.7357 25.4647L88.2938 25.5777L88.852 25.6928L89.4103 25.81L89.9687 25.9294L90.5271 26.0508L91.0855 26.1744L91.644 26.3L92.2024 26.4278L92.7607 26.5576L93.319 26.6895L93.8772 26.8235L94.4353 26.9595L94.9933 27.0976L95.551 27.2378L96.1086 27.3799L96.666 27.5241L97.2231 27.6704L97.78 27.8186L98.3365 27.9689L98.8928 28.1212L99.4488 28.2755L100.004 28.4317L100.56 28.59L101.114 28.7502L101.669 28.9124L102.223 29.0765L102.776 29.2426L103.329 29.4107L103.881 29.5807L104.433 29.7526L104.984 29.9264L105.535 30.1022L106.085 30.2799L106.635 30.4594L107.183 30.6409L107.731 30.8242L108.279 31.0094L108.825 31.1965L109.371 31.3855L109.916 31.5763L110.46 31.7689L111.004 31.9634L111.546 32.1597L112.088 32.3579L112.628 32.5578L113.168 32.7596L113.707 32.9631L114.245 33.1685L114.782 33.3756L115.318 33.5845L115.852 33.7952L116.386 34.0076L116.919 34.2217L117.45 34.4376L117.981 34.6553L118.51 34.8746L119.038 35.0957L119.564 35.3185L120.09 35.543L120.614 35.7691L121.137 35.997L121.659 36.2265L122.179 36.4577L122.698 36.6905L123.216 36.925L123.732 37.1611L124.247 37.3989L124.76 37.6383L125.272 37.8793L125.783 38.1219L126.291 38.3661L126.799 38.6118L127.305 38.8592L127.809 39.1081L128.311 39.3586L128.812 39.6107L129.312 39.8643L129.809 40.1194L130.305 40.376L130.8 40.6342L131.292 40.8939L131.783 41.155L132.272 41.4177L132.759 41.6818L133.244 41.9474L133.728 42.2145L134.209 42.4831L134.689 42.753L135.167 43.0245L135.643 43.2973L136.117 43.5716L136.589 43.8473L137.059 44.1243L137.527 44.4028L137.993 44.6827L138.456 44.9639L138.918 45.2465L139.378 45.5304L139.835 45.8157L140.291 46.1024L140.744 46.3903L141.195 46.6796L141.644 46.9702L142.09 47.2621L142.535 47.5553L142.977 47.8498L143.417 48.1455L143.854 48.4425L144.289 48.7408L144.722 49.0403L145.153 49.3411L145.581 49.6431L146.007 49.9463L146.43 50.2507L146.851 50.5563L147.269 50.8631L147.685 51.1711L148.098 51.4802L148.509 51.7906L148.918 52.1021L149.323 52.4147L149.727 52.7284L150.127 53.0433L150.525 53.3593L150.921 53.6765L151.313 53.9947L151.703 54.314L152.091 54.6343L152.476 54.9558L152.857 55.2783L153.237 55.6019L153.613 55.9265L153.987 56.2521L154.358 56.5788L154.726 56.9065L155.091 57.2352L155.454 57.5649L155.813 57.8956L156.17 58.2272L156.524 58.5598L156.875 58.8934L157.223 59.2279L157.568 59.5634L157.91 59.8998L158.25 60.2371L158.586 60.5754L158.919 60.9145L159.249 61.2546L159.576 61.5955L159.901 61.9373L160.222 62.2799L160.54 62.6234L160.855 62.9678L161.167 63.313L161.475 63.659L161.781 64.0058L162.083 64.3535L162.383 64.7019L162.679 65.0512L162.972 65.4012L163.261 65.752L163.548 66.1035L163.831 66.4558L164.111 66.8089L164.388 67.1626L164.662 67.5172L164.932 67.8724L165.199 68.2283L165.463 68.5849L165.723 68.9422L165.98 69.3002L166.234 69.6588L166.484 70.0181L166.731 70.3781L166.975 70.7387L167.215 71.0999L167.452 71.4618L167.685 71.8242L167.916 72.1873L168.142 72.5509L168.365 72.9151L168.585 73.2799L168.801 73.6453L169.014 74.0112L169.224 74.3777L169.429 74.7447L169.632 75.1122L169.831 75.4802L170.026 75.8488L170.218 76.2178L170.406 76.5874L170.591 76.9574L170.772 77.3278L170.95 77.6988L171.124 78.0702L171.294 78.442L171.461 78.8142L171.625 79.1869L171.784 79.56L171.941 79.9335L172.093 80.3074L172.242 80.6817L172.387 81.0563L172.529 81.4313L172.667 81.8067L172.801 82.1824L172.932 82.5584L173.059 82.9348L173.183 83.3115L173.302 83.6885L173.418 84.0658L173.531 84.4434L173.639 84.8213L173.744 85.1994L173.846 85.5778L173.943 85.9564L174.037 86.3353L174.127 86.7145L174.214 87.0938L174.297 87.4734L174.376 87.8531L174.451 88.2331L174.523 88.6132L174.591 88.9936L174.655 89.3741L174.715 89.7547L174.772 90.1355L174.825 90.5164L174.874 90.8975L174.919 91.2786L174.961 91.6599L174.999 92.0413L175.033 92.4228L175.064 92.8044L175.09 93.186L175.113 93.5677L175.132 93.9494L175.148 94.3312L175.159 94.713L175.167 95.0949L175.171 95.4767L175.172 95.8586L175.168 96.2405L175.161 96.6223L175.15 97.0041L175.135 97.3859L175.117 97.7677L175.095 98.1494L175.069 98.531L175.039 98.9126L175.006 99.2941L174.968 99.6755L174.927 100.057L174.883 100.438L174.834 100.819L174.782 101.2L174.726 101.581L174.666 101.962L174.603 102.342L174.536 102.722L174.465 103.103L174.39 103.483L174.312 103.862L174.23 104.242L174.144 104.621L174.054 105.001L173.961 105.379L173.864 105.758L173.763 106.137L173.659 106.515L173.551 106.893L173.439 107.27L173.324 107.648L173.205 108.025L173.082 108.402L172.956 108.778L172.826 109.154L172.692 109.53L172.555 109.905L172.414 110.28L172.269 110.655L172.121 111.029L171.969 111.403L171.814 111.777L171.655 112.15L171.492 112.523L171.326 112.895L171.156 113.267L170.982 113.639L170.805 114.01L170.625 114.38L170.441 114.75L170.253 115.12L170.062 115.489L169.867 115.858L169.669 116.226L169.467 116.593L169.262 116.96L169.053 117.327L168.841 117.693L168.625 118.059L168.406 118.423L168.184 118.788L167.958 119.152L167.728 119.515L167.496 119.877L167.259 120.239L167.02 120.601L166.777 120.961L166.53 121.321L166.28 121.681L166.027 122.04L165.771 122.398L165.511 122.755L165.248 123.112L164.982 123.468L164.712 123.823L164.439 124.178L164.163 124.532L163.883 124.885L163.601 125.237L163.315 125.589L163.026 125.94L162.733 126.29L162.438 126.64L162.139 126.988L161.837 127.336L161.532 127.683L161.224 128.029L160.913 128.374L160.598 128.719L160.281 129.063L159.96 129.405L159.637 129.747L159.31 130.088L158.98 130.429L158.648 130.768L158.312 131.106L157.973 131.444L157.632 131.78L157.287 132.116L156.94 132.451L156.589 132.785L156.236 133.117L155.88 133.449L155.521 133.78L155.159 134.11L154.794 134.439L154.426 134.767L154.056 135.093L153.683 135.419L153.307 135.744L152.928 136.068L152.546 136.391L152.162 136.712L151.775 137.033L151.386 137.352L150.994 137.671L150.599 137.988L150.201 138.304L149.801 138.619L149.398 138.933L148.993 139.246L148.585 139.558L148.175 139.868L147.762 140.178L147.346 140.486L146.928 140.793L146.508 141.099L146.085 141.403L145.66 141.707L145.232 142.009L144.802 142.31L144.37 142.61L143.935 142.908L143.498 143.206L143.059 143.502L142.617 143.796L142.173 144.09L141.727 144.382L141.278 144.673L140.828 144.962L140.375 145.25L139.92 145.537L139.463 145.823L139.003 146.107L138.542 146.39L138.079 146.671L137.613 146.952L137.146 147.23L136.676 147.508L136.204 147.784L135.731 148.058L135.255 148.331L134.778 148.603L134.298 148.873L133.817 149.142L133.334 149.409L132.849 149.675L132.362 149.94L131.874 150.203L131.383 150.464L130.891 150.724L130.397 150.982L129.901 151.239L129.404 151.495L128.905 151.749L128.404 152.001L127.902 152.252L127.398 152.501L126.893 152.749L126.386 152.995L125.877 153.239L125.367 153.482L124.855 153.723L124.342 153.963L123.828 154.201L123.312 154.437L122.794 154.672L122.276 154.905L121.755 155.137L121.234 155.367L120.711 155.595L120.187 155.821L119.662 156.046L119.135 156.269L118.608 156.491L118.079 156.71L117.549 156.928L117.017 157.144L116.485 157.359L115.951 157.572L115.417 157.783L114.881 157.992L114.345 158.199L113.807 158.405L113.268 158.609L112.729 158.811L112.188 159.011L111.647 159.21L111.104 159.406L110.561 159.601L110.017 159.794L109.472 159.985L108.926 160.175L108.38 160.362L107.833 160.548L107.285 160.731L106.736 160.913L106.187 161.093L105.637 161.271L105.086 161.447L104.535 161.621L103.984 161.794L103.431 161.964L102.878 162.132L102.325 162.299L101.771 162.463L101.217 162.626L100.662 162.787L100.107 162.945L99.5517 163.102L98.9959 163.256L98.4396 163.409L97.8831 163.56L97.3263 163.708L96.7692 163.855L96.2119 164L95.6544 164.142L95.0966 164.283L94.5387 164.421L93.9807 164.558L93.4225 164.692L92.8642 164.824L92.3058 164.954L91.7474 165.083L91.189 165.209L90.6306 165.333L90.0721 165.454L89.5138 165.574L88.9555 165.692L88.3973 165.807L87.8391 165.921L87.2812 166.032L86.7234 166.141L86.1658 166.248L85.6084 166.353L85.0512 166.455L84.4943 166.556L83.9376 166.654L83.3813 166.75L82.8253 166.844L82.2696 166.936L81.7143 167.025L81.1594 167.113L80.605 167.198L80.0509 167.281L79.4974 167.362L78.9443 167.44L78.3918 167.516L77.8397 167.59L77.2883 167.662L76.7374 167.732L76.1871 167.799L75.6375 167.864L75.0885 167.927L74.5401 167.987L73.9925 168.045L73.4456 168.101L72.8994 168.155L72.354 168.206L71.8094 168.255L71.2656 168.302L70.7226 168.346L70.1805 168.388L69.6392 168.428L69.0989 168.466L68.5595 168.501L68.021 168.534L67.4834 168.564L66.9469 168.592L66.4114 168.618L65.8769 168.642L65.3434 168.663L64.811 168.681L64.2798 168.698L63.7496 168.712L63.2206 168.723L62.6927 168.733L62.166 168.74L61.6405 168.744L61.1162 168.746L60.5932 168.746L60.0715 168.743L59.551 168.738L59.0318 168.731L58.514 168.721L57.9975 168.709L57.4824 168.694L56.9686 168.677L56.4563 168.658L55.9454 168.636L55.436 168.611L54.928 168.585L54.4216 168.555L53.9166 168.524L53.4131 168.49L52.9112 168.453L52.4109 168.414L51.9122 168.373L51.4151 168.329L50.9196 168.283L50.4257 168.234L49.9335 168.183L49.4431 168.129L48.9543 168.073L48.4672 168.015L47.9819 167.954L47.4983 167.89L47.0165 167.824L46.5366 167.756L46.0584 167.685L45.5821 167.611L45.1076 167.536L44.635 167.457L44.1643 167.377L43.6955 167.293L43.2286 167.208L42.7637 167.119L42.3007 167.029L41.8397 166.936L41.3807 166.84L40.9237 166.742L40.4688 166.641L40.0158 166.538L39.565 166.433L39.1162 166.325L38.6696 166.214L38.225 166.101L37.7826 165.986L37.3423 165.868L36.9042 165.747L36.4683 165.624L36.0346 165.499L35.603 165.371L35.1737 165.241L34.7467 165.108L34.3219 164.972L33.8994 164.834L33.4791 164.694L33.0612 164.551L32.6456 164.406L32.2323 164.258L31.8214 164.108L31.4129 163.955L31.0067 163.8L30.6029 163.642L30.2015 163.482L29.8026 163.32L29.406 163.155L29.012 162.987L28.6203 162.817L28.2312 162.645L27.8446 162.47L27.4604 162.292L27.0788 162.112L26.6997 161.93L26.3232 161.745L25.9492 161.558L25.5778 161.368L25.2089 161.176L24.8427 160.982L24.479 160.785L24.118 160.585L23.7596 160.383L23.4039 160.179L23.0508 159.972L22.7003 159.763L22.3526 159.551L22.0075 159.337L21.6652 159.121L21.3255 158.902L20.9886 158.681L20.6544 158.457L20.3229 158.231L19.9942 158.003L19.6683 157.772L19.3452 157.539L19.0248 157.303L18.7072 157.065L18.3925 156.825L18.0805 156.582L17.7714 156.337L17.4651 156.089L17.1617 155.84L16.8611 155.587L16.5634 155.333L16.2685 155.076L15.9766 154.817L15.6875 154.555L15.4013 154.292L15.118 154.025L14.8377 153.757L14.5602 153.486L14.2857 153.213L14.0141 152.938L13.7455 152.66L13.4799 152.38L13.2172 152.098L12.9574 151.813L12.7007 151.527L12.4469 151.238L12.1961 150.946L11.9483 150.653L11.7035 150.357L11.4617 150.059L11.223 149.759L10.9872 149.457L10.7545 149.152L10.5249 148.845L10.2982 148.536L10.0746 148.225L9.85409 147.912L9.6366 147.596L9.42218 147.278L9.21082 146.959L9.00254 146.637L8.79733 146.312L8.5952 145.986L8.39616 145.658L8.20021 145.327L8.00735 144.995L7.81759 144.66L7.63093 144.323L7.44737 143.984L7.26693 143.644L7.0896 143.301L6.91538 142.956L6.74428 142.609L6.57631 142.259L6.41146 141.908L6.24974 141.555L6.09115 141.2L5.9357 140.843L5.78337 140.484L5.63419 140.123L5.48815 139.76L5.34525 139.395L5.20548 139.028L5.06887 138.659L4.9354 138.288L4.80509 137.916L4.67792 137.541L4.55391 137.165L4.43303 136.786L4.31533 136.406L4.20076 136.024L4.08936 135.64L3.98111 135.255L3.87602 134.867L3.77407 134.478L3.67529 134.087L3.57966 133.694L3.48718 133.299L3.39786 132.903L3.3117 132.504L3.22867 132.105L3.14882 131.703L3.0721 131.3L2.99854 130.894L2.92814 130.488L2.86087 130.079L2.79675 129.669L2.73578 129.258L2.67795 128.844L2.62326 128.429L2.57172 128.013L2.52331 127.594L2.47803 127.175L2.43589 126.753L2.39688 126.33L2.361 125.906L2.32824 125.48L2.29861 125.052L2.2721 124.623L2.2487 124.193L2.22841 123.761L2.21124 123.328L2.19717 122.893L2.1862 122.456L2.17833 122.019L2.17356 121.58L2.17188 121.139L2.17329 120.697L2.17777 120.254L2.18533 119.809L2.19598 119.364L2.20968 118.916L2.22646 118.468L2.24629 118.018L2.26918 117.567L2.29513 117.115L2.32411 116.661L2.35614 116.206L2.39119 115.75L2.42928 115.293L2.47039 114.835L2.51451 114.375L2.56166 113.915L2.6118 113.453L2.66494 112.99L2.72107 112.526L2.7802 112.061L2.8423 111.595L2.90738 111.128L2.97543 110.659L3.04643 110.19L3.12038 109.72L3.19728 109.249L3.27713 108.777L3.35991 108.303L3.44561 107.829L3.53422 107.354L3.62574 106.879L3.72018 106.402L3.8175 105.924L3.91771 105.446L4.0208 104.967L4.12675 104.486L4.23558 104.006L4.34725 103.524L4.46178 103.042L4.57913 102.558L4.69932 102.074L4.82233 101.59L4.94815 101.105L5.07677 100.619L5.20819 100.132L5.34238 99.6449L5.47936 99.1571L5.6191 98.6686L5.7616 98.1796L5.90685 97.69L6.05483 97.1999L6.20554 96.7093L6.35897 96.2181L6.51511 95.7265L6.67395 95.2344L6.83548 94.7419L6.99969 94.2489L7.16656 93.7555L7.33609 93.2617L7.50828 92.7675L7.68309 92.273L7.86054 91.7781L8.04061 91.2829L8.22328 90.7875L8.40855 90.2917L8.59639 89.7957L8.78681 89.2994L8.9798 88.8029L9.17534 88.3062L9.37341 87.8093L9.57403 87.3123L9.77714 86.8151L9.98277 86.3178L10.1909 85.8203L10.4015 85.3228L10.6146 84.8252L10.8301 84.3276L11.0481 83.83L11.2686 83.3323L11.4914 82.8346L11.7167 82.337L11.9443 81.8394L12.1744 81.3419L12.4068 80.8444L12.6416 80.3471L12.8788 79.8499L13.1182 79.3529L13.3601 78.856L13.6042 78.3593L13.8506 77.8629L14.0993 77.3666L14.3503 76.8706L14.6036 76.3749L14.8591 75.8794L15.1168 75.3843L15.3768 74.8895L15.639 74.395L15.9034 73.9009L16.1699 73.4072L16.4387 72.9139L16.7096 72.4211L16.9826 71.9287L17.2578 71.4367L17.5351 70.9453L17.8145 70.4543L18.096 69.9639L18.3796 69.474L18.6652 68.9847L18.9529 68.496L19.2426 68.008L19.5344 67.5205L19.8282 67.0337L20.1239 66.5476L20.4217 66.0621L20.7214 65.5774L21.0231 65.0934L21.3267 64.6102L21.6322 64.1277L21.9396 63.646L22.249 63.1652L22.5602 62.6852L22.8733 62.206L23.1883 61.7277L23.5051 61.2503L23.8237 60.7739L24.1441 60.2983L24.4663 59.8237L24.7904 59.3501L25.1161 58.8775L25.4437 58.4059L25.773 57.9354L26.104 57.4659L26.4367 56.9975L26.7711 56.5302L27.1072 56.064L27.4449 55.599L27.7843 55.1351L28.1254 54.6724L28.4681 54.2109L28.8123 53.7506L29.1582 53.2915L29.5056 52.8337L29.8547 52.3772L30.2052 51.922L30.5573 51.4681L30.9109 51.0156L31.266 50.5644L31.6226 50.1146L31.9807 49.6662L32.3402 49.2192L32.7012 48.7737L33.0636 48.3296L33.4274 47.887L33.7926 47.4459L34.1592 47.0063L34.5272 46.5683L34.8965 46.1318L35.2671 45.6969L35.6391 45.2636L36.0124 44.8319L36.3869 44.4018L36.7627 43.9734L37.1399 43.5467L37.5182 43.1217L37.8978 42.6984L38.2786 42.2768L38.6606 41.8569L39.0437 41.4389L39.4281 41.0226L39.8136 40.6082L40.2002 40.1955L40.588 39.7847L40.9768 39.3758L41.3668 38.9688L41.7578 38.5637L42.1499 38.1605L42.543 37.7592L42.9372 37.3599L43.3324 36.9626L43.7286 36.5672L44.1258 36.1739L44.5239 35.7826L44.923 35.3934L45.323 35.0062L45.724 34.6212L46.1259 34.2382L46.5286 33.8574L46.9323 33.4787L47.3368 33.1021L47.7421 32.7278L48.1483 32.3556L48.5553 31.9856L48.9631 31.6179L49.3717 31.2525L49.781 30.8893L50.1912 30.5283L50.602 30.1697L51.0136 29.8134L51.4259 29.4594L51.8389 29.1078L52.2525 28.7585L52.6669 28.4117L53.0818 28.0672L53.4975 27.7252L53.9137 27.3856L54.3305 27.0484L54.748 26.7137L55.166 26.3815L55.5845 26.0518L56.0036 25.7246L56.4233 25.4L56.8434 25.0779L57.2641 24.7583L57.6852 24.4414L58.1068 24.127L58.5289 23.8153L58.9514 23.5061L59.3743 23.1997L59.7976 22.8958L60.2214 22.5947L60.6455 22.2962L61.07 22.0005L61.4948 21.7074L61.9199 21.4171L62.3454 21.1296L62.7712 20.8448L63.1973 20.5628L63.6237 20.2836L64.0503 20.0071L64.4772 19.7336L64.9043 19.4628L65.3316 19.1949L65.7592 18.9298L66.1869 18.6676L66.6148 18.4084L67.0429 18.152L67.4711 17.8985L67.8995 17.648L68.328 17.4004L68.7565 17.1557L69.1852 16.9141L69.6139 16.6754L70.0428 16.4397L70.4716 16.207L70.9005 15.9773L71.3294 15.7507L71.7584 15.5271L72.1873 15.3066L72.6162 15.0891L73.0451 14.8747L73.4739 14.6634L73.9026 14.4552L74.3313 14.2501L74.7599 14.0481L75.1884 13.8493L75.6167 13.6536L76.045 13.4611L76.4731 13.2718L76.901 13.0856L77.3288 12.9026L77.7564 12.7229L78.1838 12.5463L78.6109 12.373L79.0379 12.2028L79.4646 12.036L79.8911 11.8723L80.3173 11.712L80.7432 11.5549L81.1688 11.4011L81.5942 11.2506L82.0192 11.1033L82.4438 10.9594L82.8682 10.8188L83.2922 10.6815L83.7158 10.5476L84.139 10.417L84.5619 10.2898L84.9843 10.1659L85.4064 10.0453L85.8279 9.92816L86.2491 9.81438L86.6698 9.70398L87.09 9.59699L87.5098 9.4934L87.929 9.39321L88.3478 9.29644L88.766 9.2031L89.1837 9.11318L89.6009 9.0267L90.0175 8.94366L90.4335 8.86407L90.849 8.78794L91.2638 8.71526L91.6781 8.64606L92.0918 8.58032L92.5048 8.51806L92.9172 8.45928L93.3289 8.40399L93.74 8.35219L94.1504 8.30389L94.5601 8.25909L94.9692 8.2178L95.3775 8.18001L95.7851 8.14575L96.192 8.115L96.5981 8.08778L97.0035 8.06407L97.4081 8.0439L97.8119 8.02726L98.215 8.01416L98.6173 8.00459L99.0187 7.99857L99.4193 7.99609L99.8192 7.99717L100.218 8.00179L100.616 8.00996L101.013 8.0217L101.41 8.03697L101.805 8.05582L102.2 8.07822L102.594 8.10418L102.986 8.13371L103.378 8.1668L103.769 8.20345L104.159 8.24367L104.548 8.28746L104.936 8.33481L105.323 8.38572L105.709 8.44021L106.095 8.49826L106.479 8.55988L106.862 8.62507L107.244 8.69382L107.625 8.76613L108.005 8.84202L108.384 8.92146L108.762 9.00446L109.138 9.09103L109.514 9.18116L109.889 9.27484L110.262 9.37209L110.634 9.47288L111.006 9.57723L111.376 9.68513L111.745 9.79658L112.113 9.91157L112.479 10.0301L112.845 10.1522L113.209 10.2778L113.572 10.4069L113.934 10.5396L114.295 10.6758L114.654 10.8155L115.013 10.9587L115.37 11.1055L115.726 11.2557L116.08 11.4095L116.434 11.5668L116.786 11.7275L117.137 11.8918L117.486 12.0595L117.834 12.2307L118.181 12.4054L118.527 12.5836L118.871 12.7652L119.214 12.9503L119.556 13.1388L119.896 13.3308L120.235 13.5262L120.573 13.7251L120.909 13.9274L121.244 14.1331L121.577 14.3422L121.909 14.5547L122.24 14.7706L122.57 14.9899L122.897 15.2126L123.224 15.4386L123.549 15.6681L123.873 15.9008L124.195 16.137L124.516 16.3765L124.835 16.6193L125.153 16.8654L125.469 17.1149L125.784 17.3676L126.098 17.6237L126.41 17.883L126.72 18.1456L127.029 18.4115L127.337 18.6807L127.642 18.9531L127.947 19.2287L128.25 19.5075L128.551 19.7896L128.851 20.0749L129.149 20.3634L129.446 20.655L129.741 20.9499L130.035 21.2479L130.327 21.549L130.617 21.8533L130.906 22.1607L131.193 22.4713L131.479 22.7849L131.763 23.1016L132.045 23.4214L132.326 23.7443L132.606 24.0703L132.883 24.3992L133.159 24.7312L133.433 25.0662L133.706 25.4043L133.977 25.7453L134.246 26.0892L134.514 26.4362L134.78 26.7861L135.045 27.1389L135.307 27.4946L135.568 27.8533L135.828 28.2148L136.085 28.5792L136.341 28.9465L136.595 29.3166L136.848 29.6896L137.099 30.0654L137.348 30.4439L137.595 30.8253L137.841 31.2094L138.085 31.5963L138.327 31.986L138.567 32.3783L138.806 32.7734L139.043 33.1711L139.278 33.5716L139.511 33.9747L139.743 34.3804L139.973 34.7888L140.201 35.1997L140.427 35.6133L140.652 36.0294L140.874 36.4481L141.095 36.8693L141.314 37.2931L141.532 37.7194L141.747 38.1481L141.961 38.5793L142.173 39.013L142.383 39.4491L142.591 39.8877L142.798 40.3286L143.002 40.7719L143.205 41.2176L143.406 41.6656L143.605 42.1159L143.802 42.5685L143.998 43.0235L144.191 43.4806L144.383 43.9401L144.573 44.4018L144.761 44.8656L144.947 45.3317L145.131 45.7999L145.313 46.2703L145.494 46.7428L145.672 47.2175L145.849 47.6942L146.024 48.173L146.197 48.6538L146.368 49.1367L146.537 49.6216L146.704 50.1084L146.87 50.5973L147.033 51.0881L147.195 51.5808L147.354 52.0754L147.512 52.5719L147.668 53.0702L147.822 53.5705L147.974 54.0725L148.124 54.5763L148.272 55.0819L148.418 55.5893L148.562 56.0984L148.704 56.6092L148.845 57.1217L148.983 57.6359L149.12 58.1517L149.254 58.6691L149.387 59.1882L149.517 59.7088L149.646 60.231L149.773 60.7547L149.898 61.2799L150.02 61.8067L150.141 62.3349L150.26 62.8645L150.377 63.3956L150.492 63.928L150.605 64.4619L150.716 64.9971L150.825 65.5336L150.932 66.0714L151.037 66.6106L151.14 67.1509L151.241 67.6926L151.34 68.2354L151.438 68.7794L151.533 69.3246L151.626 69.871L151.717 70.4184L151.806 70.967L151.894 71.5166L151.979 72.0673L152.062 72.619L152.143 73.1717L152.222 73.7254L152.3 74.2801L152.375 74.8357L152.448 75.3921L152.519 75.9495L152.588 76.5077L152.656 77.0668L152.721 77.6267L152.784 78.1873L152.845 78.7487L152.904 79.3109L152.962 79.8737L153.017 80.4373L153.07 81.0015L153.121 81.5663L153.17 82.1318L153.217 82.6979L153.262 83.2645L153.305 83.8317L153.346 84.3993L153.385 84.9675L153.422 85.5361L153.457 86.1052L153.49 86.6747L153.521 87.2446L153.55 87.8149L153.577 88.3855L153.602 88.9564L153.625 89.5276L153.646 90.0991L153.664 90.6708L153.681 91.2428L153.696 91.8149L153.709 92.3872L153.719 92.9597L153.728 93.5323L153.735 94.1049L153.739 94.6776L153.742 95.2504L153.743 95.8232L153.741 96.396L153.738 96.9688L153.732 97.5415L153.725 98.1141L153.715 98.6866L153.704 99.259L153.69 99.8313L153.674 100.403L153.657 100.975L153.637 101.547L153.615 102.118L153.592 102.689L153.566 103.26L153.538 103.831L153.509 104.401L153.477 104.97L153.443 105.54L153.407 106.109L153.369 106.677L153.329 107.245L153.288 107.812L153.244 108.379L153.198 108.946L153.15 109.512L153.1 110.077L153.048 110.641L152.994 111.205L152.938 111.769L152.88 112.331L152.82 112.893L152.758 113.454L152.694 114.014L152.628 114.574L152.56 115.133L152.49 115.691L152.418 116.248L152.344 116.804L152.267 117.359L152.189 117.913L152.109 118.466L152.027 119.019L151.943 119.57L151.857 120.12L151.769 120.669L151.679 121.218L151.587 121.764L151.493 122.31L151.397 122.855L151.299 123.399L151.199 123.941L151.097 124.482L150.993 125.022L150.887 125.56L150.779 126.098L150.67 126.634L150.558 127.168L150.444 127.702L150.328 128.234L150.21 128.764L150.091 129.293L149.969 129.821L149.845 130.347L149.72 130.871L149.592 131.394L149.463 131.916L149.331 132.436L149.198 132.954L149.063 133.471L148.925 133.986L148.786 134.5L148.645 135.011L148.502 135.522L148.357 136.03L148.21 136.537L148.061 137.041L147.91 137.544L147.757 138.046L147.603 138.545L147.446 139.043L147.288 139.538L147.127 140.032L146.965 140.524L146.801 141.014L146.634 141.502L146.466 141.988L146.296 142.472L146.125 142.954L145.951 143.434L145.775 143.912L145.598 144.388L145.418 144.862L145.237 145.333L145.054 145.803L144.869 146.27L144.682 146.735L144.493 147.198L144.303 147.659L144.11 148.118L143.916 148.574L143.72 149.028L143.522 149.479L143.322 149.929L143.12 150.376L142.917 150.821L142.711 151.263L142.504 151.703L142.295 152.14L142.084 152.575L141.872 153.008L141.657 153.438L141.441 153.866L141.223 154.291L141.003 154.714L140.781 155.134L140.558 155.552L140.332 155.967L140.105 156.379L139.877 156.789L139.646 157.196L139.414 157.601L139.179 158.003L138.944 158.402L138.706 158.799L138.467 159.193L138.225 159.584L137.983 159.972L137.738 160.358L137.492 160.741L137.243 161.121L136.994 161.499L136.742 161.873L136.489 162.245L136.234 162.614L135.977 162.98L135.719 163.343L135.459 163.704L135.197 164.061L134.934 164.416L134.669 164.767L134.402 165.116L134.134 165.462L133.864 165.804L133.592 166.144L133.318 166.481L133.043 166.815L132.767 167.145L132.489 167.473L132.209 167.798L131.927 168.119L131.644 168.438L131.359 168.753L131.073 169.065L130.785 169.375L130.495 169.681L130.204 169.984L129.912 170.284L129.617 170.58L129.322 170.874L129.024 171.164L128.725 171.451L128.425 171.735L128.123 172.016L127.819 172.293L127.514 172.568L127.208 172.839L126.9 173.107L126.59 173.371L126.279 173.632L125.966 173.89L125.652 174.145L125.337 174.396L125.02 174.644L124.701 174.889L124.381 175.131L124.06 175.369L123.737 175.603L123.413 175.835L123.087 176.063L122.76 176.287L122.432 176.509L122.102 176.727L121.77 176.941L121.438 177.152L121.103 177.36L120.768 177.564L120.431 177.765L120.093 177.962L119.753 178.156L119.413 178.347L119.07 178.534L118.727 178.718L118.382 178.898L118.036 179.074L117.688 179.248L117.34 179.417L116.989 179.584L116.638 179.746L116.286 179.906L115.932 180.062L115.577 180.214L115.22 180.363L114.863 180.508L114.504 180.65L114.144 180.788L113.782 180.923L113.42 181.054L113.056 181.181L112.692 181.306L112.326 181.426L111.958 181.543L111.59 181.657L111.221 181.767L110.85 181.873L110.478 181.976L110.105 182.075L109.732 182.171L109.356 182.263L108.98 182.352L108.603 182.437L108.225 182.518L107.845 182.596L107.465 182.671L107.084 182.742L106.701 182.809L106.318 182.872L105.933 182.933L105.548 182.989L105.161 183.042L104.774 183.092L104.385 183.137L103.996 183.18L103.605 183.218L103.214 183.254L102.822 183.285L102.429 183.313L102.035 183.338L101.64 183.359L101.244 183.376L100.847 183.39L100.449 183.4L100.051 183.407L99.6515 183.41L99.2514 183.409L98.8504 183.405L98.4486 183.398L98.046 183.387L97.6426 183.372L97.2384 183.354L96.8335 183.332L96.4278 183.307L96.0213 183.279L95.6141 183.246L95.2062 183.211L94.7976 183.171L94.3883 183.129L93.9783 183.082L93.5676 183.033L93.1562 182.979L92.7442 182.923L92.3316 182.862L91.9183 182.799L91.5044 182.731L91.0898 182.661L90.6747 182.587L90.259 182.509L89.8427 182.428L89.4259 182.344L89.0085 182.256L88.5906 182.164L88.1721 182.069L87.7532 181.971L87.3337 181.87L86.9138 181.765L86.4933 181.656L86.0724 181.544L85.6511 181.429L85.2293 181.311L84.8071 181.189L84.3845 181.063L83.9615 180.935L83.5381 180.803L83.1143 180.667L82.6902 180.529L82.2657 180.387L81.8409 180.241L81.4157 180.093L80.9903 179.941L80.5645 179.786L80.1385 179.627L79.7122 179.465L79.2856 179.301L78.8588 179.132L78.4317 178.961L78.0044 178.786L77.577 178.608L77.1493 178.427L76.7215 178.243L76.2935 178.055L75.8653 177.865L75.437 177.671L75.0086 177.474L74.5801 177.274L74.1514 177.07L73.7227 176.864L73.2939 176.654L72.8651 176.442L72.4362 176.226L72.0073 176.007L71.5784 175.786L71.1495 175.561L70.7205 175.333L70.2917 175.102L69.8628 174.868L69.434 174.631L69.0053 174.391L68.5767 174.148L68.1482 173.902L67.7197 173.653L67.2914 173.402L66.8633 173.147L66.4353 172.889L66.0074 172.629L65.5798 172.365L65.1523 172.099L64.7251 171.83L64.298 171.558L63.8713 171.283L63.4447 171.006L63.0185 170.725L62.5925 170.442L62.1669 170.156L61.7415 169.867L61.3165 169.576L60.8918 169.282L60.4675 168.985L60.0435 168.685L59.6199 168.383L59.1968 168.078L58.774 167.771L58.3517 167.46L57.9299 167.148L57.5084 166.832L57.0875 166.514L56.6671 166.193L56.2471 165.87L55.8277 165.544L55.4088 165.216L54.9905 164.886L54.5727 164.552L54.1556 164.217L53.739 163.878L53.323 163.538L52.9076 163.195L52.4929 162.849L52.0789 162.501L51.6655 162.151L51.2528 161.798L50.8408 161.444L50.4295 161.086L50.019 160.727L49.6092 160.365L49.2002 160.001L48.7919 159.634L48.3844 159.265L47.9778 158.895L47.5719 158.522L47.1669 158.146L46.7628 157.769L46.3595 157.389L45.9571 157.007L45.5556 156.624L45.1551 156.238L44.7554 155.85L44.3567 155.46L43.959 155.067L43.5622 154.673L43.1665 154.277L42.7717 153.879L42.378 153.479L41.9852 153.077L41.5936 152.673L41.203 152.267L40.8135 151.859L40.4251 151.449L40.0378 151.038L39.6517 150.624L39.2667 150.209L38.8828 149.792L38.5001 149.373L38.1186 148.953L37.7384 148.53L37.3593 148.106L36.9815 147.681L36.6049 147.253L36.2296 146.824L35.8556 146.393L35.4828 145.961L35.1114 145.527L34.7413 145.091L34.3726 144.654L34.0052 144.216L33.6392 143.775L33.2746 143.334L32.9114 142.89L32.5496 142.446L32.1892 141.999L31.8303 141.552L31.4728 141.103L31.1168 140.653L30.7624 140.201L30.4094 139.748L30.0579 139.293L29.708 138.837L29.3597 138.38L29.0129 137.922L28.6677 137.463L28.3241 137.002L27.9821 136.54L27.6417 136.077L27.303 135.612L26.9659 135.147L26.6306 134.68L26.2969 134.212L25.9649 133.743L25.6346 133.273L25.306 132.802L24.9792 132.33L24.6542 131.857L24.3309 131.383L24.0094 130.908L23.6898 130.432L23.3719 129.956L23.0559 129.478L22.7417 128.999L22.4294 128.52L22.119 128.039L21.8104 127.558L21.5038 127.076L21.199 126.593L20.8962 126.11L20.5954 125.625L20.2965 125.14L19.9996 124.655L19.7047 124.168L19.4117 123.681L19.1208 123.193L18.832 122.705L18.5451 122.216L18.2603 121.727L17.9776 121.236L17.697 120.746L17.4185 120.255L17.1421 119.763L16.8678 119.271L16.5956 118.778L16.3257 118.285L16.0578 117.792L15.7922 117.298L15.5287 116.804L15.2675 116.309L15.0084 115.814L14.7516 115.319L14.497 114.823L14.2447 114.327L13.9947 113.831L13.7469 113.335L13.5015 112.838L13.2583 112.342L13.0175 111.845L12.779 111.348L12.5428 110.85L12.309 110.353L12.0776 109.855L11.8485 109.358L11.6219 108.86L11.3976 108.363L11.1758 107.865L10.9564 107.367L10.7394 106.87L10.5249 106.372L10.3128 105.875L10.1033 105.377L9.8962 104.88L9.69161 104.382L9.48954 103.885L9.28999 103.388L9.09298 102.891L8.89851 102.395L8.7066 101.898L8.51726 101.402L8.33049 100.906L8.14632 100.411L7.96474 99.9154L7.78577 99.4203L7.60942 98.9256L7.43571 98.4312L7.26464 97.9372L7.09622 97.4436L6.93046 96.9503L6.76738 96.4575L6.60698 95.9652L6.44927 95.4732L6.29426 94.9818L6.14197 94.4909L5.99241 94.0005L5.84557 93.5106L5.70147 93.0212L5.56014 92.5324L5.42156 92.0443L5.28573 91.5567L5.1527 91.0697L5.02246 90.5834L4.89501 90.0977L4.77038 89.6128L4.64855 89.1285L4.52955 88.6449L4.41337 88.1621L4.30004 87.68L4.18958 87.1987L4.08195 86.7181L3.97719 86.2384L3.87531 85.7594L3.77631 85.2813L3.68021 84.8041L3.58699 84.3277L3.49669 83.8523L3.40929 83.3777L3.32482 82.904L3.24328 82.4313L3.16466 81.9595L3.08899 81.4887L3.01628 81.0189L2.94651 80.5501L2.87971 80.0824L2.81588 79.6156L2.75503 79.1499L2.69716 78.6853L2.64228 78.2218L2.59039 77.7593L2.54151 77.298L2.49564 76.8378L2.45277 76.3788L2.41293 75.921L2.37612 75.4643L2.34233 75.0088L2.31158 74.5546L2.28387 74.1015L2.25921 73.6497L2.2376 73.1992L2.21905 72.7499L2.20356 72.302L2.19114 71.8553L2.18179 71.4099L2.17551 70.9659L2.17231 70.5233L2.1722 70.082L2.17519 69.6421L2.18126 69.2035L2.19042 68.7664L2.20269 68.3307L2.21806 67.8965L2.23655 67.4637L2.25814 67.0323L2.28284 66.6025L2.31067 66.1741L2.34161 65.7473L2.37568 65.3219L2.41287 64.8981L2.45319 64.4759L2.49665 64.0552L2.54324 63.6361L2.59297 63.2185L2.64583 62.8026L2.70183 62.3883L2.76099 61.9756L2.82328 61.5646L2.88871 61.1552L2.95729 60.7475L3.02903 60.3414L3.10391 59.9371L3.18195 59.5344L3.26313 59.1335L3.34746 58.7343L3.43496 58.3369L3.52561 57.9412L3.6194 57.5472L3.71636 57.155L3.81647 56.7647L3.91973 56.3761L4.02614 55.9893L4.13573 55.6044L4.24845 55.2213L4.36434 54.84L4.48337 54.4606L4.60556 54.0831L4.7309 53.7075L4.85938 53.3337L4.99102 52.9619L5.12581 52.5919L5.26375 52.2239L5.40482 51.8578L5.54904 51.4937L5.69639 51.1315L5.8469 50.7712L6.00054 50.413L6.15731 50.0567L6.31721 49.7025L6.48024 49.3502L6.64641 48.9999L6.81569 48.6517L6.9881 48.3055L7.16362 47.9614L7.34226 47.6193L7.52402 47.2792L7.70887 46.9413L7.89683 46.6054L8.08789 46.2716L8.28205 45.9399L8.4793 45.6103L8.67964 45.2828L8.88306 44.9574L9.08956 44.6342L9.29914 44.3131L9.51178 43.9942L9.72748 43.6774L9.94626 43.3628L10.1681 43.0503L10.3929 42.74L10.6209 42.432L10.8518 42.1261L11.0858 41.8224L11.3228 41.5209L11.5628 41.2217L11.8059 40.9246L12.0519 40.6298L12.301 40.3373L12.553 40.047L12.808 39.7589L13.066 39.4731L13.327 39.1896L13.591 38.9083L13.8579 38.6293L14.1277 38.3526L14.4005 38.0782L14.6763 37.8061L14.955 37.5363L15.2365 37.2688L15.521 37.0036L15.8084 36.7407L16.0987 36.4802L16.3919 36.222L16.688 35.9661L16.9869 35.7126L17.2887 35.4614L17.5933 35.2126L17.9008 34.9661L18.2111 34.722L18.5242 34.4802L18.8402 34.2409L19.1589 34.0039L19.4804 33.7693L19.8047 33.537L20.1318 33.3072L20.4617 33.0798L20.7943 32.8547L21.1296 32.6321L21.4677 32.4118L21.8085 32.194L22.152 31.9786L22.4982 31.7656L22.847 31.555L23.1986 31.3469L23.5528 31.1411L23.9097 30.9378L24.2692 30.737L24.6313 30.5385L24.996 30.3426L25.3634 30.149L25.7333 29.9579L26.1058 29.7693L26.4808 29.5831L26.8585 29.3993L27.2386 29.218L27.6213 29.0392L28.0065 28.8628L28.3942 28.6889L28.7844 28.5174L29.177 28.3484L29.5721 28.1819L29.9697 28.0179L30.3696 27.8563L30.772 27.6972L31.1768 27.5406L31.584 27.3864L31.9936 27.2347L32.4055 27.0855L32.8197 26.9388L33.2363 26.7945L33.6552 26.6528L34.0764 26.5135L34.4999 26.3767L34.9256 26.2424L35.3536 26.1105L35.7838 25.9812L36.2163 25.8543L36.6509 25.7299L37.0878 25.608L37.5268 25.4886L37.968 25.3717L38.4113 25.2572L38.8567 25.1453L39.3043 25.0358L39.7539 24.9288L40.2056 24.8243L40.6594 24.7222L41.1152 24.6227L41.573 24.5256L42.0329 24.431L42.4947 24.3389L42.9585 24.2493L43.4243 24.1622L43.892 24.0775L44.3615 23.9953L44.8331 23.9156L45.3064 23.8383L45.7817 23.7635L46.2588 23.6912L46.7377 23.6214L47.2185 23.554L47.701 23.4891L48.1853 23.4267L48.6713 23.3667L49.1591 23.3092L49.6487 23.2541L50.1398 23.2015L50.6327 23.1514L51.1273 23.1037L51.6235 23.0584L52.1212 23.0156L52.6207 22.9753L53.1216 22.9374L53.6242 22.9019L54.1283 22.8688L54.6339 22.8382L55.141 22.81L55.6496 22.7843L56.1596 22.761L56.6711 22.7401L57.184 22.7216L57.6983 22.7055L58.214 22.6919L58.7311 22.6806L59.2495 22.6718L59.7692 22.6653L60.2902 22.6613L60.8125 22.6596L61.3361 22.6604L61.8608 22.6635L62.3868 22.669L62.914 22.6769L63.4424 22.6872L63.9719 22.6999L64.5025 22.7149L65.0343 22.7322L65.5671 22.752L66.101 22.7741L66.6359 22.7985L67.1719 22.8253L67.7089 22.8544L68.2468 22.8859L68.7857 22.9197L69.3255 22.9558L69.8662 22.9943L70.4079 23.0351L70.9503 23.0781L71.4937 23.1235L72.0378 23.1712L72.5828 23.2212L73.1285 23.2735L73.675 23.3281L74.2222 23.385L74.7701 23.4441L75.3188 23.5055L75.868 23.5692L76.4179 23.6352L76.9685 23.7034L77.5196 23.7738L78.0713 23.8466L78.6235 23.9215L79.1763 23.9987L79.7296 24.0781L80.2834 24.1597L80.8376 24.2436L81.3922 24.3297L81.9473 24.4179L82.5027 24.5084L83.0585 24.6011L83.6147 24.6959L84.1711 24.793L84.7279 24.8922L85.2849 24.9936L85.8422 25.0971L86.3997 25.2028L86.9574 25.3107L87.5153 25.4207L88.0733 25.5328L88.6315 25.6471L89.1897 25.7635L89.7481 25.882L90.3064 26.0026L90.8649 26.1253L91.4233 26.2502L91.9818 26.3771L92.5401 26.5061L93.0985 26.6372L93.6567 26.7703L94.2148 26.9055L94.7728 27.0428L95.3307 27.1821L95.8883 27.3235L96.4458 27.4669L97.003 27.6124L97.56 27.7598L98.1167 27.9093L98.6731 28.0608L99.2291 28.2143L99.7848 28.3697L100.34 28.5272L100.895 28.6866L101.45 28.8481L102.004 29.0114L102.557 29.1768L103.11 29.3441L103.663 29.5133L104.215 29.6844L104.767 29.8575L105.318 30.0325L105.868 30.2094L106.418 30.3883L106.967 30.569L107.515 30.7516L108.062 30.936L108.609 31.1224L109.155 31.3106L109.701 31.5007L110.245 31.6926L110.789 31.8864L111.332 32.082L111.874 32.2794L112.415 32.4786L112.955 32.6796L113.494 32.8825L114.033 33.0871L114.57 33.2935L115.106 33.5017L115.641 33.7117L116.175 33.9234L116.708 34.1369L117.24 34.3521L117.771 34.5691L118.301 34.7878L118.829 35.0081L119.357 35.2303L119.883 35.4541L120.407 35.6796L120.931 35.9068L121.453 36.1356L121.974 36.3661L122.493 36.5983L123.012 36.8322L123.528 37.0677L124.044 37.3048L124.558 37.5435L125.07 37.7839L125.581 38.0258L126.091 38.2694L126.598 38.5145L127.105 38.7613L127.61 39.0096L128.113 39.2595L128.615 39.5109L129.115 39.7639L129.613 40.0184L130.11 40.2744L130.604 40.532L131.098 40.7911L131.589 41.0517L132.079 41.3137L132.567 41.5773L133.053 41.8423L133.537 42.1088L134.019 42.3768L134.5 42.6462L134.978 42.9171L135.455 43.1893L135.93 43.463L136.402 43.7382L136.873 44.0147L137.342 44.2926L137.809 44.5719L138.273 44.8526L138.736 45.1347L139.196 45.4181L139.655 45.7028L140.111 45.989L140.565 46.2764L141.017 46.5652L141.467 46.8552L141.914 47.1466L142.36 47.4393L142.803 47.7333L143.243 48.0285L143.682 48.325L144.118 48.6228L144.552 48.9218L144.983 49.2221L145.412 49.5236L145.839 49.8263L146.263 50.1303L146.685 50.4354L147.104 50.7417L147.521 51.0493L147.935 51.358L148.347 51.6678L148.757 51.9789L149.163 52.291L149.568 52.6043L149.969 52.9188L150.368 53.2344L150.765 53.551L151.158 53.8688L151.55 54.1877L151.938 54.5076L152.324 54.8287L152.707 55.1508L153.087 55.4739L153.465 55.7981L153.84 56.1234L154.212 56.4496L154.581 56.7769L154.947 57.1052L155.311 57.4345L155.672 57.7648L156.03 58.0961L156.385 58.4283L156.737 58.7615L157.086 59.0957L157.432 59.4308L157.776 59.7668L158.116 60.1037L158.453 60.4416L158.788 60.7804L159.119 61.1201L159.448 61.4607L159.773 61.8021L160.095 62.1444L160.414 62.4876L160.731 62.8316L161.044 63.1765L161.354 63.5222L161.66 63.8687L161.964 64.216L162.265 64.5642L162.562 64.9131L162.856 65.2628L163.147 65.6133L163.435 65.9645L163.72 66.3165L164.001 66.6693L164.279 67.0228L164.554 67.377L164.826 67.7319L165.094 68.0876L165.359 68.4439L165.621 68.801L165.879 69.1587L166.134 69.517L166.386 69.8761L166.634 70.2358L166.879 70.5961L167.121 70.9571L167.359 71.3187L167.594 71.6809L167.825 72.0437L168.053 72.4072L168.278 72.7712L168.499 73.1357L168.716 73.5009L168.931 73.8666L169.141 74.2328L169.349 74.5996L169.552 74.9669L169.753 75.3348L169.949 75.7031L170.142 76.0719L170.332 76.4413L170.518 76.8111L170.701 77.1814L170.88 77.5522L171.056 77.9234L171.227 78.295L171.396 78.6671L171.561 79.0396L171.722 79.4126L171.879 79.7859L172.033 80.1596L172.184 80.5337L172.33 80.9082L172.473 81.2831L172.613 81.6583L172.749 82.0339L172.881 82.4098L173.009 82.7861L173.134 83.1626L173.255 83.5395L173.373 83.9167L173.487 84.2942L173.597 84.6719L173.703 85.05L173.806 85.4283L173.905 85.8068L174.001 86.1856L174.092 86.5646L174.18 86.9439L174.264 87.3234L174.345 87.7031L174.422 88.0829L174.495 88.463L174.564 88.8433L174.63 89.2237L174.692 89.6043L174.75 89.985L174.804 90.3659L174.855 90.7469L174.902 91.128L174.945 91.5093L174.984 91.8906L175.02 92.2721L175.052 92.6536L175.08 93.0352L175.104 93.4169L175.125 93.7986L175.142 94.1804L175.155 94.5622L175.164 94.944L175.17 95.3259L175.172 95.7077L175.17 96.0896L175.164 96.4714L175.155 96.8533L175.142 97.2351L175.125 97.6169L175.104 97.9986L175.079 98.3803L175.051 98.7619L175.019 99.1434L174.983 99.5248L174.944 99.9062L174.901 100.287L174.854 100.669L174.803 101.05L174.748 101.43L174.69 101.811L174.628 102.192L174.563 102.572L174.493 102.952L174.42 103.332L174.343 103.712L174.262 104.092L174.178 104.471L174.09 104.851L173.998 105.23L173.903 105.609L173.804 105.987L173.701 106.365L173.594 106.743L173.484 107.121L173.37 107.499L173.252 107.876L173.131 108.253L173.006 108.629L172.878 109.005L172.745 109.381L172.609 109.757L172.47 110.132L172.327 110.507L172.18 110.882L172.03 111.256L171.875 111.629L171.718 112.003L171.557 112.376L171.392 112.748L171.223 113.12L171.051 113.492L170.876 113.863L170.697 114.234L170.514 114.604L170.328 114.974L170.138 115.343L169.944 115.712L169.748 116.08L169.547 116.448L169.343 116.815L169.136 117.182L168.925 117.549L168.711 117.914L168.493 118.279L168.272 118.644L168.047 119.008L167.819 119.371L167.588 119.734L167.353 120.096L167.115 120.458L166.873 120.819L166.628 121.179L166.38 121.539L166.128 121.898L165.873 122.256L165.614 122.614L165.352 122.971L165.087 123.327L164.819 123.683L164.547 124.038L164.272 124.392L163.994 124.745L163.713 125.098L163.428 125.45L163.14 125.801L162.849 126.152L162.555 126.502L162.257 126.85L161.957 127.199L161.653 127.546L161.346 127.892L161.036 128.238L160.723 128.583L160.407 128.927L160.087 129.27L159.765 129.612L159.44 129.954L159.111 130.294L158.78 130.634L158.445 130.973L158.108 131.311L157.767 131.648L157.424 131.984L157.077 132.319L156.728 132.653L156.376 132.986L156.021 133.318L155.663 133.649L155.302 133.98L154.938 134.309L154.572 134.637L154.203 134.964L153.83 135.291L153.456 135.616L153.078 135.94L152.698 136.263L152.314 136.585L151.929 136.906L151.54 137.226L151.149 137.545L150.755 137.863L150.359 138.179L149.959 138.495L149.558 138.809L149.153 139.123L148.747 139.435L148.337 139.746L147.925 140.056L147.511 140.364L147.094 140.672L146.674 140.978L146.253 141.283L145.828 141.587L145.402 141.89L144.972 142.191L144.541 142.492L144.107 142.791L143.671 143.088L143.233 143.385L142.792 143.68L142.349 143.974L141.903 144.267L141.456 144.558L141.006 144.848L140.554 145.137L140.1 145.424L139.644 145.71L139.185 145.995L138.725 146.278L138.262 146.56L137.797 146.841L137.331 147.12L136.862 147.398L136.391 147.675L135.918 147.95L135.443 148.223L134.967 148.496L134.488 148.767L134.007 149.036L133.525 149.304L133.041 149.57L132.555 149.835L132.067 150.099L131.577 150.361L131.086 150.621L130.592 150.88L130.097 151.138L129.601 151.394L129.102 151.648L128.602 151.901L128.101 152.153L127.597 152.403L127.093 152.651L126.586 152.898L126.078 153.143L125.569 153.386L125.058 153.628L124.545 153.868L124.031 154.107L123.516 154.344L122.999 154.58L122.481 154.813L121.961 155.046L121.44 155.276L120.918 155.505L120.394 155.732L119.87 155.958L119.344 156.181L118.816 156.403L118.288 156.624L117.758 156.842L117.227 157.059L116.695 157.274L116.162 157.488L115.628 157.7L115.093 157.909L114.557 158.118L114.019 158.324L113.481 158.529L112.942 158.731L112.402 158.932L111.861 159.132L111.319 159.329L110.776 159.525L110.232 159.718L109.687 159.91L109.142 160.1L108.596 160.288L108.049 160.475L107.501 160.659L106.953 160.842L106.404 161.022L105.854 161.201L105.304 161.378L104.753 161.553L104.202 161.726L103.65 161.897L103.097 162.066L102.544 162.233L101.99 162.399L101.436 162.562L100.882 162.723L100.327 162.883L99.7713 163.04L99.2155 163.196L98.6595 163.349L98.1031 163.5L97.5463 163.65L96.9894 163.797L96.4321 163.943L95.8747 164.086L95.317 164.227L94.7592 164.367L94.2012 164.504L93.643 164.639L93.0848 164.772L92.5265 164.903L91.9681 165.032L91.4096 165.159L90.8512 165.284L90.2928 165.406L89.7344 165.527L89.1761 165.646L88.6178 165.762L88.0596 165.876L87.5016 165.988L86.9437 166.098L86.386 166.206L85.8286 166.312L85.2713 166.415L84.7143 166.516L84.1575 166.616L83.6011 166.713L83.0449 166.807L82.4891 166.9L81.9337 166.99L81.3786 167.079L80.824 167.165L80.2698 167.248L79.716 167.33L79.1628 167.409L78.61 167.486L78.0578 167.561L77.5061 167.634L76.955 167.704L76.4045 167.773L75.8546 167.838L75.3053 167.902L74.7567 167.963L74.2088 168.023L73.6616 168.079L73.1151 168.134L72.5694 168.186L72.0245 168.236L71.4804 168.284L70.9371 168.329L70.3946 168.372L69.853 168.413L69.3123 168.451L68.7725 168.487L68.2336 168.521L67.6957 168.552L67.1588 168.581L66.6228 168.608L66.0879 168.633L65.5541 168.655L65.0213 168.674L64.4895 168.692L63.9589 168.707L63.4294 168.719L62.9011 168.729L62.3739 168.737L61.848 168.743L61.3232 168.746L60.7997 168.746L60.2775 168.745L59.7565 168.741L59.2368 168.734L58.7184 168.725L58.2014 168.714L57.6857 168.7L57.1715 168.684L56.6586 168.666L56.1471 168.645L55.6371 168.621L55.1285 168.595L54.6215 168.567L54.1159 168.536L53.6119 168.503L53.1093 168.468L52.6084 168.43L52.109 168.389L51.6113 168.347L51.1151 168.301L50.6206 168.254L50.1278 168.203L49.6366 168.151L49.1472 168.096L48.6594 168.038L48.1734 167.978L47.6892 167.915L47.2067 167.85L46.726 167.783L46.2471 167.713L45.77 167.641L45.2948 167.566L44.8215 167.489L44.35 167.409L43.8805 167.327L43.4128 167.242L42.9471 167.155L42.4834 167.065L42.0216 166.973L41.5618 166.878L41.104 166.781L40.6483 166.681L40.1945 166.579L39.7429 166.475L39.2933 166.368L38.8458 166.258L38.4004 166.146L37.9571 166.032L37.516 165.915L37.0771 165.795L36.6403 165.673L36.2057 165.549L35.7733 165.422L35.3431 165.292L34.9152 165.16L34.4895 165.026L34.066 164.889L33.6449 164.75L33.2261 164.608L32.8095 164.464L32.3953 164.317L31.9835 164.168L31.574 164.016L31.1669 163.862L30.7622 163.705L30.3598 163.546L29.9599 163.384L29.5624 163.22L29.1674 163.054L28.7748 162.884L28.3847 162.713L27.997 162.539L27.6119 162.363L27.2293 162.184L26.8492 162.002L26.4716 161.818L26.0966 161.632L25.7242 161.444L25.3543 161.252L24.9871 161.059L24.6224 160.863L24.2603 160.664L23.9009 160.463L23.5441 160.26L23.1899 160.054L22.8385 159.846L22.4897 159.635L22.1435 159.422L21.8001 159.207L21.4594 158.989L21.1214 158.769L20.7861 158.546L20.4536 158.321L20.1238 158.093L19.7968 157.863L19.4725 157.631L19.1511 157.396L18.8324 157.159L18.5165 156.92L18.2034 156.678L17.8932 156.434L17.5858 156.187L17.2812 155.939L16.9795 155.687L16.6807 155.434L16.3847 155.178L16.0916 154.92L15.8014 154.659L15.514 154.396L15.2296 154.131L14.9481 153.863L14.6695 153.593L14.3938 153.321L14.1211 153.047L13.8513 152.77L13.5845 152.491L13.3206 152.21L13.0597 151.926L12.8018 151.64L12.5468 151.352L12.2948 151.062L12.0459 150.769L11.7999 150.474L11.5569 150.177L11.317 149.878L11.08 149.576L10.8461 149.273L10.6152 148.967L10.3874 148.658L10.1626 148.348L9.94086 148.036L9.72217 147.721L9.50653 147.404L9.29396 147.085L9.08446 146.764L8.87804 146.441L8.67469 146.115L8.47443 145.788L8.27726 145.458L8.08318 145.126L7.89219 144.793L7.70431 144.457L7.51952 144.119L7.33785 143.778L7.15929 143.436L6.98384 143.092L6.81151 142.746L6.64231 142.398L6.47622 142.047L6.31326 141.695L6.15344 141.341L5.99674 140.984L5.84318 140.626L5.69276 140.266L5.54547 139.904L5.40132 139.539L5.26032 139.173L5.12247 138.805L4.98776 138.435L4.8562 138.063L4.72779 137.689L4.60252 137.314L4.48042 136.936L4.36146 136.557L4.24565 136.175L4.13301 135.792L4.02351 135.407L3.91717 135.021L3.81397 134.632L3.71395 134.241L3.61707 133.849L3.52335 133.455L3.43277 133.06L3.34537 132.662L3.2611 132.263L3.17999 131.862L3.10204 131.459L3.02723 131.055L2.95557 130.649L2.88707 130.241L2.82171 129.831L2.75949 129.42L2.70042 129.008L2.6445 128.593L2.59171 128.177L2.54206 127.76L2.49555 127.341L2.45217 126.92L2.41192 126.498L2.37481 126.074L2.34081 125.648L2.30994 125.221L2.2822 124.793L2.25756 124.363L2.23606 123.932L2.21765 123.499L2.20236 123.065L2.19016 122.629L2.18107 122.192L2.17507 121.753L2.17217 121.313L2.17236 120.872L2.17563 120.429L2.18198 119.985L2.1914 119.54L2.2039 119.093L2.21947 118.645L2.23809 118.196L2.25978 117.745L2.28451 117.294L2.31229 116.84L2.34312 116.386L2.37698 115.931L2.41387 115.474L2.45379 115.016L2.49672 114.557L2.54267 114.097L2.59163 113.635L2.64359 113.173L2.69854 112.709L2.75648 112.245L2.81741 111.779L2.88132 111.312L2.94818 110.844L3.01802 110.376L3.09081 109.906L3.16655 109.435L3.24524 108.963L3.32685 108.49L3.4114 108.017L3.49886 107.542L3.58923 107.067L3.68253 106.59L3.7787 106.113L3.87778 105.635L3.97972 105.156L4.08455 104.676L4.19224 104.196L4.30279 103.714L4.41618 103.232L4.53243 102.749L4.6515 102.266L4.77339 101.781L4.89811 101.296L5.02562 100.811L5.15593 100.324L5.28904 99.8375L5.42491 99.3499L5.56356 98.8617L5.70497 98.3729L5.84914 97.8835L5.99603 97.3936L6.14567 96.9032L6.29803 96.4123L6.45309 95.9208L6.61087 95.4289L6.77134 94.9365L6.93449 94.4437L7.10031 93.9505L7.26879 93.4568L7.43993 92.9628L7.61371 92.4684L7.79012 91.9737L7.96915 91.4786L8.15079 90.9832L8.33504 90.4876L8.52187 89.9917L8.71127 89.4955L8.90324 88.9991L9.09777 88.5025L9.29485 88.0057L9.49446 87.5087L9.69659 87.0116L9.90123 86.5143L10.1084 86.0169L10.318 85.5194L10.5301 85.0218L10.7447 84.5242L10.9617 84.0266L11.1812 83.5289L11.4031 83.0312L11.6274 82.5336L11.8541 82.036L12.0832 81.5384L12.3147 81.041L12.5486 80.5436L12.7848 80.0464L13.0233 79.5492L13.2642 79.0523L13.5074 78.5556L13.753 78.059L14.0008 77.5626L14.2509 77.0666L14.5032 76.5707L14.7579 76.0751L15.0147 75.5799L15.2738 75.0849L15.5351 74.5903L15.7986 74.0961L16.0644 73.6023L16.3322 73.1088L16.6023 72.6158L16.8745 72.1232L17.1488 71.631L17.4253 71.1394L17.7039 70.6482L17.9845 70.1576L18.2673 69.6675L18.5521 69.178L18.839 68.689L19.1279 68.2007L19.4189 67.713L19.7119 67.2259L20.0068 66.7395L20.3038 66.2538L20.6027 65.7688L20.9036 65.2845L21.2065 64.801L21.5112 64.3182L21.8179 63.8362L22.1265 63.3551L22.437 62.8747L22.7494 62.3952L23.0636 61.9166L23.3797 61.4388L23.6976 60.962L24.0173 60.4861L24.3388 60.0111L24.6621 59.5371L24.9872 59.0641L25.3141 58.5922L25.6426 58.1212L25.973 57.6513L26.305 57.1824L26.6388 56.7147L26.9742 56.2481L27.3113 55.7826L27.65 55.3182L27.9904 54.855L28.3325 54.3931L28.6761 53.9323L29.0214 53.4727L29.3682 53.0145L29.7166 52.5574L30.0665 52.1017L30.418 51.6473L30.771 51.1942L31.1255 50.7425L31.4816 50.2922L31.839 49.8432L32.198 49.3957L32.5584 48.9495L32.9202 48.5049L33.2835 48.0617L33.6481 47.62L34.0142 47.1798L34.3816 46.7412L34.7504 46.3041L35.1205 45.8685L35.492 45.4346L35.8647 45.0023L36.2388 44.5715L36.6141 44.1425L36.9907 43.7151L37.3686 43.2894L37.7477 42.8654L38.128 42.4431L38.5095 42.0226L38.8922 41.6038L39.2761 41.1869L39.6611 40.7717L40.0473 40.3583L40.4346 39.9468L40.823 39.5372L41.2126 39.1294L41.6032 38.7235L41.9949 38.3195L42.3876 37.9175L42.7814 37.5174L43.1761 37.1193L43.5719 36.7232L43.9687 36.3291L44.3665 35.937L44.7652 35.5469L45.1649 35.159L45.5655 34.7731L45.967 34.3893L46.3694 34.0076L46.7727 33.628L47.1769 33.2506L47.5819 32.8754L47.9877 32.5024L48.3944 32.1316L48.8019 31.7629L49.2102 31.3966L49.6192 31.0325L50.029 30.6707L50.4396 30.3111L50.8509 29.9539L51.2629 29.599L51.6756 29.2464L52.089 28.8962L52.5031 28.5484L52.9178 28.203L53.3332 27.86L53.7492 27.5194L54.1658 27.1813L54.583 26.8457L55.0007 26.5125L55.4191 26.1818L55.838 25.8536L56.2574 25.5279L56.6774 25.2048L57.0978 24.8843L57.5188 24.5663L57.9402 24.2509L58.3621 23.9381L58.7844 23.6279L59.2072 23.3204L59.6303 23.0156L60.0539 22.7133L60.4779 22.4138L60.9022 22.117L61.3269 21.8229L61.7519 21.5315L62.1773 21.2429L62.603 20.957L63.0289 20.6739L63.4552 20.3935L63.8817 20.116L64.3085 19.8413L64.7355 19.5694L65.1628 19.3004L65.5902 19.0342L66.0179 18.7709L66.4457 18.5105L66.8737 18.2529L67.3019 17.9983L67.7302 17.7466L68.1586 17.4979L68.5872 17.252L69.0158 17.0092L69.4445 16.7693L69.8733 16.5325L70.3022 16.2986L70.7311 16.0677L71.16 15.8399L71.5889 15.6151L72.0178 15.3933L72.4467 15.1746L72.8756 14.959L73.3044 14.7465L73.7332 14.5371L74.1619 14.3308L74.5906 14.1276L75.0191 13.9275L75.4475 13.7306L75.8758 13.5368L76.304 13.3462L76.732 13.1588L77.1598 12.9745L77.5874 12.7935L78.0149 12.6157L78.4422 12.4411L78.8692 12.2697L79.296 12.1015L79.7226 11.9366L80.1489 11.775L80.5749 11.6166L81.0007 11.4615L81.4261 11.3096L81.8513 11.1611L82.2761 11.0159L82.7006 10.874L83.1247 10.7354L83.5485 10.6001L83.9719 10.4682L84.3949 10.3396L84.8175 10.2144L85.2397 10.0925L85.6614 9.97404L86.0827 9.85893L86.5036 9.7472L86.924 9.63886L87.344 9.53391L87.7634 9.43239L88.1824 9.33426L88.6008 9.23957L89.0187 9.14829L89.4361 9.06045L89.8529 8.97605L90.2692 8.89511L90.6849 8.81761L91.1 8.74357L91.5145 8.67299L91.9284 8.60588L92.3417 8.54224L92.7543 8.48209L93.1663 8.42542L93.5776 8.37224L93.9883 8.32256L94.3983 8.27638L94.8076 8.2337L95.2162 8.19452L95.6241 8.15887L96.0313 8.12672L96.4377 8.0981L96.8434 8.07302L97.2483 8.05145L97.6525 8.03341L98.0558 8.01892L98.4584 8.00795L98.8602 8.00052L99.2612 7.99665L99.6613 7.99633L100.061 7.99954L100.459 8.00631L100.857 8.01663L101.253 8.03051L101.649 8.04795L102.044 8.06894L102.438 8.0935L102.831 8.12161L103.224 8.1533L103.615 8.18854L104.005 8.22736L104.395 8.26973L104.783 8.31567L105.171 8.36518L105.557 8.41826L105.943 8.4749L106.327 8.53511L106.71 8.59888L107.093 8.66622L107.474 8.73713L107.855 8.81161L108.234 8.88964L108.612 8.97124L108.99 9.05641L109.366 9.14512L109.741 9.2374L110.115 9.33324L110.487 9.43263L110.859 9.53558L111.23 9.64207L111.599 9.75212L111.967 9.86571L112.335 9.98284L112.701 10.1035L113.065 10.2277L113.429 10.3555L113.791 10.4867L114.153 10.6216L114.513 10.7599L114.871 10.9017L115.229 11.0471L115.585 11.1959L115.94 11.3483L116.294 11.5042L116.647 11.6636L116.998 11.8265L117.348 11.9928L117.697 12.1627L118.044 12.336L118.39 12.5128L118.735 12.693L119.079 12.8767L119.421 13.0639L119.762 13.2545L120.101 13.4486L120.439 13.6461L120.776 13.847L121.112 14.0514L121.446 14.2591L121.778 14.4703L122.11 14.6849L122.44 14.9028L122.768 15.1242L123.095 15.3489L123.421 15.577L123.745 15.8085L124.068 16.0433L124.389 16.2814L124.709 16.5229L125.028 16.7678L125.344 17.0159L125.66 17.2674L125.974 17.5221L126.287 17.7802L126.598 18.0415L126.907 18.3061L127.215 18.5739L127.522 18.845L127.827 19.1194L128.13 19.397L128.432 19.6778L128.733 19.9618L129.032 20.249L129.329 20.5394L129.625 20.833L129.919 21.1298L130.212 21.4297L130.503 21.7327L130.792 22.0389L131.08 22.3482L131.366 22.6606L131.651 22.9761L131.934 23.2947L132.216 23.6164L132.495 23.9411L132.774 24.2689L133.05 24.5997L133.325 24.9335L133.599 25.2703L133.87 25.6102L134.14 25.953L134.409 26.2987L134.675 26.6475L134.94 26.9991L135.204 27.3537L135.465 27.7112L135.725 28.0716L135.984 28.4349L136.24 28.8011L136.495 29.1701L136.748 29.5419L137 29.9166L137.25 30.294L137.498 30.6743L137.744 31.0573L137.988 31.4431L138.231 31.8317L138.472 32.223L138.712 32.617L138.949 33.0137L139.185 33.413L139.419 33.8151L139.652 34.2198L139.882 34.6271L140.111 35.037L140.338 35.4496L140.563 35.8647L140.787 36.2824L141.008 36.7026L141.228 37.1254L141.446 37.5507L141.662 37.9784L141.877 38.4087L142.089 38.8414L142.3 39.2765L142.509 39.7141L142.716 40.1541L142.922 40.5965L143.125 41.0412L143.327 41.4883L143.527 41.9377L143.725 42.3894L143.921 42.8434L144.115 43.2997L144.307 43.7583L144.498 44.2191L144.687 44.6821L144.874 45.1473L145.058 45.6147L145.242 46.0842L145.423 46.5559L145.602 47.0297L145.78 47.5056L145.955 47.9836L146.129 48.4636L146.301 48.9457L146.471 49.4298L146.639 49.9158L146.805 50.4039L146.969 50.8939L147.131 51.3859L147.291 51.8797L147.45 52.3755L147.606 52.8731L147.761 53.3726L147.914 53.8739L148.065 54.377L148.213 54.8819L148.36 55.3886L148.505 55.897L148.648 56.4072L148.79 56.919L148.929 57.4325L149.066 57.9477L149.201 58.4645L149.335 58.9829L149.466 59.5029L149.595 60.0245L149.723 60.5476L149.849 61.0722L149.972 61.5984L150.094 62.126L150.213 62.6551L150.331 63.1856L150.447 63.7175L150.561 64.2508L150.672 64.7855L150.782 65.3215L150.89 65.8588L150.996 66.3974L151.1 66.9373L151.202 67.4784L151.302 68.0208L151.399 68.5643L151.495 69.1091L151.589 69.655L151.681 70.202L151.771 70.7501L151.859 71.2994L151.945 71.8496L152.029 72.4009L152.111 72.9532L152.191 73.5066L152.269 74.0608L152.345 74.616L152.419 75.1722L152.491 75.7292L152.561 76.2871L152.629 76.8458L152.695 77.4054L152.759 77.9657L152.821 78.5268L152.881 79.0887L152.939 79.6513L152.995 80.2145L153.049 80.7785L153.101 81.3431L153.151 81.9083L153.199 82.4742L153.245 83.0406L153.289 83.6075L153.33 84.175L153.37 84.743L153.408 85.3114L153.444 85.8803L153.478 86.4497L153.509 87.0194L153.539 87.5895L153.567 88.16L153.592 88.7308L153.616 89.3019L153.638 89.8733L153.657 90.4449L153.675 91.0168L153.69 91.5888L153.704 92.1611L153.715 92.7335L153.725 93.306L153.732 93.8786L153.738 94.4513L153.741 95.0241L153.743 95.5969" stroke="#202223" stroke-width="3"/>
<circle cx="108.386" cy="7.99577" r="7.24186" fill="#202223"/>
<circle cx="25.5075" cy="133.521" r="7.24186" fill="#202223"/>
<circle cx="154.252" cy="100.531" r="7.24186" fill="#202223"/>
</svg>
