<svg width="218" height="205" viewBox="0 0 218 205" fill="none" xmlns="http://www.w3.org/2000/svg">
<path d="M131.332 62.891C154.766 76.4207 173.343 93.1307 184.451 109.163C195.613 125.274 199.01 140.335 192.933 150.861C186.855 161.388 172.114 165.977 152.58 164.365C133.141 162.761 109.382 155.029 85.9475 141.499C62.5134 127.969 43.9368 111.259 32.8286 95.2267C21.666 79.1157 18.269 64.0553 24.3467 53.5284C30.4244 43.0014 45.1656 38.4132 64.6994 40.0248C84.138 41.6285 107.898 49.3613 131.332 62.891Z" stroke="#202223" stroke-width="2.23944"/>
<path d="M138.224 62.7066C138.224 66.417 135.216 69.4249 131.505 69.4249C127.795 69.4249 124.787 66.417 124.787 62.7066C124.787 58.9962 127.795 55.9883 131.505 55.9883C135.216 55.9883 138.224 58.9962 138.224 62.7066Z" fill="#202223"/>
<path d="M140.3 134.592C121.166 153.725 100.217 167.344 81.8559 173.924C63.4048 180.537 47.9784 179.92 39.3832 171.325C30.788 162.73 30.1714 147.303 36.7838 128.852C43.3639 110.491 56.9827 89.5423 76.1165 70.4084C95.2504 51.2746 116.199 37.6558 134.56 31.0756C153.011 24.4632 168.438 25.0799 177.033 33.6751C185.628 42.2703 186.245 57.6967 179.632 76.1478C173.052 94.509 159.433 115.458 140.3 134.592Z" stroke="#202223" stroke-width="2.23944"/>
<circle cx="74.0289" cy="176.169" r="6.71833" fill="#202223"/>
</svg>
