<svg width="125" height="166" viewBox="0 0 125 166" fill="none" xmlns="http://www.w3.org/2000/svg">
<path d="M123.223 58.5435C123.223 58.8515 123.034 59.3095 122.3 59.9018C121.578 60.4842 120.458 61.0861 118.929 61.6827C115.88 62.8724 111.416 63.9617 105.834 64.8829C94.6861 66.7229 79.251 67.8655 62.1786 67.8655C45.1062 67.8655 29.6711 66.7229 18.523 64.8829C12.9417 63.9617 8.47711 62.8724 5.42841 61.6827C3.89946 61.0861 2.77934 60.4842 2.05731 59.9018C1.32303 59.3095 1.13455 58.8515 1.13455 58.5435C1.13455 58.2354 1.32303 57.7774 2.05731 57.1851C2.77934 56.6028 3.89946 56.0008 5.42841 55.4042C8.47711 54.2145 12.9417 53.1252 18.523 52.204C29.6711 50.364 45.1062 49.2215 62.1786 49.2215C79.251 49.2215 94.6861 50.364 105.834 52.204C111.416 53.1252 115.88 54.2145 118.929 55.4042C120.458 56.0008 121.578 56.6028 122.3 57.1851C123.034 57.7774 123.223 58.2354 123.223 58.5435Z" stroke="#202223" stroke-width="1.80426"/>
<path d="M61.5781 1.4082L61.5781 66.9629" stroke="#202223" stroke-width="1.80426" stroke-linecap="square"/>
<path d="M123.223 90.4155C123.223 90.7236 123.034 91.1816 122.3 91.7739C121.578 92.3562 120.458 92.9582 118.929 93.5548C115.88 94.7445 111.416 95.8338 105.834 96.755C94.6861 98.595 79.251 99.7375 62.1786 99.7375C45.1062 99.7375 29.6711 98.595 18.523 96.755C12.9417 95.8338 8.47711 94.7445 5.42841 93.5548C3.89946 92.9582 2.77934 92.3562 2.05731 91.7739C1.32303 91.1816 1.13455 90.7236 1.13455 90.4155C1.13455 90.1075 1.32303 89.6495 2.05731 89.0572C2.77934 88.4748 3.89946 87.8729 5.42841 87.2763C8.47711 86.0866 12.9417 84.9973 18.523 84.0761C29.6711 82.2361 45.1062 81.0935 62.1786 81.0935C79.251 81.0935 94.6861 82.2361 105.834 84.0761C111.416 84.9973 115.88 86.0866 118.929 87.2763C120.458 87.8729 121.578 88.4748 122.3 89.0572C123.034 89.6495 123.223 90.1075 123.223 90.4155Z" stroke="#202223" stroke-width="1.80426"/>
<path d="M61.5781 100.64L61.5781 151.159" stroke="#202223" stroke-width="1.80426" stroke-linecap="round"/>
<path d="M61.5779 165.593L55.3278 143.942L67.828 143.942L61.5779 165.593Z" fill="#202223"/>
</svg>
