<svg width="70" height="67" viewBox="0 0 70 67" fill="none" xmlns="http://www.w3.org/2000/svg">
<path fill-rule="evenodd" clip-rule="evenodd" d="M31.5766 2.38403C31.2484 3.25283 30.9802 9.13973 30.9802 15.467V26.9712L24.0042 19.3796C20.046 15.0726 16.2204 11.7891 15.1601 11.7891C14.1332 11.7891 13.2921 12.0667 13.2921 12.4072C13.2921 12.7468 16.8297 16.962 21.1534 21.7753C25.4772 26.5887 29.0148 30.739 29.0148 30.9987C29.0148 31.2583 22.935 31.7886 15.5031 32.177C2.26057 32.8701 -0.365135 33.4972 0.949681 35.6592C1.3968 36.3942 5.8257 36.529 14.9626 36.0837L28.322 35.4325L24.41 41.3364C16.983 52.548 14.6442 57.5092 16.1123 58.9402C17.1844 59.9868 17.5922 59.9468 18.3273 58.7245C18.8235 57.9006 21.7627 53.0423 24.8591 47.9274L30.4888 38.6282L30.761 52.6708C30.9802 63.9343 31.3074 66.7135 32.4149 66.7135C34.5718 66.7135 35.1093 63.443 35.0553 50.6366C35.0278 44.0996 35.1624 38.752 35.354 38.752C35.5457 38.752 38.8632 43.4705 42.726 49.2376C49.6283 59.5414 50.8606 60.7757 52.142 58.6676C52.7758 57.626 41.8682 39.8914 39.2209 37.6595C35.9102 34.8663 38.0328 34.5098 53.673 35.2298C68.7403 35.9239 69.4705 35.8709 69.1373 34.1094C68.817 32.4147 67.4609 32.2379 52.8319 31.9863C41.026 31.7836 36.8821 31.3941 36.8998 30.4884C36.9126 29.8153 40.3391 25.2785 44.5155 20.4052C54.3452 8.93501 54.2518 9.07482 52.9468 7.74864C51.8816 6.66613 50.2887 8.16108 38.5418 21.276L34.9639 25.2705L34.9374 13.0374C34.9158 3.25982 34.6357 0.804199 33.542 0.804199C32.7893 0.804199 31.9049 1.51522 31.5766 2.38403Z" fill="#77BDF0"/>
</svg>
