<svg width="480" height="169" viewBox="0 0 480 169" fill="none" xmlns="http://www.w3.org/2000/svg">
<path fill-rule="evenodd" clip-rule="evenodd" d="M195.416 1.07356C185.425 1.46821 166.764 2.70891 156.186 3.68184C144.211 4.78365 119.721 7.77856 117.757 8.38221C117.09 8.58655 116.267 9.48001 115.928 10.3668C115.59 11.2536 114.775 11.9788 114.117 11.9788C111.315 11.9788 87.1163 18.4314 75.3219 22.3231C41.0947 33.6183 21.5395 44.6457 9.92075 59.2049C-1.0294 72.926 -2.94998 88.1383 4.33402 103.443C12.0673 119.691 27.5246 131.442 54.2558 141.396C90.1273 154.754 132.862 162.553 188.375 165.872C261.578 170.249 322.432 168.235 370.777 159.835C398.175 155.075 429.885 146.274 446.121 138.924C461.448 131.986 473.957 119.4 478.128 106.718C480.462 99.6245 480.372 89.7743 477.912 82.8911C475.264 75.4822 471.08 69.0764 464.368 62.153C447.14 44.3832 422.405 30.8951 390.223 21.7221C360.914 13.3677 314.619 5.75257 274.211 2.6388C251.876 0.917308 216.943 0.223504 195.416 1.07356ZM272.199 7.74183C327.199 11.4659 384.911 22.9114 416.377 36.3347C445.706 48.8459 467.546 67.5819 473.065 84.9665C478.62 102.462 469.608 120.078 449.155 131.705C433.348 140.691 391.465 151.902 354.012 157.173C326.487 161.047 308.607 162.217 269.852 162.683C196.239 163.569 135.781 158.317 91.0863 147.151C56.0322 138.394 32.6895 128.379 20.4799 116.857C1.80521 99.2358 0.260156 76.5687 16.5563 59.3184C27.1329 48.1234 41.149 40.2391 68.5167 30.0898C98.1865 19.0871 136.111 11.6623 178.316 8.59389C204.525 6.68877 250.487 6.27142 272.199 7.74183Z" fill="#77BDF0"/>
</svg>
