<svg width="100" height="221" viewBox="0 0 100 221" fill="none" xmlns="http://www.w3.org/2000/svg">
<path fill-rule="evenodd" clip-rule="evenodd" d="M19.7942 1.64329C18.5786 2.93514 18.7727 5.03968 20.1769 5.80059C20.8463 6.16293 23.4223 6.87209 25.9008 7.37567C36.5562 9.5401 51.1903 16.1044 59.557 22.472C88.8364 44.7559 101.656 90.3295 89.5719 129.166C84.5278 145.374 76.9112 158.121 64.2177 171.594C54.4851 181.926 45.8936 188.735 34.9154 194.815C27.4282 198.962 15.1161 204.368 14.0793 203.963C13.7648 203.841 16.4563 199.503 20.0607 194.322C23.6644 189.142 26.6134 184.467 26.6134 183.933C26.6134 182.571 25.1667 181.187 23.7437 181.187C23.0103 181.187 20.0224 184.849 16.0548 190.611C12.4858 195.794 7.41944 202.246 4.79683 204.948C-1.21449 211.142 -1.10525 212.081 5.94009 214.773C18.447 219.554 30.8677 221.508 44.6613 220.866C52.6021 220.497 54.2116 220.218 55.3423 219.016C56.3965 217.896 56.5197 217.295 55.9324 216.128C55.2268 214.727 54.6535 214.674 44.138 215.03C32.8613 215.413 25.5954 214.725 17.0018 212.46C14.5858 211.823 12.8637 211.056 13.1747 210.756C13.4857 210.456 16.2983 209.319 19.424 208.229C26.9112 205.619 41.4834 197.902 48.8801 192.629C66.1709 180.302 80.0702 164.006 88.7438 145.892C93.1471 136.694 95.5943 129.306 97.7229 118.778C99.7213 108.894 99.8772 89.4873 98.0374 79.6028C94.3801 59.9565 85.8958 41.8735 74.2677 28.9394C62.1887 15.5025 49.553 7.914 30.8879 2.88486C22.0306 0.498585 20.982 0.381009 19.7942 1.64329Z" fill="#77BDF0"/>
</svg>
