<svg width="522" height="191" viewBox="0 0 522 191" fill="none" xmlns="http://www.w3.org/2000/svg">
<path fill-rule="evenodd" clip-rule="evenodd" d="M377.456 1.13158C336.26 5.50532 297.642 17.1581 261.083 36.2467L244.849 44.7227L238.963 38.6669C230.821 30.2885 223.229 27.1697 209.268 26.4684C189.849 25.4917 164.579 32.3449 134.294 46.8001C105.129 60.7202 82.3176 76.8653 59.107 100.013C36.2523 122.807 20.6595 144.712 6.39276 174.067C0.140601 186.93 -0.786084 190.977 2.52256 190.977C3.18693 190.977 7.2799 183.711 11.618 174.829C25.0846 147.259 38.9717 127.706 60.8589 105.502C91.0361 74.8841 127.265 52.0215 165.454 39.4934C186.416 32.6178 195.291 31.0386 209.059 31.7359C222.465 32.4148 228.99 35.1329 235.778 42.8654L240.128 47.8178L237.012 49.8636C208.803 68.3828 181.066 93.6801 163.95 116.499C148.914 136.546 148.832 158.607 163.75 170.468C168.273 174.064 169.765 174.495 177.591 174.465C185.011 174.435 187.642 173.741 194.669 169.961C210.212 161.597 228.574 140.63 237.754 120.764C245.651 103.669 248.19 92.2868 248.258 73.6582C248.29 64.5956 248.02 55.4527 247.658 53.341C247.018 49.6145 247.464 49.2559 262.817 41.1609C311.719 15.3746 362.884 3.57286 417.045 5.58837C448.412 6.75628 446.254 5.8375 446.978 18.3313C448.055 36.9427 459.427 53.5519 476.418 61.3305C486.016 65.724 500.233 66.8537 510.043 63.9998C518.646 61.4979 523.073 58.594 521.181 56.6944C520.299 55.8086 517.245 56.2581 511.954 58.0509C490.027 65.4802 465.85 55.2629 455.689 34.2708C453.598 29.9524 452.594 24.8167 452.057 15.7173L451.317 3.13522L444.727 2.19931C433.776 0.646487 388.766 -0.0679698 377.456 1.13158ZM242.879 58.0047C244.567 66.4385 243.665 84.9458 241.033 95.9263C237.844 109.229 230.067 126.289 222.105 137.447C215.182 147.148 201.294 160.454 193.045 165.288C185.189 169.891 174.819 170.897 168.573 167.659C158.046 162.203 154.529 145.426 160.974 131.405C166.995 118.305 189.779 92.7495 210.448 75.9123C221.153 67.1912 239.634 53.8854 241.04 53.8854C241.599 53.8854 242.426 55.7388 242.879 58.0047Z" fill="#77BDF0"/>
</svg>
