<svg width="131" height="255" viewBox="0 0 131 255" fill="none" xmlns="http://www.w3.org/2000/svg">
<path fill-rule="evenodd" clip-rule="evenodd" d="M105.587 2.65773C81.4671 5.28177 81.7364 5.23083 81.7364 7.21198C81.7364 8.46534 82.2557 8.73932 84.6216 8.73314C87.2929 8.7262 103.727 7.07614 111.743 6.00955C114.769 5.60668 113.801 6.25961 104.049 11.1974C84.7316 20.9766 72.2052 29.9732 56.4527 45.3786C34.6935 66.6587 20.0397 88.9684 9.79911 116.403C4.00482 131.928 0.175564 151.694 0.185566 166.029C0.198646 185.113 6.40225 204.41 17.1545 218.813C25.1184 229.479 38.8498 240.839 50.5268 246.42C60.355 251.118 77.2262 255.411 83.4213 254.79C86.345 254.498 87.88 252.458 86.652 250.499C86.0227 249.495 84.2731 249.007 79.836 248.598C70.7225 247.759 62.2054 245.263 52.8842 240.702C30.0826 229.543 14.5578 210.599 8.45421 186.486C5.92368 176.487 5.95138 154.945 8.51191 142.258C15.0502 109.857 33.264 76.6671 58.273 51.5782C67.9966 41.823 75.5589 35.6395 87.8107 27.4255C97.2989 21.0638 117.492 10.3925 118.372 11.2746C118.616 11.5193 117.789 13.2202 116.534 15.054C111.109 22.9847 103.967 40.9061 105.077 43.8057C106.21 46.767 108.134 44.6176 110.215 38.0683C114.094 25.8642 117.961 18.7022 126.199 8.46534C128.947 5.05023 130.899 1.93149 130.667 1.32642C130.153 -0.0187818 130.228 -0.0234125 105.587 2.65773Z" fill="#77BDF0"/>
</svg>
