<svg width="176" height="47" viewBox="0 0 176 47" fill="none" xmlns="http://www.w3.org/2000/svg">
<path fill-rule="evenodd" clip-rule="evenodd" d="M122.127 1.68299C120.542 3.29777 121.163 5.23038 123.601 6.26149C124.886 6.80488 133.379 9.63019 142.474 12.539C151.569 15.4478 159.496 18.1376 160.089 18.517C162.517 20.068 64.0478 18.1911 20.607 15.8579C8.15433 15.1893 1.98478 15.1124 1.37436 15.6184C0.218963 16.5748 0.218963 18.722 1.37436 19.6733C2.24576 20.3917 16.6081 21.3181 50.0852 22.8164C58.9826 23.2148 85.5747 23.748 109.18 24.0006L152.096 24.4612L142.854 29.0427C132.628 34.1126 122.512 40.4311 120.925 42.7394C119.714 44.4999 120.619 46.9407 122.482 46.9407C123.124 46.9407 126.682 44.9393 130.389 42.4933C142.724 34.355 165.929 24.2386 172.265 24.2386C175.879 24.2386 177.155 20.5645 174.144 18.8245C173.373 18.3786 172.24 17.4807 171.628 16.8297C170.707 15.8498 125.634 0.804199 123.621 0.804199C123.274 0.804199 122.601 1.19966 122.127 1.68299Z" fill="#77BDF0"/>
</svg>
