<svg width="305" height="124" viewBox="0 0 305 124" fill="none" xmlns="http://www.w3.org/2000/svg">
<path fill-rule="evenodd" clip-rule="evenodd" d="M147.136 0.625198C106.651 3.44305 59.8305 15.7808 33.1152 30.6706C18.5351 38.7971 6.99645 49.1971 2.61908 58.1572C0.227543 63.0517 0 63.9905 0 68.9484C0 73.851 0.221538 74.7925 2.2801 78.6301C9.50343 92.0949 34.8795 105.113 67.4409 112.059C110.606 121.266 165.456 125.542 212.196 123.341C272.595 120.497 298.665 110.664 303.567 88.8831C308.396 67.4248 294.3 46.5256 265.861 32.9752C242.165 21.6849 214.521 16.4215 174.485 15.5757C141.657 14.8824 115.407 17.8878 90.0831 25.2386C80.3274 28.0706 77.4047 29.431 77.4047 31.1407C77.4047 33.8217 79.2571 33.9377 86.5185 31.7106C115.142 22.932 147.442 19.2144 181.441 20.7865C221.869 22.6561 249.065 28.9919 271.186 41.6965C289.968 52.4837 299.243 65.3144 299.268 80.5469C299.278 86.3904 297.39 92.8853 294.612 96.5712C286.234 107.686 265.054 114.311 228.21 117.34C211.477 118.717 156.398 118.495 139.128 116.981C99.2142 113.485 62.3235 106.935 43.0797 99.9293C29.4985 94.9849 15.9227 87.1639 10.3889 81.0959C4.49615 74.634 3.48321 67.6015 7.33276 59.8656C10.9948 52.5039 23.3749 41.8915 37.0342 34.403C57.7226 23.0621 96.184 11.8885 129.119 7.65162C150.231 4.93494 184.525 4.55927 203.495 6.83621C207.885 7.36296 211.841 7.65297 212.285 7.48031C213.492 7.01224 213.943 5.30858 213.221 3.94552C211.624 0.928026 171.645 -1.08049 147.136 0.625198Z" fill="#77BDF0"/>
</svg>
