<svg width="1122" height="210" viewBox="0 0 1122 210" fill="none" xmlns="http://www.w3.org/2000/svg">
<path d="M189.189 104.837L375 104.673M189.189 104.837L3 105.001L13.6624 123.441L15.4395 126.472L17.2166 129.484L18.9936 132.474L20.7707 135.44L22.5478 138.378L24.3248 141.285L26.1019 144.161L27.879 147.001L29.6561 149.803L31.4331 152.565L33.2102 155.284L34.9873 157.957L36.7643 160.584L38.5414 163.16L40.3185 165.683L42.0955 168.153L43.8726 170.565L45.6497 172.918L47.4267 175.21L49.2038 177.439L50.9809 179.603L52.758 181.7L54.535 183.728L56.3121 185.684L58.0892 187.569L59.8662 189.378L61.6433 191.112L63.4204 192.769L65.1975 194.346L66.9745 195.843L68.7516 197.259L70.5287 198.591L72.3057 199.839L74.0828 201.002L75.8599 202.078L77.6369 203.067L79.414 203.968L81.1911 204.779L82.9682 205.501L84.7452 206.133L86.5223 206.673L88.2994 207.122L90.0764 207.479L91.8535 207.744L93.6306 207.916L95.4076 207.996L97.1847 207.983L98.9618 207.877L100.739 207.679L102.516 207.388L104.293 207.006L106.07 206.531L107.847 205.965L109.624 205.308L111.401 204.561L113.178 203.724L114.955 202.799L116.732 201.785L118.51 200.685L120.287 199.498L122.064 198.226L123.841 196.87L125.618 195.432L127.395 193.912L129.172 192.313L130.949 190.634L132.726 188.879L134.503 187.048L136.28 185.143L138.057 183.166L139.834 181.119L141.611 179.003L143.389 176.821L145.166 174.574L146.943 172.265L148.72 169.895L150.497 167.466L152.274 164.982L154.051 162.443L155.828 159.853L157.605 157.213L159.382 154.526L161.159 151.795L162.936 149.021L164.713 146.208L166.49 143.358L168.268 140.474L170.045 137.557L171.822 134.611L173.599 131.639L175.376 128.643L177.153 125.625L178.93 122.588L189.189 104.837ZM189.189 104.837L198.478 88.7529L200.255 85.7094L202.032 82.6831L203.809 79.677L205.586 76.6937L207.363 73.7358L209.14 70.8061L210.917 67.9071L212.694 65.0416L214.471 62.212L216.248 59.4209L218.025 56.6708L219.803 53.9642L221.58 51.3035L223.357 48.6912L225.134 46.1295L226.911 43.6208L228.688 41.1674L230.465 38.7714L232.242 36.435L234.019 34.1603L235.796 31.9494L237.573 29.8042L239.35 27.7266L241.127 25.7187L242.904 23.782L244.682 21.9185L246.459 20.1297L248.236 18.4173L250.013 16.7828L251.79 15.2277L253.567 13.7534L255.344 12.3613L257.121 11.0524L258.898 9.82818L260.675 8.68957L262.452 7.63763L264.229 6.6733L266.006 5.79747L267.783 5.01091L269.561 4.31434L271.338 3.70838L273.115 3.19357L274.892 2.77039L276.669 2.4392L278.446 2.20032L280.223 2.05394L282 2.00021L283.777 2.03918L285.554 2.17081L287.331 2.39497L289.108 2.71147L290.885 3.12003L292.662 3.62027L294.439 4.21175L296.217 4.89393L297.994 5.6662L299.771 6.52787L301.548 7.47815L303.325 8.5162L305.102 9.64108L306.879 10.8518L308.656 12.1472L310.433 13.5262L312.21 14.9875L313.987 16.5298L315.764 18.1517L317.541 19.8518L319.318 21.6285L321.096 23.4803L322.873 25.4054L324.65 27.4021L326.427 29.4687L328.204 31.6033L329.981 33.8039L331.758 36.0685L333.535 38.3952L335.312 40.7819L337.089 43.2263L338.866 45.7264L340.643 48.2797L342.42 50.8842L344.197 53.5373L345.975 56.2367L347.752 58.9801L349.529 61.7648L351.306 64.5884L353.083 67.4485L354.86 70.3423L356.637 73.2673L358.414 76.2208L360.191 79.2003L361.968 82.203L363.745 85.2262L365.522 88.2672L375 104.673M375 104.673L561.566 104.508M375 104.673L385.07 122.103L386.847 125.142L388.624 128.163L390.401 131.163L392.178 134.14L393.955 137.09L395.732 140.011L397.51 142.901L399.287 145.757L401.064 148.576L402.841 151.356L404.618 154.094L406.395 156.788L408.172 159.435L409.949 162.034L411.726 164.581L413.503 167.074L415.28 169.512L417.057 171.891L418.834 174.211L420.611 176.468L422.389 178.66L424.166 180.787L425.943 182.845L427.72 184.833L429.497 186.749L431.274 188.592L433.051 190.36L434.828 192.05L436.605 193.663L438.382 195.195L440.159 196.647L441.936 198.016L443.713 199.301L445.49 200.501L447.268 201.616L449.045 202.643L450.822 203.583L452.599 204.434L454.376 205.195L456.153 205.866L457.93 206.447L459.707 206.936L461.484 207.334L463.261 207.639L465.038 207.852L466.815 207.972L468.592 208L470.369 207.935L472.146 207.777L473.924 207.527L475.701 207.185L477.478 206.751L479.255 206.225L481.032 205.608L482.809 204.9L484.586 204.103L486.363 203.217L488.14 202.242L489.917 201.179L491.694 200.03L493.471 198.795L495.248 197.477L497.025 196.074L498.803 194.59L500.58 193.025L502.357 191.381L504.134 189.66L505.911 187.862L507.688 185.989L509.465 184.044L511.242 182.027L513.019 179.942L514.796 177.788L516.573 175.57L518.35 173.287L520.127 170.944L521.904 168.541L523.682 166.08L525.459 163.565L527.236 160.997L529.013 158.379L530.79 155.713L532.567 153.001L534.344 150.245L536.121 147.45L537.898 144.615L539.675 141.746L541.452 138.843L543.229 135.91L545.006 132.948L546.783 129.962L548.561 126.954L550.338 123.925L552.115 120.88L561.566 104.508M561.566 104.508L747 104.345M561.566 104.508L571.662 87.0451L573.439 84.0109L575.217 80.9956L576.994 78.0019L578.771 75.0325L580.548 72.0901L582.325 69.1773L584.102 66.2967L585.879 63.451L587.656 60.6427L589.433 57.8743L591.21 55.1482L592.987 52.4671L594.764 49.8332L596.541 47.249L598.318 44.7168L600.096 42.2388L601.873 39.8172L603.65 37.4544L605.427 35.1523L607.204 32.9131L608.981 30.7388L610.758 28.6313L612.535 26.5925L614.312 24.6243L616.089 22.7284L617.866 20.9066L619.643 19.1604L621.42 17.4915L623.197 15.9013L624.975 14.3914L626.752 12.9629L628.529 11.6173L630.306 10.3558L632.083 9.17939L633.86 8.08923L635.637 7.08628L637.414 6.17146L639.191 5.34557L640.968 4.60937L642.745 3.96351L644.522 3.40858L646.299 2.94507L648.076 2.57341L649.854 2.29392L651.631 2.10687L653.408 2.01241L655.185 2.01064L656.962 2.10155L658.739 2.28506L660.516 2.56101L662.293 2.92915L664.07 3.38914L665.847 3.94058L667.624 4.58297L669.401 5.31573L671.178 6.1382L672.955 7.04963L674.732 8.04922L676.51 9.13605L678.287 10.3092L680.064 11.5675L681.841 12.9099L683.618 14.3352L685.395 15.8421L687.172 17.4292L688.949 19.0951L690.726 20.8383L692.503 22.6573L694.28 24.5504L696.057 26.5158L697.834 28.552L699.611 30.6569L701.389 32.8287L703.166 35.0654L704.943 37.3651L706.72 39.7257L708.497 42.145L710.274 44.6209L712.051 47.1511L713.828 49.7334L715.605 52.3654L717.382 55.0448L719.159 57.7691L720.936 60.5359L722.713 63.3428L724.49 66.1871L726.268 69.0664L728.045 71.978L729.822 74.9194L731.599 77.8878L733.376 80.8806L735.153 83.8951L736.93 86.9286L747 104.345M747 104.345L933.944 104.18M747 104.345L756.478 120.763L758.255 123.809L760.032 126.838L761.809 129.847L763.586 132.835L765.363 135.797L767.14 138.731L768.917 141.635L770.694 144.506L772.471 147.342L774.248 150.139L776.025 152.896L777.803 155.61L779.58 158.278L781.357 160.898L783.134 163.468L784.911 165.985L786.688 168.447L788.465 170.853L790.242 173.199L792.019 175.483L793.796 177.705L795.573 179.86L797.35 181.949L799.127 183.968L800.904 185.916L802.682 187.791L804.459 189.592L806.236 191.317L808.013 192.964L809.79 194.532L811.567 196.019L813.344 197.424L815.121 198.747L816.898 199.984L818.675 201.137L820.452 202.202L822.229 203.181L824.006 204.071L825.783 204.872L827.561 205.583L829.338 206.203L831.115 206.732L832.892 207.17L834.669 207.516L836.446 207.77L838.223 207.931L840 207.999L841.777 207.975L843.554 207.858L845.331 207.649L847.108 207.347L848.885 206.953L850.662 206.467L852.439 205.89L854.217 205.223L855.994 204.465L857.771 203.617L859.548 202.681L861.325 201.657L863.102 200.546L864.879 199.349L866.656 198.067L868.433 196.701L870.21 195.252L871.987 193.723L873.764 192.114L875.541 190.426L877.318 188.661L879.096 186.821L880.873 184.908L882.65 182.922L884.427 180.867L886.204 178.743L887.981 176.553L889.758 174.298L891.535 171.981L893.312 169.604L895.089 167.169L896.866 164.677L898.643 162.132L900.42 159.536L902.197 156.89L903.975 154.198L905.752 151.461L907.529 148.683L909.306 145.866L911.083 143.011L912.86 140.123L914.637 137.202L916.414 134.253L918.191 131.278L919.968 128.278L921.745 125.258L923.522 122.22L933.944 104.18M933.944 104.18L1119 104.017L1110.11 88.6361L1108.34 85.5932L1106.56 82.5677L1104.78 79.5624L1103.01 76.58L1101.23 73.6231L1099.45 70.6945L1097.68 67.7968L1095.9 64.9326L1094.12 62.1044L1092.34 59.3148L1090.57 56.5663L1088.79 53.8615L1087.01 51.2026L1085.24 48.5922L1083.46 46.0325L1081.68 43.5259L1079.9 41.0746L1078.13 38.6808L1076.35 36.3468L1074.57 34.0745L1072.8 31.866L1071.02 29.7234L1069.24 27.6485L1067.46 25.6432L1065.69 23.7093L1063.91 21.8486L1062.13 20.0627L1060.36 18.3533L1058.58 16.7218L1056.8 15.1698L1055.03 13.6986L1053.25 12.3096L1051.47 11.004L1049.69 9.78301L1047.92 8.64769L1046.14 7.59909L1044.36 6.63814L1042.59 5.76571L1040.81 4.98258L1039.03 4.28947L1037.25 3.68699L1035.48 3.17568L1033.7 2.75601L1031.92 2.42836L1030.15 2.19301L1028.37 2.05018L1026.59 2L1024.82 2.04251L1023.04 2.17768L1021.26 2.40539L1019.48 2.72542L1017.71 3.1375L1015.93 3.64124L1014.15 4.2362L1012.38 4.92184L1010.6 5.69755L1008.82 6.56263L1007.04 7.51629L1005.27 8.55768L1003.49 9.68586L1001.71 10.8998L999.936 12.1985L998.159 13.5806L996.382 15.0451L994.605 16.5904L992.828 18.2154L991.051 19.9184L989.274 21.6981L987.497 23.5527L985.72 25.4805L983.943 27.48L982.166 29.5492L980.388 31.6863L978.611 33.8894L976.834 36.1565L975.057 38.4855L973.28 40.8744L971.503 43.321L969.726 45.8232L967.949 48.3785L966.172 50.9849L964.395 53.6398L962.618 56.341L960.841 59.0859L959.064 61.8722L957.287 64.6973L955.51 67.5586L953.732 70.4537L951.955 73.3798L950.178 76.3344L948.401 79.3148L946.624 82.3183L944.847 85.3423L943.07 88.3839L933.944 104.18Z" stroke="#202223" stroke-width="3"/>
</svg>
