<svg width="369" height="117" viewBox="0 0 369 117" fill="none" xmlns="http://www.w3.org/2000/svg">
<path fill-rule="evenodd" clip-rule="evenodd" d="M77.6372 2.12636C67.3639 7.21226 59.6321 20.2355 57.5174 36.0167C55.6855 49.6817 59.7681 64.2323 69.0037 76.9601C70.0611 78.4171 69.7724 78.8084 62.5894 85.6714C50.056 97.6449 35.1653 106.586 22.1079 109.976C17.6549 111.133 14.6531 111.414 8.71154 111.236C1.99836 111.034 1.02431 111.157 0.811666 112.23C0.384922 114.382 3.96475 115.947 10.0363 116.264C20.5054 116.812 36.2562 111.354 49.3896 102.629C56.7392 97.7466 66.2503 89.8143 70.1582 85.3069L73.2273 81.7673L78.6836 86.075C88.5952 93.8998 94.9627 96.1241 107.45 96.1241C118.423 96.1241 127.961 93.9311 137.184 89.288L141.05 87.3417L145.363 91.3083C151.902 97.3226 161.664 98.6518 167.629 98.6518C173.594 98.6518 177.921 98.4021 182.243 96.9698C189.856 94.4472 198.297 90.1148 205.147 85.2126L211.244 80.849L215.874 85.818C223.727 94.2439 232.154 97.5455 245.862 97.5651C254.657 97.5781 262.005 95.8708 270.85 91.7591L276.884 88.9533L283.272 95.2994C288.095 100.091 291.003 102.307 295.141 104.344C314.637 113.941 337.058 108.715 349.68 91.632C351.184 89.5979 354.609 83.6968 357.293 78.518C362.774 67.9426 362.48 67.9172 363.541 79.0646C364.038 84.2914 364.743 85.961 366.45 85.961C368.513 85.961 368.982 83.3353 368.184 76.2306C367.157 67.0831 366.054 63.5456 363.676 61.7823C361.84 60.4204 361.609 60.4045 359.897 61.518C358.896 62.1707 354.519 66.0609 350.174 70.1632C345.828 74.2655 340.382 79.2113 338.071 81.1539C333.869 84.6855 332.796 87.0492 335.012 87.8942C336.853 88.5962 338.925 87.2103 346.481 80.2189C350.403 76.5892 353.778 73.6201 353.981 73.6201C354.643 73.6201 349.854 82.5745 346.477 87.6517C341.549 95.0599 333.49 100.794 324.735 103.121C316.495 105.312 304.398 103.823 296.517 99.65C291.759 97.131 284.332 90.7725 282.779 87.8884C281.784 86.0409 281.909 85.8333 287.548 79.9873C300.596 66.4609 307.683 51.4166 307.819 36.9604C307.906 27.651 304.496 20.2893 298.722 17.3231C295.602 15.7202 290.221 16.0258 285.833 18.0556C278.506 21.4442 272.387 29.905 268.747 41.679C267.377 46.1101 267.078 48.677 267.135 55.4717C267.216 64.824 268.681 71.565 272.409 79.7332L274.64 84.6217L268.632 87.3889C260.445 91.1602 253.741 92.7376 245.817 92.7594C234.29 92.7899 226.679 90.0023 220.15 83.3593C214.966 78.0846 214.764 77.1373 218.047 73.5265C224.224 66.7339 231.38 53.7324 233.836 44.8368C235.031 40.5095 235.318 37.7974 235.087 32.9997C234.615 23.2068 231.323 18.0389 225.019 17.199C214.218 15.7602 204.714 29.362 203.349 48.2124C202.818 55.5421 204.374 65.6711 207.026 72.1559L208.782 76.4491L204.94 79.3942C190.629 90.3624 173.505 96.1575 161.765 94.0058C156.448 93.0316 150.598 90.1903 147.617 87.1341L145.398 84.8612L150.557 80.8736C165.917 69.0024 178.675 49.3296 180.158 35.2283C181.093 26.3421 177.244 17.6483 170.868 14.2444C168.168 12.8027 166.884 12.5711 163.145 12.8513C150.975 13.7631 140.69 25.6409 135.355 44.9457C133.654 51.103 133.346 53.6373 133.329 61.6422C133.31 71.0017 134.02 74.4695 137.581 82.3909C138.721 84.9295 122.746 90.4023 111.363 91.3729C99.6547 92.371 89.2682 89.0288 80.8144 81.5437L76.7815 77.9728L83.0102 68.7186C98.6492 45.4858 104.836 25.1828 100.104 12.6256C96.0252 1.80405 86.9013 -2.4601 77.6372 2.12636ZM87.8323 5.63698C90.8458 6.88777 94.4855 10.9958 95.7526 14.5754C97.2601 18.8338 96.9123 28.0764 95.0051 34.4196C92.7493 41.925 84.9744 57.2858 79.0387 65.9658C76.3204 69.9403 73.7629 73.2905 73.3559 73.4096C72.3358 73.7087 67.9412 66.8914 65.8535 61.7714C62.9547 54.6601 61.8535 47.938 62.2642 39.8641C63.1038 23.3847 71.0183 9.44452 81.6847 5.65804C85.0365 4.46823 85.0153 4.46823 87.8323 5.63698ZM170.923 20.462C178.519 28.0074 175.978 43.2876 164.438 59.4644C159.239 66.752 145.065 80.1535 142.556 80.1535C142.137 80.1535 141.039 78.2748 140.119 75.9794C138.647 72.312 138.446 70.5719 138.466 61.6422C138.493 49.7789 139.838 43.7682 144.691 33.8069C149.669 23.5901 156.879 17.7739 164.61 17.7391C167.759 17.7253 168.482 18.0367 170.923 20.462ZM297.797 22.4533C298.655 23.0043 300.135 25.0238 301.086 26.941C304.499 33.828 302.946 47.3616 297.522 57.9943C294.115 64.6744 289.021 71.7508 283.92 76.8868L278.875 81.9684L276.759 77.3957C272.242 67.634 270.717 55.6423 272.773 46.06C276.525 28.5765 289.002 16.8062 297.797 22.4533ZM227.384 23.3505C229.379 25.54 230.223 28.7834 230.266 34.4196C230.317 41.2448 228.777 46.5754 224.181 55.4717C220.757 62.1017 213.787 72.1682 212.621 72.1682C211.837 72.1682 209.837 65.7582 208.831 60.0168C207.605 53.0202 208.381 42.4013 210.549 36.5103C213.009 29.8266 215.926 25.1407 218.655 23.4877C221.576 21.7186 225.837 21.6518 227.384 23.3505Z" fill="#77BDF0"/>
</svg>
