<svg width="244" height="195" viewBox="0 0 244 195" fill="none" xmlns="http://www.w3.org/2000/svg">
<path fill-rule="evenodd" clip-rule="evenodd" d="M117.84 1.17696C105.551 3.52657 94.4383 9.8378 84.3743 20.1817C81.0511 23.5984 76.82 28.8013 74.9726 31.7441C73.1252 34.6868 71.5331 37.216 71.4342 37.3643C71.3352 37.5126 68.7612 38.0729 65.7137 38.6079C52.9088 40.8582 36.0435 50.1397 25.9281 60.5027C15.6526 71.0301 6.3756 90.6487 2.35301 110.359C-0.758721 125.611 0.612101 153.117 5.4451 172.384C9.24035 187.512 12.38 194.168 15.7206 194.168C17.4781 194.168 17.6601 193.928 17.312 192.066C17.0952 190.911 15.6723 186.938 14.1496 183.24C8.868 170.413 5.88694 151.389 5.92243 130.727C5.94283 118.64 6.19886 115.533 7.68449 109.326C12.4488 89.4142 21.2115 71.7601 30.8457 62.6628C38.1062 55.8073 52.3763 47.4346 61.2886 44.803C66.8096 43.1726 68.4667 43.2047 67.719 44.9291C65.0921 50.9843 60.3392 67.2007 59.0144 74.6287C57.5885 82.6184 57.4427 85.5252 57.806 98.6247C58.2629 115.057 59.2962 121.369 62.7523 128.844C67.1827 138.425 73.342 143.148 81.4083 143.148C94.1558 143.148 106.879 133.422 114.284 118.018C123.091 99.6955 121.736 73.8391 111.128 57.787C104.004 47.0081 92.9134 39.7499 80.7739 37.9215L77.172 37.3789L80.3962 32.6727C89.5555 19.3035 103.467 9.50072 117.422 6.58397C128.531 4.26111 137.629 5.5605 148.574 11.031C165.43 19.4556 176.139 35.565 182.413 61.9359C184.839 72.13 185.573 76.8927 187.827 97.0524C189.815 114.831 190.565 117.115 194.577 117.597C198.466 118.065 200.233 115.386 207.84 97.4781C215.506 79.4326 219.173 72.156 232.174 49.2018C238.541 37.9605 243.381 28.5911 243.23 27.8C243.058 26.8935 242.309 26.3936 241.124 26.3936C239.517 26.3936 237.968 28.7081 228.839 44.738C215.769 67.6907 211.105 76.9087 203.318 95.1927C196.897 110.265 195.936 112.092 194.955 111.077C194.632 110.745 193.814 105.141 193.136 98.6247C188.157 50.784 179.443 27.6892 160.672 12.5895C148.636 2.90744 131.988 -1.52808 117.84 1.17696ZM84.3493 43.9989C90.5237 45.6262 95.6158 48.5827 100.962 53.6419C106.622 59.0008 110.134 64.8098 112.601 72.8951C114.291 78.4351 114.503 80.4607 114.494 90.9812C114.484 101.77 114.303 103.375 112.465 108.943C109.813 116.981 106.909 121.938 101.292 128.014C91.2359 138.893 77.9756 141.39 71.5157 133.621C66.2703 127.312 64.077 119.69 62.8097 103.365C61.3399 84.4314 64.6042 64.9826 72.1048 47.9865C74.3155 42.9777 74.4628 42.8271 77.1433 42.8271C78.6621 42.8271 81.9045 43.3545 84.3493 43.9989Z" fill="#77BDF0"/>
</svg>
