<svg width="187" height="136" viewBox="0 0 187 136" fill="none" xmlns="http://www.w3.org/2000/svg">
<path fill-rule="evenodd" clip-rule="evenodd" d="M160.534 2.51303C159.073 4.77614 149.013 29.9813 147.896 34.173C146.782 38.3517 147.412 40.422 149.795 40.422C151.305 40.422 151.768 39.8589 152.46 37.1836C153.439 33.3973 156.194 25.8452 159.838 16.9611C161.262 13.4872 162.77 9.74508 163.189 8.64553C163.768 7.12612 164.163 6.85866 164.838 7.53226C165.512 8.20586 165.505 8.63791 164.809 9.33284C164.133 10.008 163.892 17.0358 163.887 36.193C163.879 69.8356 162.723 79.676 157.058 94.3001C150.903 110.192 137.228 123.5 122.455 127.975C105.951 132.974 87.875 129.411 75.053 118.633L72.2076 116.24L78.0633 112.43C86.4218 106.992 97.0937 95.664 101.073 88.0068C105.432 79.618 106.928 74.0639 106.446 68.0587C105.665 58.354 99.6331 52.6139 90.2144 52.6139C77.9069 52.6139 68.1096 61.0468 62.5287 76.4444C57.8575 89.3327 57.7057 100.141 62.0616 109.707C64.288 114.594 64.3483 114.525 56.2738 116.371C36.1664 120.967 19.7846 113.953 11.6047 97.2437C7.19461 88.2354 6.28709 83.5393 6.29243 69.7587C6.29625 59.0748 6.54813 56.577 8.32958 49.5659C12.6489 32.5682 17.4765 22.6654 26.0624 13.1946C29.7665 9.10806 30.3374 6.75732 27.7462 6.25898C24.0489 5.54804 12.2833 21.3715 8.24562 32.4859C0.65881 53.369 -1.14554 70.5252 2.50743 87.0238C6.33365 104.301 18.1962 117.55 33.476 121.61C41.5062 123.743 59.2253 122.224 65.5191 118.861C66.7976 118.178 67.6456 118.615 71.0665 121.72C82.4193 132.02 98.3439 136.859 114.311 134.86C127.657 133.189 137.063 128.364 147.483 117.843C155.579 109.669 159.573 103.07 163.445 91.4754C167.978 77.9013 168.616 72.2428 169.144 40.9143L169.618 12.8311L176.397 22.0947C181.803 29.4814 183.504 31.3109 184.793 31.1273C187.693 30.7143 187.049 28.0557 182.516 21.7213C177.387 14.5548 168.917 4.01796 166.769 2.13204C164.661 0.280401 161.863 0.451087 160.534 2.51303ZM96.7266 59.3567C102.288 63.3389 102.827 72.5841 98.0791 82.5456C94.7131 89.607 90.048 95.8469 83.99 101.391C79.2868 105.696 71.0642 111.268 69.398 111.28C67.6235 111.292 64.7009 103.525 64.2155 97.5042C63.1332 84.0909 69.9804 67.5298 79.367 60.8571C84.5266 57.1889 92.7118 56.4817 96.7266 59.3567Z" fill="#77BDF0"/>
</svg>
