<svg width="224" height="121" viewBox="0 0 224 121" fill="none" xmlns="http://www.w3.org/2000/svg">
<path fill-rule="evenodd" clip-rule="evenodd" d="M110.118 3.01476C108.951 8.51935 105.133 18.3941 100.065 29.0203L94.5749 40.5285L87.3642 41.0863C64.1474 42.8814 33.1653 53.381 18.9092 64.284C7.04541 73.3584 1.17433 82.2679 0.463147 92.2766C-0.531045 106.265 6.08285 116.239 18.6197 119.657C23.3223 120.938 24.7203 120.998 29.7748 120.13C50.1655 116.632 69.2279 97.769 90.1505 60.3883C93.2928 54.7735 96.4457 49.1194 97.1561 47.825L98.4479 45.4696L109.574 46.0347C155.839 48.3844 193.77 57.7349 214.555 71.9145C219.567 75.3341 222.214 75.896 223.044 73.717C224.932 68.7637 198.288 55.5118 174.221 49.433C156.365 44.924 125.878 40.7874 110.497 40.7874C105.775 40.7874 101.707 40.58 101.456 40.326C101.203 40.0728 103.168 35.2607 105.821 29.6336C112.403 15.6712 115.851 5.21088 114.706 2.67991C113.478 -0.0340049 110.721 0.166905 110.118 3.01476ZM90.7319 47.9336C89.6542 50.7692 79.3822 68.339 73.662 77.1308C62.5394 94.2253 51.6738 105.015 39.3177 111.234C33.0534 114.386 32.0413 114.646 25.9262 114.672C17.2541 114.707 12.3886 112.399 8.79944 106.549C6.52886 102.846 6.36018 102.027 6.36992 94.7504C6.38208 85.3591 7.60576 82.49 14.6835 75.2467C22.2746 67.479 31.2142 61.9776 44.8231 56.6985C57.5473 51.7631 78.8349 46.7396 87.7412 46.5713C90.7854 46.5133 91.199 46.702 90.7319 47.9336Z" fill="#77BDF0"/>
</svg>
