<svg width="265" height="170" viewBox="0 0 265 170" fill="none" xmlns="http://www.w3.org/2000/svg">
<path fill-rule="evenodd" clip-rule="evenodd" d="M19.9852 1.5839C18.1194 3.49535 13.8507 11.9865 10.6194 20.2141C-0.778638 49.2335 -3.04357 83.1289 4.87645 106.161C7.52148 113.852 14.0329 124.47 19.2506 129.6C26.7937 137.016 35.8852 140.935 44.148 140.333C47.5199 140.087 47.7413 140.19 48.405 142.308C48.7903 143.538 50.4328 148.209 52.9148 152.508C56.1498 158.111 58.1613 160.196 63.159 163.528C74.981 171.411 87.9396 170.828 103.836 161.699C117.575 153.809 128.535 141.508 136.814 124.685C138.565 121.127 140.095 118.159 140.214 118.091C140.333 118.022 141.527 119.854 142.867 122.162C149.719 133.961 159.296 140.254 171.349 140.88C183.344 141.503 194.393 136.688 202.36 127.365C207.262 121.629 212.367 112.024 214.947 103.68L216.743 97.8728L220.957 100.632C226.15 104.033 234.569 106.587 240.118 106.448C248.556 106.235 255.126 103.402 261.26 97.3323C265.019 93.6124 265.694 91.3103 263.22 90.6475C261.85 90.2804 261.368 90.566 258.298 93.5708C248.346 103.305 234.803 104.233 222.78 96.0028C218.831 93.299 218.06 92.501 218.197 91.2535C219.038 83.5153 219.224 74.4907 218.62 70.748C217.597 64.4155 213.458 56.9897 210.158 55.5655C204.909 53.3003 200.82 56.8822 200.522 64.0052C200.201 71.6674 206.081 87.0149 211.341 92.2451C212.705 93.601 212.67 94.3126 210.95 100.226C208.565 108.429 203.839 118.029 199.536 123.413C196.736 126.917 195.214 128.162 190 131.216C182.717 135.481 178.562 136.52 170.802 136.014C160.572 135.346 154.729 131.291 147.526 119.86L142.815 112.383L145.533 102.748C151.838 80.388 150.094 63.4135 141.382 62.3833C139.331 62.1406 138.865 62.3479 137.151 64.2699C131.563 70.5345 131.046 88.507 135.968 105.388C136.738 108.028 137.156 111.186 136.896 112.406C136.253 115.432 130.244 127.525 126.702 132.921C120.152 142.9 109.916 153.049 101.658 157.755C85.0173 167.236 70.0332 165.997 60.14 154.322C57.395 151.083 55.383 147.328 53.1404 141.26L52.3443 139.104L58.9665 135.25C73.4775 126.804 83.5501 112.271 87.4727 94.118C89.9567 82.6262 88.3924 74.1109 82.9015 69.2315C75.9619 63.0651 65.5378 65.0889 58.346 73.9993C51.8446 82.0554 46.0113 99.2471 45.3506 112.299C45.0397 118.431 45.8874 132.5 46.6469 133.815C47.9416 136.058 40.801 136.131 34.352 133.942C21.8176 129.686 10.0578 112.671 6.61921 93.8136C4.53407 82.379 4.57011 65.5991 6.70762 52.3915C9.12676 37.4473 17.3044 13.8376 22.8074 5.91138C24.4781 3.50404 25.1902 1.78133 24.7985 1.09272C23.9672 -0.367286 21.6597 -0.132485 19.9852 1.5839ZM72.8617 70.5579C76.5764 70.1954 79.9408 72.1279 82.0552 75.8389C87.6788 85.7087 79.4744 111.041 66.5494 123.716C63.0393 127.159 53.0065 133.646 51.7147 133.309C50.4687 132.984 49.7273 115.176 50.6478 107.679C52.1835 95.1714 56.8068 83.2024 62.7507 76.349C66.0287 72.5687 68.8578 70.9486 72.8617 70.5579ZM143.15 70.077C145.278 75.6462 144.77 87.5621 141.977 97.5335C140.299 103.528 139.7 102.875 138.168 93.3867C136.774 84.7459 136.955 78.4419 138.774 72.3198C140.45 66.6733 141.62 66.0742 143.15 70.077ZM208.572 60.0149C210.27 61.3903 212.544 65.9746 213.529 70.0081C214.582 74.3232 214.527 85.9775 213.451 86.5989C212.39 87.2114 207.381 76.3958 206.109 70.746C204.516 63.6692 205.859 57.8175 208.572 60.0149Z" fill="#77BDF0"/>
</svg>
