<svg width="108" height="112" viewBox="0 0 108 112" fill="none" xmlns="http://www.w3.org/2000/svg">
<path fill-rule="evenodd" clip-rule="evenodd" d="M0.763645 2.16127C0.497376 2.85758 0.677976 3.98869 1.16421 4.67572C3.26426 7.63968 4.46131 10.5696 9.03188 23.9341L13.8687 38.0754L11.0764 44.0497C-0.394048 68.5923 -1.80952 99.0907 8.04321 109.404C13.0522 114.647 20.3178 110.437 23.6659 100.353C27.8737 87.6766 26.8356 67.1873 20.8434 44.6439C19.3184 38.9055 19.4171 38.5868 24.9139 31.5672C29.0198 26.3224 37.0804 19.5094 43.386 15.9544C50.1986 12.1123 56.461 10.7259 65.376 11.0849C71.8567 11.3456 73.4605 11.7054 77.8883 13.8902C85.5267 17.6604 90.9116 23.5055 95.4443 32.9474C100.764 44.0273 101.916 49.2968 101.886 62.4029C101.868 71.0333 101.44 75.3225 99.7849 83.5073C98.6418 89.1575 97.9156 94.119 98.1703 94.5322C98.8263 95.596 101.294 95.4652 102.229 94.3171C103.38 92.9044 106.202 78.5016 107.02 69.8658C108.389 55.405 106.228 43.3248 99.9415 30.2953C96.7617 23.7051 95.0553 21.2224 90.9007 17.1428C82.6518 9.04236 74.3226 5.52444 63.4573 5.55075C52.2161 5.5786 42.96 8.98123 32.9946 16.749C28.407 20.3249 20.8504 27.917 18.8005 31.0094C17.8766 32.4036 17.4576 32.6016 17.1635 31.7831C16.9466 31.1773 14.9847 25.4598 12.8036 19.077C8.56726 6.68032 7.44507 4.07457 5.50478 2.12954C3.90948 0.530353 1.38185 0.547374 0.763645 2.16127ZM18.1529 55.8266C22.8208 77.6126 21.7588 98.1932 15.6245 104.828C13.3315 107.309 12.0782 106.942 9.96343 103.171C4.68822 93.7616 6.29355 69.2283 13.34 51.5838C14.7092 48.1549 15.6184 46.7344 15.9989 47.4261C16.3176 48.004 17.2862 51.7842 18.1529 55.8266Z" fill="#77BDF0"/>
</svg>
