<svg width="161" height="84" viewBox="0 0 161 84" fill="none" xmlns="http://www.w3.org/2000/svg">
<path fill-rule="evenodd" clip-rule="evenodd" d="M57.1827 1.29246C32.3949 6.15085 8.43686 24.5413 1.7194 43.8657C-2.47473 55.9328 1.65299 68.8388 11.942 75.8291C16.8044 79.1324 21.6719 80.9284 29.3368 82.2469C48.5396 85.5501 68.8333 81.2714 101.633 67.004C116.193 60.6708 151.444 42.6944 154.378 40.1068L155.985 38.6897V41.8493C155.985 46.1125 153.979 53.3691 149.252 66.2088C147.081 72.1061 145.493 77.4146 145.723 78.0062C146.236 79.324 148.391 79.4127 149.445 78.1597C150.727 76.6356 157.444 58.0732 159.275 50.9948C163.269 35.5484 160.335 31.5789 146.472 33.67C129.684 36.2027 117.107 38.2368 115.898 38.615C114.282 39.1214 114.152 41.4513 115.692 42.3014C116.912 42.9741 119.823 42.648 136.468 39.9723C142.424 39.0144 147.565 38.2382 147.893 38.2474C149.368 38.2868 113.663 56.5477 102.433 61.4962C74.594 73.7655 58.0931 78.3774 42.0327 78.3774C23.5226 78.3774 12.1155 73.3711 6.9517 62.9823C4.35411 57.7556 4.23273 49.7757 6.66181 43.9404C14.2889 25.6196 39.573 7.86587 61.3847 5.51485C68.3642 4.76264 68.8747 4.57247 68.8747 2.72504C68.8747 -0.055608 65.9123 -0.418332 57.1827 1.29246Z" fill="#77BDF0"/>
</svg>
