<svg width="141" height="132" viewBox="0 0 141 132" fill="none" xmlns="http://www.w3.org/2000/svg">
<path d="M30.4262 1.9581C24.6695 8.71385 19.5067 15.9261 15.0749 23.6404C10.6432 31.3547 7.26223 39.0234 4.70368 47.1942C3.4701 51.1198 2.51065 55.1368 1.82532 59.1994C1.14 63.2619 0.50036 67.2332 0.728802 71.2045C0.911555 74.2172 1.59688 77.3668 3.33304 79.923C4.88644 82.1598 6.9881 83.7574 9.54665 84.6703C14.5724 86.4049 20.2834 84.9442 24.8065 82.5706C31.7512 78.9188 38.2389 74.3085 44.1327 69.2417C50.0265 64.1749 55.7375 58.0582 60.5805 51.5763C62.9563 48.381 65.1493 45.0945 67.2053 41.6709C68.2104 39.982 69.2156 38.2931 70.038 36.5128C70.906 34.5957 71.7284 32.4959 71.5914 30.3505C71.4543 28.342 70.6776 26.5618 68.9871 25.375C68.3475 24.9185 67.6165 24.599 66.8855 24.4164C65.3778 24.0056 63.733 24.1425 62.2709 24.6446C58.7073 25.9227 55.7832 28.6616 53.316 31.4004C49.9808 35.0521 47.1481 39.1604 44.4525 43.3142C41.6198 47.6963 39.0156 52.261 36.5484 56.8714C34.3554 60.9339 32.2994 65.0878 30.3805 69.2873C29.1012 72.1174 27.8677 74.9475 26.8168 77.8233C25.6289 81.1099 24.8065 84.4421 24.441 87.9113C24.1212 91.1522 24.304 94.5757 25.5376 97.5884C26.9996 101.103 29.6495 103.751 33.2132 105.029C37.4165 106.49 41.9853 105.394 45.9145 103.705C49.8437 102.016 53.0876 99.6882 56.4228 97.2232C59.7581 94.7583 63.0476 92.0651 66.1088 89.2807C72.1853 83.7118 77.6679 77.5038 82.4652 70.7937C84.841 67.5071 87.034 64.0836 89.0443 60.5231C90.9632 57.1909 93.2933 53.5848 93.1562 49.5678C93.0649 46.0074 90.9632 42.8121 87.2625 42.4469C85.4349 42.2643 83.5617 42.949 82.0083 43.9076C80.2264 44.9575 78.6274 46.4182 77.074 47.742C71.3629 52.7631 66.5657 58.7885 62.5451 65.2247C59.1641 70.5654 56.3315 76.2257 53.9557 82.1141C52.8135 84.9899 51.7626 87.9113 50.7575 90.8327C50.0265 92.9781 49.3412 95.1235 48.9757 97.3602C48.7929 98.5927 48.6101 99.8708 48.6558 101.149C48.6558 101.879 48.8386 102.655 48.93 103.386C49.5696 107.037 50.8946 110.826 53.5902 113.474C55.9203 115.756 59.0728 116.806 62.3166 116.76C65.9717 116.714 69.444 115.482 72.7336 113.93C76.48 112.15 79.9523 109.867 83.2419 107.357C87.0797 104.435 90.7348 101.286 94.2071 97.8623C97.6794 94.4388 100.786 91.0153 103.756 87.3635C106.543 83.94 109.193 80.3339 111.523 76.5452C113.35 73.5781 115.041 70.3829 116.092 67.0506C116.503 65.7269 116.777 64.3118 116.868 62.9424C116.914 61.2535 115.909 59.7928 114.538 58.8798C112.985 57.8756 111.02 57.8299 109.239 58.1038C105.629 58.6516 102.614 61.1165 99.9181 63.3989C96.9941 65.9095 94.4355 68.7396 92.1054 71.7979C87.4909 77.8233 84.11 84.716 81.323 91.7913C78.536 98.8665 76.2516 106.353 74.4697 113.793C73.8758 116.167 73.5103 118.632 73.8301 121.051C74.0585 122.74 74.6068 124.155 75.5662 125.524C76.7998 127.259 78.3075 128.811 80.2264 129.815C84.0186 131.824 88.496 131.687 92.5623 130.682C97.3596 129.496 101.928 127.213 106.177 124.703C111.02 121.873 115.589 118.586 120.021 115.117C124.087 111.967 128.016 108.681 131.854 105.303C134.504 102.975 137.108 100.555 139.758 98.1818C140.626 97.3602 140.626 95.7625 139.758 94.9409C138.799 94.0736 137.474 94.0736 136.514 94.9409C133.865 97.3145 131.26 99.6882 128.61 102.062C124.91 105.303 121.163 108.498 117.28 111.511L116.914 111.785C116.64 112.013 116.366 112.195 116.092 112.424C115.544 112.834 114.995 113.245 114.447 113.656C113.396 114.432 112.3 115.208 111.203 115.984C109.056 117.49 106.863 118.951 104.624 120.275C102.522 121.553 100.329 122.74 98.0906 123.79C97.588 124.018 97.0397 124.246 96.5372 124.474C96.1717 124.657 96.9941 124.292 96.5829 124.474L96.1717 124.657C95.8975 124.748 95.6691 124.84 95.395 124.977C94.3898 125.342 93.339 125.707 92.3338 125.981C91.3744 126.255 90.3693 126.483 89.4098 126.62C89.2727 126.62 89.1357 126.62 89.0443 126.666C88.9072 126.666 89.6382 126.574 89.227 126.666C88.9986 126.666 88.7245 126.711 88.496 126.757C88.0391 126.757 87.5823 126.802 87.1711 126.802C86.7599 126.802 86.2573 126.802 85.8004 126.757H85.5263C85.1608 126.711 85.572 126.757 85.7547 126.757C85.5263 126.711 85.2979 126.711 85.0694 126.666C84.6582 126.574 84.247 126.483 83.8358 126.346C83.6531 126.3 83.4703 126.209 83.2419 126.163C83.1505 126.163 83.0591 126.072 82.9678 126.072C83.1962 126.118 83.4703 126.3 83.1048 126.118C82.7393 125.935 82.3281 125.753 82.0083 125.524C81.8255 125.433 81.6885 125.342 81.5514 125.205C81.46 125.159 81.3687 125.068 81.2773 125.022C81.2316 125.022 81.7342 125.387 81.4143 125.114C81.0945 124.84 80.729 124.52 80.4549 124.201C80.3178 124.064 80.1808 123.927 80.0437 123.744C79.9523 123.653 79.9066 123.562 79.8153 123.47C79.5411 123.105 79.9066 123.607 79.8609 123.562C79.5868 123.151 79.3127 122.74 79.0386 122.329C78.9015 122.146 78.8101 121.918 78.7187 121.736C78.7187 121.69 78.6274 121.599 78.6274 121.507C78.6274 121.599 78.7187 121.873 78.673 121.599C78.6274 121.325 78.536 121.051 78.4446 120.777C78.4446 120.686 78.3532 120.092 78.3989 120.412C78.3989 120.138 78.3532 119.864 78.3532 119.545C78.3532 118.997 78.3532 118.403 78.3989 117.856C78.3989 117.719 78.3989 117.627 78.3989 117.49C78.3989 117.536 78.3989 117.764 78.3989 117.49C78.3989 117.262 78.4903 116.988 78.536 116.76C78.6274 116.167 78.7644 115.619 78.9015 115.071C80.6376 107.859 82.8307 100.692 85.4806 93.7997C85.8004 92.9781 86.1202 92.1108 86.4858 91.2891C86.5771 91.0609 86.6685 90.8327 86.7599 90.6044C86.9426 90.1936 86.6685 90.787 86.8513 90.3762C87.034 89.9197 87.2168 89.5089 87.4452 89.0524C88.1762 87.4091 88.9529 85.7659 89.7753 84.1682C91.4201 81.0186 93.2476 77.9146 95.3493 75.0388C95.6234 74.6737 95.8519 74.3541 96.126 73.989C95.8975 74.3085 96.1717 73.9433 96.263 73.8064C96.4001 73.6238 96.5372 73.4412 96.7199 73.2586C97.2682 72.5739 97.8621 71.8892 98.4561 71.2045C99.644 69.8807 100.878 68.6483 102.203 67.4614C102.842 66.868 103.527 66.3203 104.167 65.7725C104.35 65.6356 104.533 65.4986 104.715 65.316C105.035 65.0422 104.533 65.453 104.898 65.1791C105.264 64.9052 105.675 64.6313 106.04 64.3575C106.634 63.901 107.274 63.5358 107.959 63.1706C108.096 63.0793 108.279 63.0337 108.416 62.9424C107.914 63.1706 108.416 62.9424 108.599 62.8968C108.964 62.7598 109.33 62.6685 109.741 62.5772C109.924 62.5772 110.061 62.4859 110.244 62.4859C110.289 62.4859 110.426 62.4403 110.472 62.4859C110.472 62.4859 110.015 62.4859 110.289 62.4859C110.655 62.4859 111.02 62.4403 111.386 62.4859C111.477 62.4859 111.934 62.4859 111.614 62.4859C111.295 62.4859 111.751 62.4859 111.888 62.5772C111.98 62.5772 112.208 62.7142 112.3 62.7142C112.254 62.7142 111.934 62.4859 112.071 62.6229C112.117 62.6685 112.3 62.7598 112.345 62.8055C112.071 62.4859 112.665 62.988 112.345 62.8055L112.619 63.2619C112.619 63.2619 112.528 62.2577 112.482 62.6229C112.482 62.8968 112.482 63.1706 112.482 63.3989C112.482 63.5358 112.482 63.6271 112.482 63.764C112.482 64.1292 112.574 63.125 112.482 63.4445V63.6728C112.391 63.9466 112.345 64.2662 112.254 64.54C112.117 65.1791 111.934 65.7725 111.751 66.3659C111.66 66.6854 111.523 67.0506 111.386 67.3702C111.34 67.5527 111.249 67.6897 111.203 67.8723L111.112 68.1005C110.929 68.5113 111.249 67.8266 111.203 67.9179C110.883 68.6483 110.563 69.3786 110.198 70.0633C109.421 71.661 108.508 73.213 107.594 74.7193C106.543 76.4082 105.401 78.0515 104.258 79.6948C103.619 80.5621 102.979 81.3838 102.34 82.251C102.02 82.6619 102.614 81.9315 102.34 82.251L102.111 82.5249C102.111 82.5249 101.746 82.9814 101.563 83.2096C101.243 83.6205 100.878 84.0769 100.558 84.4877C97.6794 88.0026 94.5726 91.4261 91.3287 94.6214C89.6839 96.219 88.0392 97.8167 86.303 99.323C85.4806 100.053 84.6125 100.784 83.7445 101.514C83.3333 101.879 82.9221 102.199 82.4652 102.518C82.2367 102.701 82.054 102.838 81.8255 103.02C81.7342 103.112 81.6428 103.157 81.5514 103.249C81.5514 103.249 82.0083 102.883 81.7342 103.112L81.5514 103.249C78.3532 105.668 74.9723 107.95 71.3629 109.73C70.9517 109.913 70.5862 110.096 70.175 110.278C69.9923 110.37 69.7638 110.461 69.5811 110.552C69.2156 110.735 69.9009 110.415 69.7638 110.461C69.6268 110.507 69.5354 110.552 69.3983 110.598C68.6216 110.917 67.8449 111.191 67.0682 111.419C66.3372 111.648 65.6062 111.83 64.8295 111.967C64.6467 111.967 64.464 112.013 64.2812 112.058H64.0071C63.5959 112.195 64.3269 112.058 64.2355 112.058C63.87 112.058 63.5045 112.15 63.139 112.15C62.4537 112.15 61.8141 112.15 61.1287 112.15C61.0374 112.15 60.946 112.15 60.8546 112.15C60.4891 112.15 61.3115 112.241 61.1744 112.15C60.9917 112.15 60.8546 112.104 60.6719 112.058C60.352 112.013 60.0779 111.922 59.7581 111.83C59.4383 111.739 59.1641 111.602 58.8443 111.511C58.9357 111.511 59.4383 111.785 59.1185 111.648L58.89 111.556C58.89 111.556 58.6159 111.419 58.4788 111.328C58.2047 111.191 57.9306 111.009 57.6564 110.826C57.6107 110.826 57.5194 110.735 57.4737 110.689C57.1539 110.461 57.8849 111.054 57.6564 110.826C57.5194 110.735 57.428 110.643 57.2909 110.507C57.0168 110.278 56.7883 110.05 56.5599 109.776C56.4685 109.685 56.3315 109.548 56.2401 109.411C56.1944 109.32 56.1487 109.274 56.0573 109.183C56.0117 109.137 56.4228 109.685 56.1944 109.365C55.7375 108.772 55.372 108.133 55.0522 107.448C54.9608 107.266 54.8694 107.083 54.7781 106.9L54.6867 106.627C54.5496 106.307 54.9151 107.22 54.7324 106.718C54.5953 106.307 54.4126 105.896 54.2755 105.531C54.0014 104.618 53.7272 103.659 53.5445 102.747C53.4531 102.199 53.3617 101.697 53.2704 101.149C53.2247 100.738 53.2704 101.651 53.2704 101.24C53.2704 101.012 53.2704 100.738 53.2704 100.51C53.2704 99.9621 53.316 99.3687 53.4074 98.8209C53.4074 98.8209 53.4531 98.4101 53.4074 98.6383C53.3617 98.8665 53.4074 98.4557 53.4074 98.4557C53.4531 98.1818 53.4988 97.9079 53.5445 97.6341C53.6359 97.0863 53.7729 96.5385 53.91 95.9451C54.1841 94.8952 54.5039 93.891 54.8238 92.8868C55.8289 89.8741 56.8797 86.907 58.0219 83.9856C58.2504 83.3922 58.4788 82.8445 58.7073 82.2967C58.7529 82.1598 58.8443 82.0228 58.89 81.8859C58.7529 82.1598 58.7986 82.2054 58.89 81.8859C59.0271 81.5663 59.1641 81.2468 59.3012 80.9273C59.8495 79.6492 60.4434 78.3711 61.0831 77.0929C62.4537 74.2628 64.0071 71.4784 65.6519 68.7396C66.5657 67.2789 67.4794 65.8182 68.4389 64.4031C68.9414 63.6728 69.444 62.988 69.9466 62.3033C70.2207 61.9382 70.4492 61.6186 70.7233 61.2535C70.8604 61.0709 70.9517 60.9339 71.0888 60.7514C71.0888 60.7057 71.3629 60.3862 71.2259 60.5688C71.0888 60.7513 71.3172 60.4318 71.3629 60.3862C73.6016 57.5104 76.0688 54.7716 78.7187 52.261C80.0894 50.9829 81.46 49.7961 82.9221 48.6549C82.6479 48.8831 83.0591 48.5636 83.1505 48.518C83.3333 48.381 83.516 48.2441 83.6988 48.1071C84.11 47.8333 84.5212 47.5594 84.978 47.3768C85.1608 47.2855 85.5263 47.1486 85.1151 47.2855C85.2979 47.1942 85.4806 47.1486 85.7091 47.1029C85.8461 47.0573 86.0289 47.0116 86.2116 46.966C86.7599 46.829 85.8461 46.966 86.3487 46.966C86.4857 46.966 86.6228 46.966 86.7599 46.966C86.8513 46.966 87.3538 47.0116 86.9426 46.966C86.5314 46.9203 87.034 46.966 87.1711 47.0116C87.2625 47.0116 87.765 47.1942 87.3995 47.0573C87.034 46.9203 87.3995 47.0573 87.5366 47.1486C87.5366 47.2399 88.0392 47.4224 87.5366 47.1486C87.5366 47.1486 87.765 47.3768 87.8107 47.4224C87.8107 47.4224 87.9021 47.5137 87.9478 47.5594C88.2219 47.8333 87.8107 47.5137 87.8564 47.4224L88.2676 48.1071C88.1305 47.605 88.4503 48.4267 88.2676 48.1071C88.3133 48.2441 88.359 48.4267 88.4047 48.5636C88.4047 48.7006 88.4503 48.8375 88.496 48.9744C88.5874 49.3853 88.496 48.518 88.496 49.0657C88.496 49.4309 88.496 49.7504 88.496 50.1156C88.496 50.2982 88.496 50.5264 88.496 50.709C88.496 50.9829 88.496 50.5721 88.496 50.5264C88.496 50.6177 88.496 50.709 88.496 50.8003C88.4047 51.2111 88.3133 51.622 88.1762 52.0328C88.1305 52.2154 88.0392 52.398 87.9935 52.5805C87.9478 52.7175 87.7193 53.2196 87.9021 52.8544C87.6736 53.3109 87.4452 53.7217 87.2168 54.1782C86.303 55.8671 85.3892 57.5561 84.4298 59.245C82.4652 62.6229 80.3178 65.9095 78.0334 69.0591C77.4395 69.8807 76.8455 70.6567 76.2516 71.4327L76.0688 71.7066C76.0688 71.7066 75.749 72.1174 75.6119 72.3C75.2921 72.6652 75.018 73.0304 74.6982 73.4412C73.4646 74.9475 72.1853 76.4539 70.906 77.9146C68.3018 80.836 65.5148 83.6205 62.6365 86.2223C61.1744 87.5461 59.7124 88.8242 58.2047 90.0567C57.428 90.6957 56.6513 91.2891 55.8746 91.9282C55.5548 92.1564 55.966 91.8825 55.6461 92.1108L55.0979 92.5216C54.6867 92.8411 54.2755 93.1607 53.8643 93.4345C50.6661 95.7625 47.3766 98.0905 43.7215 99.6882C44.0413 99.5512 43.4931 99.7795 43.4474 99.8251C43.2189 99.9164 42.9448 100.008 42.7164 100.099C42.2595 100.282 41.8026 100.419 41.3457 100.555C40.8888 100.692 40.4319 100.784 39.9751 100.875C39.7466 100.921 39.4725 100.966 39.244 101.012C39.244 101.012 38.8785 101.058 39.107 101.012C39.3354 100.966 38.9242 101.012 38.8785 101.012C38.4216 101.012 37.9648 101.058 37.5079 101.058C37.2794 101.058 37.0967 101.058 36.8683 101.058C36.7769 101.058 36.6398 101.058 36.5484 101.058C36.4571 101.058 35.9545 100.966 36.4114 101.058C36.0002 101.012 35.589 100.921 35.1778 100.784C34.9493 100.738 34.7209 100.647 34.4925 100.555C34.4011 100.555 34.3097 100.464 34.1726 100.464C34.4011 100.555 34.264 100.51 34.127 100.464C33.7158 100.282 33.3503 100.053 32.9847 99.8251C32.8477 99.7338 32.7106 99.6425 32.5736 99.5512C32.3908 99.4143 32.1167 99.1404 32.4365 99.4599C32.1624 99.2317 31.8882 99.0035 31.6598 98.7752C31.5227 98.6383 31.3857 98.5014 31.2943 98.3644C31.2486 98.2731 30.8374 97.8623 31.0658 98.0905C31.2943 98.3188 30.9745 97.9536 30.9288 97.8623C30.8374 97.7254 30.7003 97.5428 30.609 97.4058C30.4262 97.1319 30.2434 96.8124 30.1064 96.4929C30.0607 96.3559 29.8779 96.1277 29.8779 95.9908C29.8779 95.9908 30.0607 96.4016 29.9693 96.1734C29.9693 96.0821 29.9236 96.0364 29.8779 95.9451C29.7409 95.5799 29.6038 95.2148 29.5124 94.8496C29.3297 94.2105 29.0556 93.4345 29.0556 92.7498C29.0556 93.2063 29.0556 92.8411 29.0556 92.6129C29.0556 92.4303 29.0556 92.2477 29.0556 92.1108C29.0556 91.7 29.0099 91.2891 29.0099 90.8783C29.0099 90.1023 29.0099 89.3263 29.0556 88.5503C29.0556 88.1395 29.1012 87.7743 29.1469 87.3635C29.1469 87.1353 29.1926 86.8157 29.1469 87.2266C29.1469 86.9983 29.2383 86.7244 29.2383 86.4962C29.6952 83.7117 30.5176 81.0642 31.4313 78.4167C31.8425 77.2755 32.2994 76.1344 32.7563 74.9932C32.5279 75.5409 32.6192 75.3127 32.7563 74.9932L32.9847 74.3998C33.1675 73.989 33.3503 73.6238 33.4873 73.213C33.8528 72.3457 34.264 71.524 34.6295 70.7024C36.5027 66.6398 38.513 62.6229 40.6604 58.6972C43.0362 54.2695 45.549 49.8874 48.2903 45.5966C49.6153 43.5425 50.9402 41.534 52.4023 39.5712C52.7678 39.1147 53.0876 38.6126 53.4531 38.1561C53.4988 38.0648 53.6359 37.9735 53.6815 37.8366C53.5902 38.0648 53.4074 38.1561 53.6815 37.8822C53.8643 37.654 54.0471 37.4258 54.2298 37.1975C54.9151 36.3759 55.6005 35.5542 56.2858 34.7326C57.5194 33.3175 58.8443 31.9938 60.3064 30.7613C60.5348 30.5787 60.946 30.3048 60.3977 30.67C60.5805 30.5331 60.7175 30.3961 60.9003 30.3048C61.2201 30.0766 61.5399 29.894 61.8598 29.6658C62.1796 29.4832 62.4537 29.3006 62.7735 29.118C62.9106 29.0267 63.0933 28.9811 63.2304 28.8898C63.3218 28.8898 63.4132 28.8441 63.4588 28.7985C63.3218 28.8898 62.8649 29.0267 63.2304 28.8898C63.5045 28.7985 63.8244 28.6616 64.0985 28.6159C64.2355 28.6159 64.3726 28.5703 64.5097 28.5246C64.5554 28.5246 64.6467 28.5246 64.6924 28.5246C64.9209 28.479 64.0071 28.5703 64.4183 28.5246C64.6924 28.5246 64.9666 28.5246 65.2407 28.5246C65.3321 28.5246 65.3778 28.5246 65.4691 28.5246C65.7889 28.5246 65.0122 28.4333 65.1036 28.479C65.2407 28.5246 65.3778 28.5246 65.5148 28.5703C65.6519 28.6159 65.7889 28.6616 65.926 28.7072C65.9717 28.7072 66.0631 28.7529 66.1088 28.7529C66.3829 28.8441 65.5148 28.479 65.8346 28.6159C66.1088 28.7529 66.3372 28.8898 66.6113 29.0724C66.657 29.0724 66.7027 29.1637 66.7941 29.2093C66.657 29.118 66.3829 28.7529 66.5657 29.0267C66.4743 28.7985 66.7484 29.3006 66.5657 29.0267C66.6113 29.1637 66.8855 29.6658 66.7484 29.255C66.8398 29.4376 66.8855 29.6658 66.9312 29.894C66.9312 29.9853 66.9312 30.0766 66.9768 30.1679C66.9768 30.1679 66.9768 29.7571 66.9768 30.031C66.9768 30.2136 66.9768 30.3961 66.9768 30.6244C66.9768 30.7157 66.9768 30.807 66.9768 30.8983C66.9768 30.8983 66.9312 31.4917 66.9768 31.1721C66.9768 30.9439 66.9312 31.4917 66.8855 31.583C66.8855 31.7655 66.7941 31.9938 66.7484 32.1764C66.6113 32.6328 66.4286 33.0893 66.2915 33.5458C66.2001 33.774 66.2915 33.5458 66.2915 33.5001C66.2458 33.6371 66.2001 33.774 66.1088 33.8653C66.0174 34.0479 65.926 34.2305 65.8346 34.4131C65.6062 34.8695 65.3778 35.2804 65.1493 35.7368C64.2355 37.4258 63.2761 39.0691 62.2709 40.7123C61.2658 42.3556 60.215 43.9533 59.1641 45.5053C58.6159 46.2813 58.0676 47.0573 57.5194 47.7876C57.2452 48.1528 56.9711 48.5636 56.697 48.9288C56.5599 49.1114 56.4228 49.294 56.2858 49.4309L56.103 49.7048C56.103 49.7048 55.7375 50.2069 55.8746 49.9787C56.0117 49.7961 55.7832 50.07 55.7832 50.07L55.6005 50.3438C55.6005 50.3438 55.3263 50.6634 55.1893 50.846C54.8694 51.2568 54.5496 51.622 54.2298 52.0328C53.6359 52.8088 52.9962 53.5391 52.3566 54.2695C51.123 55.6845 49.8894 57.0996 48.5645 58.4234C45.9145 61.1622 43.1275 63.8097 40.2035 66.2746C39.4725 66.9137 38.6958 67.5071 37.9648 68.1462C37.5993 68.42 37.2338 68.7396 36.8683 69.0134C36.5484 69.2873 36.9596 68.9221 36.6398 69.196C36.4571 69.333 36.2286 69.5156 36.0459 69.6525C34.5381 70.7937 32.9391 71.9348 31.3857 72.9847C28.4616 74.9475 25.4005 76.8647 22.248 78.508C21.9739 78.6449 21.6997 78.7819 21.4256 78.9188C21.2885 78.9645 21.1515 79.0558 21.0601 79.1014C20.6032 79.3297 21.4256 78.9645 20.9687 79.1471C20.4205 79.3753 19.8265 79.5579 19.2783 79.7405C18.73 79.9231 18.0904 80.1056 17.4964 80.1969C17.2223 80.2426 16.9938 80.2882 16.7197 80.3339C16.5826 80.3339 16.3999 80.3795 16.2628 80.4252C15.7603 80.5165 16.674 80.4252 16.2628 80.4252C15.1663 80.5165 14.0241 80.6078 12.9276 80.4708C12.6991 80.4708 12.3336 80.2882 12.9733 80.4708C12.8819 80.4708 12.7448 80.4708 12.6078 80.4252C12.3336 80.3795 12.0595 80.3339 11.7854 80.2426C11.2828 80.1056 10.8259 79.9687 10.3233 79.7861C9.95784 79.6492 10.7802 80.0144 10.4604 79.8318C10.3233 79.7861 10.232 79.6948 10.0949 79.6492C9.86646 79.5122 9.59233 79.3753 9.36389 79.2383C9.18114 79.1014 8.9527 78.9645 8.76994 78.8275C8.35875 78.5536 9.08976 79.1014 8.76994 78.8275C8.67857 78.7362 8.5415 78.6449 8.45013 78.5536C8.26737 78.3711 8.08462 78.1885 7.90187 78.0059C7.81049 77.8689 7.49067 77.4125 7.35361 77.3668C7.49067 77.3668 7.67342 77.7776 7.39929 77.4125C7.30792 77.3212 7.26223 77.1842 7.17085 77.0929C6.9881 76.8191 6.85104 76.5908 6.71397 76.3169C6.57691 76.0431 6.43984 75.8148 6.30278 75.5409C6.12002 75.1301 6.34846 75.7235 6.30278 75.5409C6.25709 75.404 6.16571 75.2214 6.12002 75.0845C5.89158 74.4454 5.70883 73.8064 5.57176 73.1217C5.48039 72.7565 5.4347 72.437 5.38901 72.0718C5.29763 71.6153 5.38901 72.4826 5.38901 72.0261C5.38901 71.7979 5.34332 71.5697 5.29763 71.3414C5.20626 70.5198 5.20626 69.6982 5.20626 68.9221C5.20626 67.005 5.4347 65.1335 5.66314 63.2619V62.9424C5.66314 62.9424 5.75452 62.5772 5.70883 62.8055C5.66314 63.0337 5.70883 62.6685 5.70883 62.6685V62.2121C5.84589 61.7556 5.93727 61.2535 5.98296 60.797C6.16571 59.7928 6.30278 58.8342 6.53122 57.8299C7.30792 53.9043 8.31306 50.07 9.59233 46.2813C10.232 44.3641 10.9173 42.4469 11.6483 40.5754C11.8311 40.1646 11.9681 39.7081 12.1509 39.2973C12.2423 39.0691 12.3336 38.7952 12.4707 38.5669C12.4707 38.5669 12.6078 38.2018 12.5164 38.43C12.425 38.6126 12.6078 38.2018 12.6078 38.1561C13.019 37.1975 13.4302 36.2389 13.887 35.2804C15.6232 31.5373 17.5421 27.8399 19.6438 24.2795C21.7454 20.719 23.8471 17.4781 26.1772 14.2371C26.7711 13.4155 27.4108 12.5482 28.0047 11.7265C28.2788 11.3614 28.5987 10.9505 28.8728 10.5854C29.0556 10.3571 29.1926 10.1289 29.3754 9.90067C29.1926 10.1289 29.5581 9.67243 29.6038 9.62679C30.8831 7.9835 32.208 6.38585 33.533 4.78821C34.3097 3.87527 34.4925 2.46022 33.533 1.54728C32.6649 0.771282 31.1115 0.588695 30.2891 1.54728L30.4262 1.9581Z" fill="#77BDF0"/>
</svg>
