<svg width="913" height="94" viewBox="0 0 913 94" fill="none" xmlns="http://www.w3.org/2000/svg">
<path d="M782.007 2.00002L782.861 0.766755C782.348 0.411124 781.667 0.411108 781.154 0.766715L782.007 2.00002ZM652.002 92L651.148 93.2332C651.662 93.5889 652.342 93.5889 652.856 93.2333L652.002 92ZM522.009 2.00002L522.863 0.766755C522.349 0.41111 521.669 0.41111 521.155 0.766755L522.009 2.00002ZM392.017 92L391.163 93.2333C391.677 93.5889 392.357 93.5889 392.87 93.2332L392.017 92ZM262.011 2.00002L262.865 0.766716C262.351 0.411123 261.671 0.411123 261.157 0.766716L262.011 2.00002ZM132.006 92L131.152 93.2333C131.665 93.5889 132.346 93.5889 132.859 93.2333L132.006 92ZM2.85382 0.766716C2.17267 0.295181 1.23828 0.465096 0.766724 1.14623C0.295166 1.82737 0.465088 2.76179 1.14624 3.23333L2.85382 0.766716ZM7.24023 7.45207C7.92139 7.92361 8.85577 7.75369 9.32733 7.07256C9.79889 6.39142 9.62897 5.457 8.94782 4.98546L7.24023 7.45207ZM22.7609 14.548C22.0798 14.0764 21.1453 14.2463 20.6738 14.9275C20.2023 15.6086 20.3722 16.543 21.0533 17.0146L22.7609 14.548ZM33.2413 25.4521C33.9225 25.9236 34.8569 25.7537 35.3284 25.0726C35.8 24.3914 35.6301 23.457 34.9489 22.9855L33.2413 25.4521ZM48.762 32.548C48.0809 32.0764 47.1465 32.2463 46.6749 32.9275C46.2034 33.6086 46.3733 34.543 47.0544 35.0146L48.762 32.548ZM59.2424 43.4521C59.9236 43.9236 60.858 43.7537 61.3295 43.0725C61.8011 42.3914 61.6312 41.457 60.95 40.9854L59.2424 43.4521ZM74.7631 50.5479C74.082 50.0764 73.1476 50.2463 72.676 50.9275C72.2045 51.6086 72.3744 52.543 73.0555 53.0146L74.7631 50.5479ZM85.2436 61.452C85.9247 61.9236 86.8591 61.7537 87.3307 61.0725C87.8022 60.3914 87.6323 59.457 86.9512 58.9854L85.2436 61.452ZM100.764 68.5479C100.083 68.0764 99.1487 68.2463 98.6771 68.9274C98.2056 69.6086 98.3755 70.543 99.0566 71.0145L100.764 68.5479ZM111.245 79.452C111.926 79.9236 112.86 79.7537 113.332 79.0725C113.803 78.3914 113.633 77.457 112.952 76.9854L111.245 79.452ZM126.765 86.5479C126.084 86.0764 125.15 86.2463 124.678 86.9274C124.207 87.6086 124.377 88.543 125.058 89.0145L126.765 86.5479ZM138.953 89.0145C139.634 88.543 139.804 87.6086 139.333 86.9274C138.861 86.2463 137.927 86.0764 137.246 86.5479L138.953 89.0145ZM151.059 76.9854C150.378 77.457 150.208 78.3914 150.679 79.0725C151.151 79.7537 152.085 79.9236 152.766 79.452L151.059 76.9854ZM164.954 71.0145C165.636 70.543 165.806 69.6086 165.334 68.9274C164.862 68.2463 163.928 68.0764 163.247 68.5479L164.954 71.0145ZM177.06 58.9854C176.379 59.457 176.209 60.3914 176.68 61.0725C177.152 61.7537 178.086 61.9236 178.768 61.452L177.06 58.9854ZM190.956 53.0146C191.637 52.543 191.807 51.6086 191.335 50.9275C190.864 50.2463 189.929 50.0764 189.248 50.5479L190.956 53.0146ZM203.061 40.9854C202.38 41.457 202.21 42.3914 202.682 43.0725C203.153 43.7537 204.088 43.9236 204.769 43.4521L203.061 40.9854ZM216.957 35.0146C217.638 34.543 217.808 33.6086 217.336 32.9275C216.865 32.2463 215.93 32.0764 215.249 32.548L216.957 35.0146ZM229.062 22.9855C228.381 23.457 228.211 24.3914 228.683 25.0726C229.154 25.7537 230.089 25.9236 230.77 25.4521L229.062 22.9855ZM242.958 17.0146C243.639 16.543 243.809 15.6086 243.337 14.9275C242.866 14.2463 241.931 14.0764 241.25 14.548L242.958 17.0146ZM255.063 4.98547C254.382 5.45701 254.212 6.39143 254.684 7.07257C255.155 7.75371 256.09 7.92362 256.771 7.45209L255.063 4.98547ZM267.251 7.45207C267.932 7.92361 268.867 7.75369 269.338 7.07256C269.81 6.39142 269.64 5.457 268.959 4.98546L267.251 7.45207ZM282.772 14.548C282.091 14.0764 281.156 14.2463 280.685 14.9275C280.213 15.6086 280.383 16.543 281.064 17.0146L282.772 14.548ZM293.252 25.4521C293.934 25.9236 294.868 25.7537 295.34 25.0725C295.811 24.3914 295.641 23.457 294.96 22.9855L293.252 25.4521ZM308.773 32.5479C308.092 32.0764 307.158 32.2463 306.686 32.9275C306.214 33.6086 306.384 34.543 307.066 35.0146L308.773 32.5479ZM319.254 43.4521C319.935 43.9236 320.869 43.7537 321.341 43.0725C321.812 42.3914 321.642 41.457 320.961 40.9854L319.254 43.4521ZM334.774 50.5479C334.093 50.0764 333.159 50.2463 332.687 50.9275C332.216 51.6086 332.385 52.543 333.067 53.0145L334.774 50.5479ZM345.255 61.452C345.936 61.9236 346.87 61.7537 347.342 61.0725C347.813 60.3914 347.643 59.457 346.962 58.9854L345.255 61.452ZM360.775 68.5479C360.094 68.0764 359.16 68.2463 358.688 68.9274C358.217 69.6086 358.387 70.543 359.068 71.0145L360.775 68.5479ZM371.256 79.452C371.937 79.9236 372.871 79.7537 373.343 79.0725C373.814 78.3914 373.644 77.457 372.963 76.9854L371.256 79.452ZM386.776 86.5479C386.095 86.0764 385.161 86.2463 384.689 86.9274C384.218 87.6086 384.388 88.543 385.069 89.0145L386.776 86.5479ZM398.964 89.0145C399.645 88.5429 399.815 87.6085 399.343 86.9274C398.872 86.2463 397.937 86.0764 397.256 86.548L398.964 89.0145ZM411.068 76.9855C410.387 77.457 410.217 78.3915 410.688 79.0726C411.16 79.7537 412.094 79.9236 412.776 79.452L411.068 76.9855ZM424.962 71.0145C425.643 70.5429 425.813 69.6085 425.342 68.9274C424.87 68.2463 423.936 68.0764 423.255 68.548L424.962 71.0145ZM437.066 58.9855C436.385 59.457 436.215 60.3915 436.687 61.0726C437.159 61.7537 438.093 61.9236 438.774 61.452L437.066 58.9855ZM450.961 53.0145C451.642 52.5429 451.812 51.6085 451.34 50.9274C450.869 50.2463 449.934 50.0764 449.253 50.548L450.961 53.0145ZM463.065 40.9855C462.384 41.457 462.214 42.3915 462.686 43.0726C463.157 43.7537 464.092 43.9236 464.773 43.452L463.065 40.9855ZM476.959 35.0145C477.641 34.543 477.81 33.6085 477.339 32.9274C476.867 32.2463 475.933 32.0764 475.252 32.548L476.959 35.0145ZM489.063 22.9855C488.382 23.4571 488.212 24.3915 488.684 25.0726C489.156 25.7537 490.09 25.9236 490.771 25.452L489.063 22.9855ZM502.958 17.0145C503.639 16.543 503.809 15.6085 503.337 14.9274C502.866 14.2463 501.931 14.0764 501.25 14.548L502.958 17.0145ZM515.062 4.9855C514.381 5.45707 514.211 6.3915 514.683 7.07262C515.154 7.75373 516.089 7.9236 516.77 7.45203L515.062 4.9855ZM527.249 7.45203C527.93 7.9236 528.864 7.75373 529.336 7.07262C529.807 6.3915 529.638 5.45707 528.957 4.9855L527.249 7.45203ZM542.768 14.548C542.087 14.0764 541.153 14.2463 540.681 14.9274C540.21 15.6085 540.379 16.543 541.061 17.0145L542.768 14.548ZM553.247 25.452C553.928 25.9236 554.863 25.7537 555.334 25.0726C555.806 24.3915 555.636 23.4571 554.955 22.9855L553.247 25.452ZM568.767 32.548C568.086 32.0764 567.151 32.2463 566.68 32.9274C566.208 33.6085 566.378 34.543 567.059 35.0145L568.767 32.548ZM579.246 43.452C579.927 43.9236 580.861 43.7537 581.333 43.0726C581.805 42.3915 581.635 41.4571 580.954 40.9855L579.246 43.452ZM594.765 50.548C594.084 50.0764 593.15 50.2463 592.678 50.9274C592.207 51.6085 592.376 52.5429 593.058 53.0145L594.765 50.548ZM605.244 61.452C605.925 61.9236 606.86 61.7537 607.331 61.0726C607.803 60.3915 607.633 59.457 606.952 58.9855L605.244 61.452ZM620.764 68.548C620.083 68.0764 619.148 68.2463 618.677 68.9274C618.205 69.6085 618.375 70.5429 619.056 71.0145L620.764 68.548ZM631.243 79.452C631.924 79.9236 632.858 79.7537 633.33 79.0726C633.802 78.3915 633.632 77.457 632.951 76.9855L631.243 79.452ZM646.762 86.548C646.081 86.0764 645.147 86.2463 644.675 86.9274C644.204 87.6085 644.373 88.5429 645.055 89.0145L646.762 86.548ZM658.95 89.0145C659.631 88.543 659.801 87.6086 659.329 86.9274C658.858 86.2463 657.923 86.0764 657.242 86.5479L658.95 89.0145ZM671.055 76.9854C670.374 77.457 670.204 78.3914 670.676 79.0725C671.147 79.7537 672.082 79.9236 672.763 79.452L671.055 76.9854ZM684.951 71.0145C685.632 70.543 685.802 69.6086 685.33 68.9274C684.859 68.2463 683.924 68.0764 683.243 68.5479L684.951 71.0145ZM697.056 58.9854C696.375 59.457 696.205 60.3914 696.677 61.0725C697.148 61.7537 698.083 61.9236 698.764 61.452L697.056 58.9854ZM710.952 53.0146C711.633 52.543 711.803 51.6086 711.331 50.9275C710.86 50.2463 709.925 50.0764 709.244 50.5479L710.952 53.0146ZM723.057 40.9854C722.376 41.457 722.206 42.3914 722.678 43.0725C723.149 43.7537 724.084 43.9236 724.765 43.4521L723.057 40.9854ZM736.953 35.0146C737.634 34.543 737.804 33.6086 737.333 32.9275C736.861 32.2463 735.927 32.0764 735.245 32.5479L736.953 35.0146ZM749.059 22.9855C748.377 23.457 748.207 24.3914 748.679 25.0725C749.151 25.7537 750.085 25.9236 750.766 25.4521L749.059 22.9855ZM762.954 17.0146C763.635 16.543 763.805 15.6086 763.334 14.9275C762.862 14.2463 761.928 14.0764 761.247 14.548L762.954 17.0146ZM775.06 4.98546C774.378 5.457 774.209 6.39142 774.68 7.07256C775.152 7.75369 776.086 7.92361 776.767 7.45207L775.06 4.98546ZM787.247 7.45203C787.928 7.9236 788.863 7.75373 789.334 7.07262C789.806 6.3915 789.636 5.45707 788.955 4.9855L787.247 7.45203ZM802.766 14.548C802.085 14.0764 801.151 14.2463 800.679 14.9274C800.208 15.6085 800.378 16.543 801.059 17.0145L802.766 14.548ZM813.245 25.452C813.927 25.9236 814.861 25.7537 815.333 25.0726C815.804 24.3915 815.634 23.4571 814.953 22.9855L813.245 25.452ZM828.765 32.548C828.084 32.0764 827.149 32.2463 826.678 32.9274C826.206 33.6085 826.376 34.543 827.057 35.0145L828.765 32.548ZM839.244 43.452C839.925 43.9236 840.86 43.7537 841.331 43.0726C841.803 42.3915 841.633 41.457 840.952 40.9855L839.244 43.452ZM854.763 50.548C854.082 50.0764 853.148 50.2463 852.676 50.9274C852.205 51.6085 852.375 52.5429 853.056 53.0145L854.763 50.548ZM865.243 61.452C865.924 61.9236 866.858 61.7537 867.33 61.0726C867.801 60.3915 867.631 59.457 866.95 58.9855L865.243 61.452ZM880.762 68.548C880.081 68.0764 879.146 68.2463 878.675 68.9274C878.203 69.6085 878.373 70.5429 879.054 71.0145L880.762 68.548ZM891.241 79.452C891.922 79.9236 892.857 79.7537 893.328 79.0726C893.8 78.3915 893.63 77.457 892.949 76.9855L891.241 79.452ZM906.76 86.548C906.079 86.0764 905.145 86.2463 904.673 86.9274C904.202 87.6085 904.372 88.5429 905.053 89.0145L906.76 86.548ZM1.14624 3.23333L7.24023 7.45207L8.94782 4.98546L2.85382 0.766716L1.14624 3.23333ZM21.0533 17.0146L33.2413 25.4521L34.9489 22.9855L22.7609 14.548L21.0533 17.0146ZM47.0544 35.0146L59.2424 43.4521L60.95 40.9854L48.762 32.548L47.0544 35.0146ZM73.0555 53.0146L85.2436 61.452L86.9512 58.9854L74.7631 50.5479L73.0555 53.0146ZM99.0566 71.0145L111.245 79.452L112.952 76.9854L100.764 68.5479L99.0566 71.0145ZM125.058 89.0145L131.152 93.2333L132.859 90.7667L126.765 86.5479L125.058 89.0145ZM132.859 93.2333L138.953 89.0145L137.246 86.5479L131.152 90.7667L132.859 93.2333ZM152.766 79.452L164.954 71.0145L163.247 68.5479L151.059 76.9854L152.766 79.452ZM178.768 61.452L190.956 53.0146L189.248 50.5479L177.06 58.9854L178.768 61.452ZM204.769 43.4521L216.957 35.0146L215.249 32.548L203.061 40.9854L204.769 43.4521ZM230.77 25.4521L242.958 17.0146L241.25 14.548L229.062 22.9855L230.77 25.4521ZM256.771 7.45209L262.865 3.23333L261.157 0.766716L255.063 4.98547L256.771 7.45209ZM261.157 3.23333L267.251 7.45207L268.959 4.98546L262.865 0.766716L261.157 3.23333ZM281.064 17.0146L293.252 25.4521L294.96 22.9855L282.772 14.548L281.064 17.0146ZM307.066 35.0146L319.254 43.4521L320.961 40.9854L308.773 32.5479L307.066 35.0146ZM333.067 53.0145L345.255 61.452L346.962 58.9854L334.774 50.5479L333.067 53.0145ZM359.068 71.0145L371.256 79.452L372.963 76.9854L360.775 68.5479L359.068 71.0145ZM385.069 89.0145L391.163 93.2333L392.87 90.7667L386.776 86.5479L385.069 89.0145ZM392.87 93.2332L398.964 89.0145L397.256 86.548L391.163 90.7667L392.87 93.2332ZM412.776 79.452L424.962 71.0145L423.255 68.548L411.068 76.9855L412.776 79.452ZM438.774 61.452L450.961 53.0145L449.253 50.548L437.066 58.9855L438.774 61.452ZM464.773 43.452L476.959 35.0145L475.252 32.548L463.065 40.9855L464.773 43.452ZM490.771 25.452L502.958 17.0145L501.25 14.548L489.063 22.9855L490.771 25.452ZM516.77 7.45203L522.863 3.23329L521.155 0.766755L515.062 4.9855L516.77 7.45203ZM521.155 3.23329L527.249 7.45203L528.957 4.9855L522.863 0.766755L521.155 3.23329ZM541.061 17.0145L553.247 25.452L554.955 22.9855L542.768 14.548L541.061 17.0145ZM567.059 35.0145L579.246 43.452L580.954 40.9855L568.767 32.548L567.059 35.0145ZM593.058 53.0145L605.244 61.452L606.952 58.9855L594.765 50.548L593.058 53.0145ZM619.056 71.0145L631.243 79.452L632.951 76.9855L620.764 68.548L619.056 71.0145ZM645.055 89.0145L651.148 93.2332L652.856 90.7667L646.762 86.548L645.055 89.0145ZM652.856 93.2333L658.95 89.0145L657.242 86.5479L651.148 90.7667L652.856 93.2333ZM672.763 79.452L684.951 71.0145L683.243 68.5479L671.055 76.9854L672.763 79.452ZM698.764 61.452L710.952 53.0146L709.244 50.5479L697.056 58.9854L698.764 61.452ZM724.765 43.4521L736.953 35.0146L735.245 32.5479L723.057 40.9854L724.765 43.4521ZM750.766 25.4521L762.954 17.0146L761.247 14.548L749.059 22.9855L750.766 25.4521ZM776.767 7.45207L782.861 3.23333L781.154 0.766715L775.06 4.98546L776.767 7.45207ZM781.154 3.23329L787.247 7.45203L788.955 4.9855L782.861 0.766755L781.154 3.23329ZM801.059 17.0145L813.245 25.452L814.953 22.9855L802.766 14.548L801.059 17.0145ZM827.057 35.0145L839.244 43.452L840.952 40.9855L828.765 32.548L827.057 35.0145ZM853.056 53.0145L865.243 61.452L866.95 58.9855L854.763 50.548L853.056 53.0145ZM879.054 71.0145L891.241 79.452L892.949 76.9855L880.762 68.548L879.054 71.0145ZM905.053 89.0145L911.146 93.2332L912.854 90.7667L906.76 86.548L905.053 89.0145Z" fill="#202223"/>
</svg>
