<svg width="1114" height="76" viewBox="0 0 1114 76" fill="none" xmlns="http://www.w3.org/2000/svg">
<path d="M538.695 74L537.92 75.2841C538.397 75.5719 538.994 75.572 539.47 75.2841L538.695 74ZM419.436 2.00002L420.211 0.715898C419.735 0.428062 419.138 0.428062 418.661 0.715898L419.436 2.00002ZM300.177 74L299.402 75.2841C299.879 75.5719 300.476 75.5719 300.952 75.2841L300.177 74ZM180.906 2.00002L181.681 0.715865C181.205 0.428074 180.608 0.428074 180.131 0.715865L180.906 2.00002ZM61.6354 74L60.8601 75.2841C61.3369 75.5719 61.9338 75.5719 62.4105 75.2841L61.6354 74ZM598.331 38L598.331 36.5C598.057 36.5 597.789 36.5746 597.555 36.7159L598.331 38ZM2.77515 36.7159C2.06592 36.2877 1.14392 36.5156 0.715821 37.2248C0.287721 37.934 0.515504 38.856 1.22473 39.2842L2.77515 36.7159ZM539.47 72.7159L420.211 0.715898L418.661 3.28414L537.92 75.2841L539.47 72.7159ZM418.661 0.715898L299.402 72.7159L300.952 75.2841L420.211 3.28414L418.661 0.715898ZM300.952 72.7158L181.681 0.715865L180.131 3.28418L299.402 75.2841L300.952 72.7158ZM180.131 0.715865L60.8601 72.7158L62.4105 75.2841L181.681 3.28418L180.131 0.715865ZM597.555 36.7159L537.92 72.7158L539.47 75.2841L599.106 39.2842L597.555 36.7159ZM598.331 39.5L1114 39.5L1114 36.5L598.331 36.5L598.331 39.5ZM62.4105 72.7158L2.77515 36.7159L1.22473 39.2842L60.8601 75.2841L62.4105 72.7158Z" fill="#202223"/>
</svg>
